<?xml version="1.0" encoding="UTF-8" standalone="no"?><svg xmlns="http://www.w3.org/2000/svg" xmlns:xlink="http://www.w3.org/1999/xlink" contentScriptType="application/ecmascript" contentStyleType="text/css" height="479px" preserveAspectRatio="none" style="width:651px;height:479px;" version="1.1" viewBox="0 0 651 479" width="651px" zoomAndPan="magnify"><defs><filter height="300%" id="f1bpfqow06is4k" width="300%" x="-1" y="-1"><feGaussianBlur result="blurOut" stdDeviation="2.0"/><feColorMatrix in="blurOut" result="blurOut2" type="matrix" values="0 0 0 0 0 0 0 0 0 0 0 0 0 0 0 0 0 0 .4 0"/><feOffset dx="4.0" dy="4.0" in="blurOut2" result="blurOut3"/><feBlend in="SourceGraphic" in2="blurOut3" mode="normal"/></filter></defs><g><!--cluster java.lang--><polygon fill="#FFFFFF" filter="url(#f1bpfqow06is4k)" points="341,16,410,16,417,38.4883,487,38.4883,487,112,341,112,341,16" style="stroke: #000000; stroke-width: 2.0;"/><line style="stroke: #000000; stroke-width: 2.0;" x1="341" x2="417" y1="38.4883" y2="38.4883"/><text fill="#000000" font-family="sans-serif" font-size="14" font-weight="bold" lengthAdjust="spacingAndGlyphs" textLength="63" x="345" y="31.5352">java.lang</text><!--cluster java.util--><polygon fill="#FFFFFF" filter="url(#f1bpfqow06is4k)" points="14,198,77,198,84,220.4883,629,220.4883,629,467,14,467,14,198" style="stroke: #000000; stroke-width: 2.0;"/><line style="stroke: #000000; stroke-width: 2.0;" x1="14" x2="84" y1="220.4883" y2="220.4883"/><text fill="#000000" font-family="sans-serif" font-size="14" font-weight="bold" lengthAdjust="spacingAndGlyphs" textLength="57" x="18" y="213.5352">java.util</text><!--class java.lang.Iterable--><rect fill="#FEFECE" filter="url(#f1bpfqow06is4k)" height="60.9551" id="java.lang.Iterable" style="stroke: #A80036; stroke-width: 1.5;" width="130" x="349" y="43"/><ellipse cx="383.35" cy="59" fill="#B4A7E5" rx="11" ry="11" style="stroke: #A80036; stroke-width: 1.0;"/><path d="M379.2777,54.7651 L379.2777,52.6069 L386.6571,52.6069 L386.6571,54.7651 L384.1918,54.7651 L384.1918,62.8418 L386.6571,62.8418 L386.6571,65 L379.2777,65 L379.2777,62.8418 L381.7431,62.8418 L381.7431,54.7651 Z "/><text fill="#000000" font-family="sans-serif" font-size="12" font-style="italic" lengthAdjust="spacingAndGlyphs" textLength="44" x="401.65" y="63.5352">Iterable</text><rect fill="#FFFFFF" height="16.1328" style="stroke: #000000; stroke-width: 1.0; stroke-dasharray: 2.0,2.0;" width="9" x="473" y="40"/><text fill="#000000" font-family="sans-serif" font-size="12" font-style="italic" lengthAdjust="spacingAndGlyphs" textLength="7" x="474" y="52.6016">E</text><line style="stroke: #A80036; stroke-width: 1.5;" x1="350" x2="478" y1="75" y2="75"/><line style="stroke: #A80036; stroke-width: 1.5;" x1="350" x2="478" y1="83" y2="83"/><text fill="#000000" font-family="sans-serif" font-size="11" lengthAdjust="spacingAndGlyphs" textLength="118" x="355" y="97.6348">Iterator&lt;E&gt; iterator();</text><!--class Iterator--><rect fill="#FEFECE" filter="url(#f1bpfqow06is4k)" height="73.9102" id="Iterator" style="stroke: #A80036; stroke-width: 1.5;" width="127" x="241.5" y="238"/><ellipse cx="275.4" cy="254" fill="#B4A7E5" rx="11" ry="11" style="stroke: #A80036; stroke-width: 1.0;"/><path d="M271.3277,249.7651 L271.3277,247.6069 L278.7071,247.6069 L278.7071,249.7651 L276.2418,249.7651 L276.2418,257.8418 L278.7071,257.8418 L278.7071,260 L271.3277,260 L271.3277,257.8418 L273.7931,257.8418 L273.7931,249.7651 Z "/><text fill="#000000" font-family="sans-serif" font-size="12" font-style="italic" lengthAdjust="spacingAndGlyphs" textLength="42" x="293.6" y="258.5352">Iterator</text><rect fill="#FFFFFF" height="16.1328" style="stroke: #000000; stroke-width: 1.0; stroke-dasharray: 2.0,2.0;" width="9" x="362.5" y="235"/><text fill="#000000" font-family="sans-serif" font-size="12" font-style="italic" lengthAdjust="spacingAndGlyphs" textLength="7" x="363.5" y="247.6016">E</text><line style="stroke: #A80036; stroke-width: 1.5;" x1="242.5" x2="367.5" y1="270" y2="270"/><line style="stroke: #A80036; stroke-width: 1.5;" x1="242.5" x2="367.5" y1="278" y2="278"/><ellipse cx="252.5" cy="289.9775" fill="#84BE84" rx="3" ry="3" style="stroke: #038048; stroke-width: 1.0;"/><text fill="#000000" font-family="sans-serif" font-size="11" lengthAdjust="spacingAndGlyphs" textLength="101" x="261.5" y="292.6348">hasNext(): boolean</text><ellipse cx="252.5" cy="302.9326" fill="#84BE84" rx="3" ry="3" style="stroke: #038048; stroke-width: 1.0;"/><text fill="#000000" font-family="sans-serif" font-size="11" lengthAdjust="spacingAndGlyphs" textLength="44" x="261.5" y="305.5898">next(): E</text><!--class Collection--><rect fill="#FEFECE" filter="url(#f1bpfqow06is4k)" height="99.8203" id="Collection" style="stroke: #A80036; stroke-width: 1.5;" width="183" x="403.5" y="225"/><ellipse cx="457.75" cy="241" fill="#B4A7E5" rx="11" ry="11" style="stroke: #A80036; stroke-width: 1.0;"/><path d="M453.6777,236.7651 L453.6777,234.6069 L461.0571,234.6069 L461.0571,236.7651 L458.5918,236.7651 L458.5918,244.8418 L461.0571,244.8418 L461.0571,247 L453.6777,247 L453.6777,244.8418 L456.1431,244.8418 L456.1431,236.7651 Z "/><text fill="#000000" font-family="sans-serif" font-size="12" font-style="italic" lengthAdjust="spacingAndGlyphs" textLength="55" x="478.25" y="245.5352">Collection</text><rect fill="#FFFFFF" height="16.1328" style="stroke: #000000; stroke-width: 1.0; stroke-dasharray: 2.0,2.0;" width="9" x="580.5" y="222"/><text fill="#000000" font-family="sans-serif" font-size="12" font-style="italic" lengthAdjust="spacingAndGlyphs" textLength="7" x="581.5" y="234.6016">E</text><line style="stroke: #A80036; stroke-width: 1.5;" x1="404.5" x2="585.5" y1="257" y2="257"/><line style="stroke: #A80036; stroke-width: 1.5;" x1="404.5" x2="585.5" y1="265" y2="265"/><ellipse cx="414.5" cy="276.9775" fill="#84BE84" rx="3" ry="3" style="stroke: #038048; stroke-width: 1.0;"/><text fill="#000000" font-family="sans-serif" font-size="11" lengthAdjust="spacingAndGlyphs" textLength="82" x="423.5" y="279.6348">add(element: E)</text><ellipse cx="414.5" cy="289.9326" fill="#84BE84" rx="3" ry="3" style="stroke: #038048; stroke-width: 1.0;"/><text fill="#000000" font-family="sans-serif" font-size="11" lengthAdjust="spacingAndGlyphs" textLength="157" x="423.5" y="292.5898">contains(element: E): boolean</text><ellipse cx="414.5" cy="302.8877" fill="#84BE84" rx="3" ry="3" style="stroke: #038048; stroke-width: 1.0;"/><text fill="#000000" font-family="sans-serif" font-size="11" lengthAdjust="spacingAndGlyphs" textLength="151" x="423.5" y="305.5449">remove(element: E): boolean</text><ellipse cx="414.5" cy="315.8428" fill="#84BE84" rx="3" ry="3" style="stroke: #038048; stroke-width: 1.0;"/><text fill="#000000" font-family="sans-serif" font-size="11" lengthAdjust="spacingAndGlyphs" textLength="49" x="423.5" y="318.5">size(): int</text><!--class List--><rect fill="#FEFECE" filter="url(#f1bpfqow06is4k)" height="73.9102" id="List" style="stroke: #A80036; stroke-width: 1.5;" width="164" x="175" y="385"/><ellipse cx="237.75" cy="401" fill="#B4A7E5" rx="11" ry="11" style="stroke: #A80036; stroke-width: 1.0;"/><path d="M233.6777,396.7651 L233.6777,394.6069 L241.0571,394.6069 L241.0571,396.7651 L238.5918,396.7651 L238.5918,404.8418 L241.0571,404.8418 L241.0571,407 L233.6777,407 L233.6777,404.8418 L236.1431,404.8418 L236.1431,396.7651 Z "/><text fill="#000000" font-family="sans-serif" font-size="12" font-style="italic" lengthAdjust="spacingAndGlyphs" textLength="19" x="258.25" y="405.5352">List</text><rect fill="#FFFFFF" height="16.1328" style="stroke: #000000; stroke-width: 1.0; stroke-dasharray: 2.0,2.0;" width="9" x="333" y="382"/><text fill="#000000" font-family="sans-serif" font-size="12" font-style="italic" lengthAdjust="spacingAndGlyphs" textLength="7" x="334" y="394.6016">E</text><line style="stroke: #A80036; stroke-width: 1.5;" x1="176" x2="338" y1="417" y2="417"/><line style="stroke: #A80036; stroke-width: 1.5;" x1="176" x2="338" y1="425" y2="425"/><ellipse cx="186" cy="436.9775" fill="#84BE84" rx="3" ry="3" style="stroke: #038048; stroke-width: 1.0;"/><text fill="#000000" font-family="sans-serif" font-size="11" lengthAdjust="spacingAndGlyphs" textLength="138" x="195" y="439.6348">add(index: int, element: E)</text><ellipse cx="186" cy="449.9326" fill="#84BE84" rx="3" ry="3" style="stroke: #038048; stroke-width: 1.0;"/><text fill="#000000" font-family="sans-serif" font-size="11" lengthAdjust="spacingAndGlyphs" textLength="98" x="195" y="452.5898">remove(index: int)</text><!--class Set--><rect fill="#FEFECE" filter="url(#f1bpfqow06is4k)" height="48" id="Set" style="stroke: #A80036; stroke-width: 1.5;" width="60" x="374" y="398"/><ellipse cx="389" cy="414" fill="#B4A7E5" rx="11" ry="11" style="stroke: #A80036; stroke-width: 1.0;"/><path d="M384.9277,409.7651 L384.9277,407.6069 L392.3071,407.6069 L392.3071,409.7651 L389.8418,409.7651 L389.8418,417.8418 L392.3071,417.8418 L392.3071,420 L384.9277,420 L384.9277,417.8418 L387.3931,417.8418 L387.3931,409.7651 Z "/><text fill="#000000" font-family="sans-serif" font-size="12" font-style="italic" lengthAdjust="spacingAndGlyphs" textLength="17" x="403" y="418.5352">Set</text><rect fill="#FFFFFF" height="16.1328" style="stroke: #000000; stroke-width: 1.0; stroke-dasharray: 2.0,2.0;" width="9" x="428" y="395"/><text fill="#000000" font-family="sans-serif" font-size="12" font-style="italic" lengthAdjust="spacingAndGlyphs" textLength="7" x="429" y="407.6016">E</text><line style="stroke: #A80036; stroke-width: 1.5;" x1="375" x2="433" y1="430" y2="430"/><line style="stroke: #A80036; stroke-width: 1.5;" x1="375" x2="433" y1="438" y2="438"/><polygon fill="#FBFB77" filter="url(#f1bpfqow06is4k)" points="469,401.5,469,442.1211,621,442.1211,621,411.5,611,401.5,469,401.5" style="stroke: #A80036; stroke-width: 1.0;"/><polygon fill="#FBFB77" points="469,401.5,469,418,434.0176,422,469,426,469,442.1211,621,442.1211,621,411.5,611,401.5,469,401.5" style="stroke: #A80036; stroke-width: 1.0;"/><line style="stroke: #A80036; stroke-width: 1.0;" x1="611" x2="611" y1="401.5" y2="411.5"/><line style="stroke: #A80036; stroke-width: 1.0;" x1="621" x2="611" y1="411.5" y2="411.5"/><text fill="#000000" font-family="sans-serif" font-size="13" lengthAdjust="spacingAndGlyphs" textLength="105" x="475" y="419.0684">"Same signature,</text><text fill="#000000" font-family="sans-serif" font-size="13" lengthAdjust="spacingAndGlyphs" textLength="131" x="475" y="434.3789">different semantics!"</text><!--class Map--><rect fill="#FEFECE" filter="url(#f1bpfqow06is4k)" height="99.8203" id="Map" style="stroke: #A80036; stroke-width: 1.5;" width="184" x="22" y="225"/><ellipse cx="83.25" cy="241" fill="#B4A7E5" rx="11" ry="11" style="stroke: #A80036; stroke-width: 1.0;"/><path d="M79.1777,236.7651 L79.1777,234.6069 L86.5571,234.6069 L86.5571,236.7651 L84.0918,236.7651 L84.0918,244.8418 L86.5571,244.8418 L86.5571,247 L79.1777,247 L79.1777,244.8418 L81.6431,244.8418 L81.6431,236.7651 Z "/><text fill="#000000" font-family="sans-serif" font-size="12" font-style="italic" lengthAdjust="spacingAndGlyphs" textLength="25" x="103.75" y="245.5352">Map</text><rect fill="#FFFFFF" height="16.1328" style="stroke: #000000; stroke-width: 1.0; stroke-dasharray: 2.0,2.0;" width="26" x="183" y="222"/><text fill="#000000" font-family="sans-serif" font-size="12" font-style="italic" lengthAdjust="spacingAndGlyphs" textLength="24" x="184" y="234.6016">K, V</text><line style="stroke: #A80036; stroke-width: 1.5;" x1="23" x2="205" y1="257" y2="257"/><line style="stroke: #A80036; stroke-width: 1.5;" x1="23" x2="205" y1="265" y2="265"/><ellipse cx="33" cy="276.9775" fill="#84BE84" rx="3" ry="3" style="stroke: #038048; stroke-width: 1.0;"/><text fill="#000000" font-family="sans-serif" font-size="11" lengthAdjust="spacingAndGlyphs" textLength="69" x="42" y="279.6348">get(key: K): V</text><ellipse cx="33" cy="289.9326" fill="#84BE84" rx="3" ry="3" style="stroke: #038048; stroke-width: 1.0;"/><text fill="#000000" font-family="sans-serif" font-size="11" lengthAdjust="spacingAndGlyphs" textLength="104" x="42" y="292.5898">put(key: K, value: V)</text><ellipse cx="33" cy="302.8877" fill="#84BE84" rx="3" ry="3" style="stroke: #038048; stroke-width: 1.0;"/><text fill="#000000" font-family="sans-serif" font-size="11" lengthAdjust="spacingAndGlyphs" textLength="158" x="42" y="305.5449">entrySet(): Set&lt;Entry&lt;K, V&gt;&gt;</text><ellipse cx="33" cy="315.8428" fill="#84BE84" rx="3" ry="3" style="stroke: #038048; stroke-width: 1.0;"/><text fill="#000000" font-family="sans-serif" font-size="11" lengthAdjust="spacingAndGlyphs" textLength="89" x="42" y="318.5">keySet(): Set&lt;K&gt;</text><!--class Map.Entry--><rect fill="#FEFECE" filter="url(#f1bpfqow06is4k)" height="73.9102" id="Map.Entry" style="stroke: #A80036; stroke-width: 1.5;" width="118" x="22" y="385"/><ellipse cx="37" cy="401" fill="#B4A7E5" rx="11" ry="11" style="stroke: #A80036; stroke-width: 1.0;"/><path d="M32.9277,396.7651 L32.9277,394.6069 L40.3071,394.6069 L40.3071,396.7651 L37.8418,396.7651 L37.8418,404.8418 L40.3071,404.8418 L40.3071,407 L32.9277,407 L32.9277,404.8418 L35.3931,404.8418 L35.3931,396.7651 Z "/><text fill="#000000" font-family="sans-serif" font-size="12" font-style="italic" lengthAdjust="spacingAndGlyphs" textLength="58" x="51" y="405.5352">Map.Entry</text><rect fill="#FFFFFF" height="16.1328" style="stroke: #000000; stroke-width: 1.0; stroke-dasharray: 2.0,2.0;" width="26" x="117" y="382"/><text fill="#000000" font-family="sans-serif" font-size="12" font-style="italic" lengthAdjust="spacingAndGlyphs" textLength="24" x="118" y="394.6016">K, V</text><line style="stroke: #A80036; stroke-width: 1.5;" x1="23" x2="139" y1="417" y2="417"/><line style="stroke: #A80036; stroke-width: 1.5;" x1="23" x2="139" y1="425" y2="425"/><ellipse cx="33" cy="436.9775" fill="#84BE84" rx="3" ry="3" style="stroke: #038048; stroke-width: 1.0;"/><text fill="#000000" font-family="sans-serif" font-size="11" lengthAdjust="spacingAndGlyphs" textLength="57" x="42" y="439.6348">getKey(): K</text><ellipse cx="33" cy="449.9326" fill="#84BE84" rx="3" ry="3" style="stroke: #038048; stroke-width: 1.0;"/><text fill="#000000" font-family="sans-serif" font-size="11" lengthAdjust="spacingAndGlyphs" textLength="67" x="42" y="452.5898">getValue(): V</text><!--link java.lang.Iterable to Iterator--><path d="M397.4452,104.1035 C378.0302,139.9947 345.8607,199.464 325.0498,237.9355 " fill="none" id="java.lang.Iterable-Iterator" style="stroke: #A80036; stroke-width: 1.0; stroke-dasharray: 7.0,7.0;"/><!--link java.lang.Iterable to Collection--><path d="M433.9022,123.0097 C446.3556,153.9895 462.3499,193.7777 474.8499,224.8734 " fill="none" id="java.lang.Iterable-Collection" style="stroke: #A80036; stroke-width: 1.0;"/><polygon fill="none" points="427.2669,125.2712,426.3022,104.1035,440.2567,120.0495,427.2669,125.2712" style="stroke: #A80036; stroke-width: 1.0;"/><!--link Collection to List--><path d="M396.3755,335.9151 C369.5179,352.5037 341.233,369.9737 317.2148,384.8085 " fill="none" id="Collection-List" style="stroke: #A80036; stroke-width: 1.0;"/><polygon fill="none" points="393.0651,329.7322,413.7596,325.1779,400.4221,341.6434,393.0651,329.7322" style="stroke: #A80036; stroke-width: 1.0;"/><!--link Collection to Set--><path d="M453.2991,342.363 C440.9794,362.264 428.2857,382.7692 418.8645,397.9881 " fill="none" id="Collection-Set" style="stroke: #A80036; stroke-width: 1.0;"/><polygon fill="none" points="447.4585,338.4987,463.9375,325.1779,459.3622,345.8677,447.4585,338.4987" style="stroke: #A80036; stroke-width: 1.0;"/><!--link Map to Map.Entry--><path d="M99.3783,340.1329 C95.9628,355.3477 92.4384,371.0471 89.401,384.5774 " fill="none" id="Map-Map.Entry" style="stroke: #A80036; stroke-width: 1.0;"/><ellipse cx="100.9833" cy="332.9836" fill="#FFFFFF" rx="8" ry="8" style="stroke: #A80036; stroke-width: 1.0;"/><line style="stroke: #A80036; stroke-width: 1.0;" x1="99.231" x2="102.7356" y1="340.7894" y2="325.1779"/><line style="stroke: #A80036; stroke-width: 1.0;" x1="93.1776" x2="108.789" y1="331.2313" y2="334.7359"/><!--
@startuml containers

interface java.lang.Iterable<E> {
	Iterator<E> iterator();
}

package java.util {

	interface Iterator<E> {
		+hasNext(): boolean
		+next(): E
	}

	java.lang.Iterable ... Iterator

	interface Collection<E> extends java.lang.Iterable {
		+add(element: E)
		+contains(element: E): boolean
		+remove(element: E): boolean
		+size(): int
	}



	interface List<E> extends Collection {
		+add(index: int, element: E)
		+remove(index: int)
	}

	interface Set<E> extends Collection {

	}

	note right of Set: "Same signature,\ndifferent semantics!"

	interface Map<K, V> {
		+get(key: K): V
		+put(key: K, value: V)
		+entrySet(): Set<Entry<K, V>>
		+keySet(): Set<K>
	}

	interface Map.Entry<K, V> {
		+getKey(): K
		+getValue(): V
	}

	Map +- - Map.Entry
}

@enduml

PlantUML version 1.2017.16(Sun Sep 03 12:53:37 CEST 2017)
(GPL source distribution)
Java Runtime: Java(TM) SE Runtime Environment
JVM: Java HotSpot(TM) 64-Bit Server VM
Java Version: 1.8.0_144-b01
Operating System: Mac OS X
OS Version: 10.13.4
Default Encoding: UTF-8
Language: en
Country: US
--></g></svg>