<?xml version="1.0" encoding="UTF-8" standalone="no"?><svg xmlns="http://www.w3.org/2000/svg" xmlns:xlink="http://www.w3.org/1999/xlink" contentScriptType="application/ecmascript" contentStyleType="text/css" height="836px" preserveAspectRatio="none" style="width:932px;height:836px;" version="1.1" viewBox="0 0 932 836" width="932px" zoomAndPan="magnify"><defs><filter height="300%" id="f1vja2m1bhvygh" width="300%" x="-1" y="-1"><feGaussianBlur result="blurOut" stdDeviation="2.0"/><feColorMatrix in="blurOut" result="blurOut2" type="matrix" values="0 0 0 0 0 0 0 0 0 0 0 0 0 0 0 0 0 0 .4 0"/><feOffset dx="4.0" dy="4.0" in="blurOut2" result="blurOut3"/><feBlend in="SourceGraphic" in2="blurOut3" mode="normal"/></filter></defs><g><!--cluster java.lang--><polygon fill="#FFFFFF" filter="url(#f1vja2m1bhvygh)" points="389,16,458,16,465,38.4883,535,38.4883,535,112,389,112,389,16" style="stroke: #000000; stroke-width: 2.0;"/><line style="stroke: #000000; stroke-width: 2.0;" x1="389" x2="465" y1="38.4883" y2="38.4883"/><text fill="#000000" font-family="sans-serif" font-size="14" font-weight="bold" lengthAdjust="spacingAndGlyphs" textLength="63" x="393" y="31.5352">java.lang</text><!--cluster java.util--><polygon fill="#FFFFFF" filter="url(#f1vja2m1bhvygh)" points="14,198,77,198,84,220.4883,910,220.4883,910,824,14,824,14,198" style="stroke: #000000; stroke-width: 2.0;"/><line style="stroke: #000000; stroke-width: 2.0;" x1="14" x2="84" y1="220.4883" y2="220.4883"/><text fill="#000000" font-family="sans-serif" font-size="14" font-weight="bold" lengthAdjust="spacingAndGlyphs" textLength="57" x="18" y="213.5352">java.util</text><!--class java.lang.Iterable--><rect fill="#FEFECE" filter="url(#f1vja2m1bhvygh)" height="60.9551" id="java.lang.Iterable" style="stroke: #A80036; stroke-width: 1.5;" width="130" x="397" y="43"/><ellipse cx="431.35" cy="59" fill="#B4A7E5" rx="11" ry="11" style="stroke: #A80036; stroke-width: 1.0;"/><path d="M427.2777,54.7651 L427.2777,52.6069 L434.6571,52.6069 L434.6571,54.7651 L432.1918,54.7651 L432.1918,62.8418 L434.6571,62.8418 L434.6571,65 L427.2777,65 L427.2777,62.8418 L429.7431,62.8418 L429.7431,54.7651 Z "/><text fill="#000000" font-family="sans-serif" font-size="12" font-style="italic" lengthAdjust="spacingAndGlyphs" textLength="44" x="449.65" y="63.5352">Iterable</text><rect fill="#FFFFFF" height="16.1328" style="stroke: #000000; stroke-width: 1.0; stroke-dasharray: 2.0,2.0;" width="9" x="521" y="40"/><text fill="#000000" font-family="sans-serif" font-size="12" font-style="italic" lengthAdjust="spacingAndGlyphs" textLength="7" x="522" y="52.6016">E</text><line style="stroke: #A80036; stroke-width: 1.5;" x1="398" x2="526" y1="75" y2="75"/><line style="stroke: #A80036; stroke-width: 1.5;" x1="398" x2="526" y1="83" y2="83"/><text fill="#000000" font-family="sans-serif" font-size="11" lengthAdjust="spacingAndGlyphs" textLength="118" x="403" y="97.6348">Iterator&lt;E&gt; iterator();</text><!--class Iterator--><rect fill="#FEFECE" filter="url(#f1vja2m1bhvygh)" height="73.9102" id="Iterator" style="stroke: #A80036; stroke-width: 1.5;" width="127" x="304.5" y="238"/><ellipse cx="338.4" cy="254" fill="#B4A7E5" rx="11" ry="11" style="stroke: #A80036; stroke-width: 1.0;"/><path d="M334.3277,249.7651 L334.3277,247.6069 L341.7071,247.6069 L341.7071,249.7651 L339.2418,249.7651 L339.2418,257.8418 L341.7071,257.8418 L341.7071,260 L334.3277,260 L334.3277,257.8418 L336.7931,257.8418 L336.7931,249.7651 Z "/><text fill="#000000" font-family="sans-serif" font-size="12" font-style="italic" lengthAdjust="spacingAndGlyphs" textLength="42" x="356.6" y="258.5352">Iterator</text><rect fill="#FFFFFF" height="16.1328" style="stroke: #000000; stroke-width: 1.0; stroke-dasharray: 2.0,2.0;" width="9" x="425.5" y="235"/><text fill="#000000" font-family="sans-serif" font-size="12" font-style="italic" lengthAdjust="spacingAndGlyphs" textLength="7" x="426.5" y="247.6016">E</text><line style="stroke: #A80036; stroke-width: 1.5;" x1="305.5" x2="430.5" y1="270" y2="270"/><line style="stroke: #A80036; stroke-width: 1.5;" x1="305.5" x2="430.5" y1="278" y2="278"/><ellipse cx="315.5" cy="289.9775" fill="#84BE84" rx="3" ry="3" style="stroke: #038048; stroke-width: 1.0;"/><text fill="#000000" font-family="sans-serif" font-size="11" lengthAdjust="spacingAndGlyphs" textLength="101" x="324.5" y="292.6348">hasNext(): boolean</text><ellipse cx="315.5" cy="302.9326" fill="#84BE84" rx="3" ry="3" style="stroke: #038048; stroke-width: 1.0;"/><text fill="#000000" font-family="sans-serif" font-size="11" lengthAdjust="spacingAndGlyphs" textLength="44" x="324.5" y="305.5898">next(): E</text><!--class Collection--><rect fill="#FEFECE" filter="url(#f1vja2m1bhvygh)" height="99.8203" id="Collection" style="stroke: #A80036; stroke-width: 1.5;" width="183" x="466.5" y="225"/><ellipse cx="520.75" cy="241" fill="#B4A7E5" rx="11" ry="11" style="stroke: #A80036; stroke-width: 1.0;"/><path d="M516.6777,236.7651 L516.6777,234.6069 L524.0571,234.6069 L524.0571,236.7651 L521.5918,236.7651 L521.5918,244.8418 L524.0571,244.8418 L524.0571,247 L516.6777,247 L516.6777,244.8418 L519.1431,244.8418 L519.1431,236.7651 Z "/><text fill="#000000" font-family="sans-serif" font-size="12" font-style="italic" lengthAdjust="spacingAndGlyphs" textLength="55" x="541.25" y="245.5352">Collection</text><rect fill="#FFFFFF" height="16.1328" style="stroke: #000000; stroke-width: 1.0; stroke-dasharray: 2.0,2.0;" width="9" x="643.5" y="222"/><text fill="#000000" font-family="sans-serif" font-size="12" font-style="italic" lengthAdjust="spacingAndGlyphs" textLength="7" x="644.5" y="234.6016">E</text><line style="stroke: #A80036; stroke-width: 1.5;" x1="467.5" x2="648.5" y1="257" y2="257"/><line style="stroke: #A80036; stroke-width: 1.5;" x1="467.5" x2="648.5" y1="265" y2="265"/><ellipse cx="477.5" cy="276.9775" fill="#84BE84" rx="3" ry="3" style="stroke: #038048; stroke-width: 1.0;"/><text fill="#000000" font-family="sans-serif" font-size="11" lengthAdjust="spacingAndGlyphs" textLength="82" x="486.5" y="279.6348">add(element: E)</text><ellipse cx="477.5" cy="289.9326" fill="#84BE84" rx="3" ry="3" style="stroke: #038048; stroke-width: 1.0;"/><text fill="#000000" font-family="sans-serif" font-size="11" lengthAdjust="spacingAndGlyphs" textLength="157" x="486.5" y="292.5898">contains(element: E): boolean</text><ellipse cx="477.5" cy="302.8877" fill="#84BE84" rx="3" ry="3" style="stroke: #038048; stroke-width: 1.0;"/><text fill="#000000" font-family="sans-serif" font-size="11" lengthAdjust="spacingAndGlyphs" textLength="151" x="486.5" y="305.5449">remove(element: E): boolean</text><ellipse cx="477.5" cy="315.8428" fill="#84BE84" rx="3" ry="3" style="stroke: #038048; stroke-width: 1.0;"/><text fill="#000000" font-family="sans-serif" font-size="11" lengthAdjust="spacingAndGlyphs" textLength="49" x="486.5" y="318.5">size(): int</text><!--class List--><rect fill="#FEFECE" filter="url(#f1vja2m1bhvygh)" height="73.9102" id="List" style="stroke: #A80036; stroke-width: 1.5;" width="164" x="602" y="398"/><ellipse cx="664.75" cy="414" fill="#B4A7E5" rx="11" ry="11" style="stroke: #A80036; stroke-width: 1.0;"/><path d="M660.6777,409.7651 L660.6777,407.6069 L668.0571,407.6069 L668.0571,409.7651 L665.5918,409.7651 L665.5918,417.8418 L668.0571,417.8418 L668.0571,420 L660.6777,420 L660.6777,417.8418 L663.1431,417.8418 L663.1431,409.7651 Z "/><text fill="#000000" font-family="sans-serif" font-size="12" font-style="italic" lengthAdjust="spacingAndGlyphs" textLength="19" x="685.25" y="418.5352">List</text><rect fill="#FFFFFF" height="16.1328" style="stroke: #000000; stroke-width: 1.0; stroke-dasharray: 2.0,2.0;" width="9" x="760" y="395"/><text fill="#000000" font-family="sans-serif" font-size="12" font-style="italic" lengthAdjust="spacingAndGlyphs" textLength="7" x="761" y="407.6016">E</text><line style="stroke: #A80036; stroke-width: 1.5;" x1="603" x2="765" y1="430" y2="430"/><line style="stroke: #A80036; stroke-width: 1.5;" x1="603" x2="765" y1="438" y2="438"/><ellipse cx="613" cy="449.9775" fill="#84BE84" rx="3" ry="3" style="stroke: #038048; stroke-width: 1.0;"/><text fill="#000000" font-family="sans-serif" font-size="11" lengthAdjust="spacingAndGlyphs" textLength="138" x="622" y="452.6348">add(index: int, element: E)</text><ellipse cx="613" cy="462.9326" fill="#84BE84" rx="3" ry="3" style="stroke: #038048; stroke-width: 1.0;"/><text fill="#000000" font-family="sans-serif" font-size="11" lengthAdjust="spacingAndGlyphs" textLength="98" x="622" y="465.5898">remove(index: int)</text><!--class ArrayList--><rect fill="#FEFECE" filter="url(#f1vja2m1bhvygh)" height="48" id="ArrayList" style="stroke: #A80036; stroke-width: 1.5;" width="93" x="808.5" y="545"/><ellipse cx="823.5" cy="561" fill="#ADD1B2" rx="11" ry="11" style="stroke: #A80036; stroke-width: 1.0;"/><path d="M826.4731,566.6431 Q825.8921,566.9419 825.2529,567.0913 Q824.6138,567.2407 823.9082,567.2407 Q821.4014,567.2407 820.0815,565.5889 Q818.7617,563.937 818.7617,560.8159 Q818.7617,557.6865 820.0815,556.0347 Q821.4014,554.3828 823.9082,554.3828 Q824.6138,554.3828 825.2612,554.5322 Q825.9087,554.6816 826.4731,554.9805 L826.4731,557.7031 Q825.8423,557.1221 825.2488,556.8523 Q824.6553,556.5825 824.0244,556.5825 Q822.6797,556.5825 821.9949,557.6492 Q821.3101,558.7158 821.3101,560.8159 Q821.3101,562.9077 821.9949,563.9744 Q822.6797,565.041 824.0244,565.041 Q824.6553,565.041 825.2488,564.7712 Q825.8423,564.5015 826.4731,563.9204 Z "/><text fill="#000000" font-family="sans-serif" font-size="12" lengthAdjust="spacingAndGlyphs" textLength="50" x="837.5" y="565.5352">ArrayList</text><rect fill="#FFFFFF" height="16.1328" style="stroke: #000000; stroke-width: 1.0; stroke-dasharray: 2.0,2.0;" width="9" x="895.5" y="542"/><text fill="#000000" font-family="sans-serif" font-size="12" font-style="italic" lengthAdjust="spacingAndGlyphs" textLength="7" x="896.5" y="554.6016">E</text><line style="stroke: #A80036; stroke-width: 1.5;" x1="809.5" x2="900.5" y1="577" y2="577"/><line style="stroke: #A80036; stroke-width: 1.5;" x1="809.5" x2="900.5" y1="585" y2="585"/><!--class LinkedList--><rect fill="#FEFECE" filter="url(#f1vja2m1bhvygh)" height="48" id="LinkedList" style="stroke: #A80036; stroke-width: 1.5;" width="100" x="565" y="545"/><ellipse cx="580" cy="561" fill="#ADD1B2" rx="11" ry="11" style="stroke: #A80036; stroke-width: 1.0;"/><path d="M582.9731,566.6431 Q582.3921,566.9419 581.7529,567.0913 Q581.1138,567.2407 580.4082,567.2407 Q577.9014,567.2407 576.5815,565.5889 Q575.2617,563.937 575.2617,560.8159 Q575.2617,557.6865 576.5815,556.0347 Q577.9014,554.3828 580.4082,554.3828 Q581.1138,554.3828 581.7612,554.5322 Q582.4087,554.6816 582.9731,554.9805 L582.9731,557.7031 Q582.3423,557.1221 581.7488,556.8523 Q581.1553,556.5825 580.5244,556.5825 Q579.1797,556.5825 578.4949,557.6492 Q577.8101,558.7158 577.8101,560.8159 Q577.8101,562.9077 578.4949,563.9744 Q579.1797,565.041 580.5244,565.041 Q581.1553,565.041 581.7488,564.7712 Q582.3423,564.5015 582.9731,563.9204 Z "/><text fill="#000000" font-family="sans-serif" font-size="12" lengthAdjust="spacingAndGlyphs" textLength="57" x="594" y="565.5352">LinkedList</text><rect fill="#FFFFFF" height="16.1328" style="stroke: #000000; stroke-width: 1.0; stroke-dasharray: 2.0,2.0;" width="9" x="659" y="542"/><text fill="#000000" font-family="sans-serif" font-size="12" font-style="italic" lengthAdjust="spacingAndGlyphs" textLength="7" x="660" y="554.6016">E</text><line style="stroke: #A80036; stroke-width: 1.5;" x1="566" x2="664" y1="577" y2="577"/><line style="stroke: #A80036; stroke-width: 1.5;" x1="566" x2="664" y1="585" y2="585"/><!--class Stack--><rect fill="#FEFECE" filter="url(#f1vja2m1bhvygh)" height="48" id="Stack" style="stroke: #A80036; stroke-width: 1.5;" width="73" x="700.5" y="545"/><ellipse cx="715.5" cy="561" fill="#ADD1B2" rx="11" ry="11" style="stroke: #A80036; stroke-width: 1.0;"/><path d="M718.4731,566.6431 Q717.8921,566.9419 717.2529,567.0913 Q716.6138,567.2407 715.9082,567.2407 Q713.4014,567.2407 712.0815,565.5889 Q710.7617,563.937 710.7617,560.8159 Q710.7617,557.6865 712.0815,556.0347 Q713.4014,554.3828 715.9082,554.3828 Q716.6138,554.3828 717.2612,554.5322 Q717.9087,554.6816 718.4731,554.9805 L718.4731,557.7031 Q717.8423,557.1221 717.2488,556.8523 Q716.6553,556.5825 716.0244,556.5825 Q714.6797,556.5825 713.9949,557.6492 Q713.3101,558.7158 713.3101,560.8159 Q713.3101,562.9077 713.9949,563.9744 Q714.6797,565.041 716.0244,565.041 Q716.6553,565.041 717.2488,564.7712 Q717.8423,564.5015 718.4731,563.9204 Z "/><text fill="#000000" font-family="sans-serif" font-size="12" lengthAdjust="spacingAndGlyphs" textLength="30" x="729.5" y="565.5352">Stack</text><rect fill="#FFFFFF" height="16.1328" style="stroke: #000000; stroke-width: 1.0; stroke-dasharray: 2.0,2.0;" width="9" x="767.5" y="542"/><text fill="#000000" font-family="sans-serif" font-size="12" font-style="italic" lengthAdjust="spacingAndGlyphs" textLength="7" x="768.5" y="554.6016">E</text><line style="stroke: #A80036; stroke-width: 1.5;" x1="701.5" x2="772.5" y1="577" y2="577"/><line style="stroke: #A80036; stroke-width: 1.5;" x1="701.5" x2="772.5" y1="585" y2="585"/><!--class Set--><rect fill="#FEFECE" filter="url(#f1vja2m1bhvygh)" height="48" id="Set" style="stroke: #A80036; stroke-width: 1.5;" width="60" x="455" y="411"/><ellipse cx="470" cy="427" fill="#B4A7E5" rx="11" ry="11" style="stroke: #A80036; stroke-width: 1.0;"/><path d="M465.9277,422.7651 L465.9277,420.6069 L473.3071,420.6069 L473.3071,422.7651 L470.8418,422.7651 L470.8418,430.8418 L473.3071,430.8418 L473.3071,433 L465.9277,433 L465.9277,430.8418 L468.3931,430.8418 L468.3931,422.7651 Z "/><text fill="#000000" font-family="sans-serif" font-size="12" font-style="italic" lengthAdjust="spacingAndGlyphs" textLength="17" x="484" y="431.5352">Set</text><rect fill="#FFFFFF" height="16.1328" style="stroke: #000000; stroke-width: 1.0; stroke-dasharray: 2.0,2.0;" width="9" x="509" y="408"/><text fill="#000000" font-family="sans-serif" font-size="12" font-style="italic" lengthAdjust="spacingAndGlyphs" textLength="7" x="510" y="420.6016">E</text><line style="stroke: #A80036; stroke-width: 1.5;" x1="456" x2="514" y1="443" y2="443"/><line style="stroke: #A80036; stroke-width: 1.5;" x1="456" x2="514" y1="451" y2="451"/><!--class HashSet--><rect fill="#FEFECE" filter="url(#f1vja2m1bhvygh)" height="48" id="HashSet" style="stroke: #A80036; stroke-width: 1.5;" width="89" x="440.5" y="545"/><ellipse cx="455.5" cy="561" fill="#ADD1B2" rx="11" ry="11" style="stroke: #A80036; stroke-width: 1.0;"/><path d="M458.4731,566.6431 Q457.8921,566.9419 457.2529,567.0913 Q456.6138,567.2407 455.9082,567.2407 Q453.4014,567.2407 452.0815,565.5889 Q450.7617,563.937 450.7617,560.8159 Q450.7617,557.6865 452.0815,556.0347 Q453.4014,554.3828 455.9082,554.3828 Q456.6138,554.3828 457.2612,554.5322 Q457.9087,554.6816 458.4731,554.9805 L458.4731,557.7031 Q457.8423,557.1221 457.2488,556.8523 Q456.6553,556.5825 456.0244,556.5825 Q454.6797,556.5825 453.9949,557.6492 Q453.3101,558.7158 453.3101,560.8159 Q453.3101,562.9077 453.9949,563.9744 Q454.6797,565.041 456.0244,565.041 Q456.6553,565.041 457.2488,564.7712 Q457.8423,564.5015 458.4731,563.9204 Z "/><text fill="#000000" font-family="sans-serif" font-size="12" lengthAdjust="spacingAndGlyphs" textLength="46" x="469.5" y="565.5352">HashSet</text><rect fill="#FFFFFF" height="16.1328" style="stroke: #000000; stroke-width: 1.0; stroke-dasharray: 2.0,2.0;" width="9" x="523.5" y="542"/><text fill="#000000" font-family="sans-serif" font-size="12" font-style="italic" lengthAdjust="spacingAndGlyphs" textLength="7" x="524.5" y="554.6016">E</text><line style="stroke: #A80036; stroke-width: 1.5;" x1="441.5" x2="528.5" y1="577" y2="577"/><line style="stroke: #A80036; stroke-width: 1.5;" x1="441.5" x2="528.5" y1="585" y2="585"/><!--class TreeSet--><rect fill="#FEFECE" filter="url(#f1vja2m1bhvygh)" height="48" id="TreeSet" style="stroke: #A80036; stroke-width: 1.5;" width="87" x="318.5" y="545"/><ellipse cx="333.5" cy="561" fill="#ADD1B2" rx="11" ry="11" style="stroke: #A80036; stroke-width: 1.0;"/><path d="M336.4731,566.6431 Q335.8921,566.9419 335.2529,567.0913 Q334.6138,567.2407 333.9082,567.2407 Q331.4014,567.2407 330.0815,565.5889 Q328.7617,563.937 328.7617,560.8159 Q328.7617,557.6865 330.0815,556.0347 Q331.4014,554.3828 333.9082,554.3828 Q334.6138,554.3828 335.2612,554.5322 Q335.9087,554.6816 336.4731,554.9805 L336.4731,557.7031 Q335.8423,557.1221 335.2488,556.8523 Q334.6553,556.5825 334.0244,556.5825 Q332.6797,556.5825 331.9949,557.6492 Q331.3101,558.7158 331.3101,560.8159 Q331.3101,562.9077 331.9949,563.9744 Q332.6797,565.041 334.0244,565.041 Q334.6553,565.041 335.2488,564.7712 Q335.8423,564.5015 336.4731,563.9204 Z "/><text fill="#000000" font-family="sans-serif" font-size="12" lengthAdjust="spacingAndGlyphs" textLength="44" x="347.5" y="565.5352">TreeSet</text><rect fill="#FFFFFF" height="16.1328" style="stroke: #000000; stroke-width: 1.0; stroke-dasharray: 2.0,2.0;" width="9" x="399.5" y="542"/><text fill="#000000" font-family="sans-serif" font-size="12" font-style="italic" lengthAdjust="spacingAndGlyphs" textLength="7" x="400.5" y="554.6016">E</text><line style="stroke: #A80036; stroke-width: 1.5;" x1="319.5" x2="404.5" y1="577" y2="577"/><line style="stroke: #A80036; stroke-width: 1.5;" x1="319.5" x2="404.5" y1="585" y2="585"/><!--class Map--><rect fill="#FEFECE" filter="url(#f1vja2m1bhvygh)" height="99.8203" id="Map" style="stroke: #A80036; stroke-width: 1.5;" width="184" x="79" y="385"/><ellipse cx="140.25" cy="401" fill="#B4A7E5" rx="11" ry="11" style="stroke: #A80036; stroke-width: 1.0;"/><path d="M136.1777,396.7651 L136.1777,394.6069 L143.5571,394.6069 L143.5571,396.7651 L141.0918,396.7651 L141.0918,404.8418 L143.5571,404.8418 L143.5571,407 L136.1777,407 L136.1777,404.8418 L138.6431,404.8418 L138.6431,396.7651 Z "/><text fill="#000000" font-family="sans-serif" font-size="12" font-style="italic" lengthAdjust="spacingAndGlyphs" textLength="25" x="160.75" y="405.5352">Map</text><rect fill="#FFFFFF" height="16.1328" style="stroke: #000000; stroke-width: 1.0; stroke-dasharray: 2.0,2.0;" width="26" x="240" y="382"/><text fill="#000000" font-family="sans-serif" font-size="12" font-style="italic" lengthAdjust="spacingAndGlyphs" textLength="24" x="241" y="394.6016">K, V</text><line style="stroke: #A80036; stroke-width: 1.5;" x1="80" x2="262" y1="417" y2="417"/><line style="stroke: #A80036; stroke-width: 1.5;" x1="80" x2="262" y1="425" y2="425"/><ellipse cx="90" cy="436.9775" fill="#84BE84" rx="3" ry="3" style="stroke: #038048; stroke-width: 1.0;"/><text fill="#000000" font-family="sans-serif" font-size="11" lengthAdjust="spacingAndGlyphs" textLength="69" x="99" y="439.6348">get(key: K): V</text><ellipse cx="90" cy="449.9326" fill="#84BE84" rx="3" ry="3" style="stroke: #038048; stroke-width: 1.0;"/><text fill="#000000" font-family="sans-serif" font-size="11" lengthAdjust="spacingAndGlyphs" textLength="104" x="99" y="452.5898">put(key: K, value: V)</text><ellipse cx="90" cy="462.8877" fill="#84BE84" rx="3" ry="3" style="stroke: #038048; stroke-width: 1.0;"/><text fill="#000000" font-family="sans-serif" font-size="11" lengthAdjust="spacingAndGlyphs" textLength="158" x="99" y="465.5449">entrySet(): Set&lt;Entry&lt;K, V&gt;&gt;</text><ellipse cx="90" cy="475.8428" fill="#84BE84" rx="3" ry="3" style="stroke: #038048; stroke-width: 1.0;"/><text fill="#000000" font-family="sans-serif" font-size="11" lengthAdjust="spacingAndGlyphs" textLength="89" x="99" y="478.5">keySet(): Set&lt;K&gt;</text><!--class HashMap--><rect fill="#FEFECE" filter="url(#f1vja2m1bhvygh)" height="48" id="HashMap" style="stroke: #A80036; stroke-width: 1.5;" width="114" x="22" y="545"/><ellipse cx="37" cy="561" fill="#ADD1B2" rx="11" ry="11" style="stroke: #A80036; stroke-width: 1.0;"/><path d="M39.9731,566.6431 Q39.3921,566.9419 38.7529,567.0913 Q38.1138,567.2407 37.4082,567.2407 Q34.9014,567.2407 33.5815,565.5889 Q32.2617,563.937 32.2617,560.8159 Q32.2617,557.6865 33.5815,556.0347 Q34.9014,554.3828 37.4082,554.3828 Q38.1138,554.3828 38.7612,554.5322 Q39.4087,554.6816 39.9731,554.9805 L39.9731,557.7031 Q39.3423,557.1221 38.7488,556.8523 Q38.1553,556.5825 37.5244,556.5825 Q36.1797,556.5825 35.4949,557.6492 Q34.8101,558.7158 34.8101,560.8159 Q34.8101,562.9077 35.4949,563.9744 Q36.1797,565.041 37.5244,565.041 Q38.1553,565.041 38.7488,564.7712 Q39.3423,564.5015 39.9731,563.9204 Z "/><text fill="#000000" font-family="sans-serif" font-size="12" lengthAdjust="spacingAndGlyphs" textLength="54" x="51" y="565.5352">HashMap</text><rect fill="#FFFFFF" height="16.1328" style="stroke: #000000; stroke-width: 1.0; stroke-dasharray: 2.0,2.0;" width="26" x="113" y="542"/><text fill="#000000" font-family="sans-serif" font-size="12" font-style="italic" lengthAdjust="spacingAndGlyphs" textLength="24" x="114" y="554.6016">K, V</text><line style="stroke: #A80036; stroke-width: 1.5;" x1="23" x2="135" y1="577" y2="577"/><line style="stroke: #A80036; stroke-width: 1.5;" x1="23" x2="135" y1="585" y2="585"/><!--class TreeMap--><rect fill="#FEFECE" filter="url(#f1vja2m1bhvygh)" height="48" id="TreeMap" style="stroke: #A80036; stroke-width: 1.5;" width="112" x="171" y="545"/><ellipse cx="186" cy="561" fill="#ADD1B2" rx="11" ry="11" style="stroke: #A80036; stroke-width: 1.0;"/><path d="M188.9731,566.6431 Q188.3921,566.9419 187.7529,567.0913 Q187.1138,567.2407 186.4082,567.2407 Q183.9014,567.2407 182.5815,565.5889 Q181.2617,563.937 181.2617,560.8159 Q181.2617,557.6865 182.5815,556.0347 Q183.9014,554.3828 186.4082,554.3828 Q187.1138,554.3828 187.7612,554.5322 Q188.4087,554.6816 188.9731,554.9805 L188.9731,557.7031 Q188.3423,557.1221 187.7488,556.8523 Q187.1553,556.5825 186.5244,556.5825 Q185.1797,556.5825 184.4949,557.6492 Q183.8101,558.7158 183.8101,560.8159 Q183.8101,562.9077 184.4949,563.9744 Q185.1797,565.041 186.5244,565.041 Q187.1553,565.041 187.7488,564.7712 Q188.3423,564.5015 188.9731,563.9204 Z "/><text fill="#000000" font-family="sans-serif" font-size="12" lengthAdjust="spacingAndGlyphs" textLength="52" x="200" y="565.5352">TreeMap</text><rect fill="#FFFFFF" height="16.1328" style="stroke: #000000; stroke-width: 1.0; stroke-dasharray: 2.0,2.0;" width="26" x="260" y="542"/><text fill="#000000" font-family="sans-serif" font-size="12" font-style="italic" lengthAdjust="spacingAndGlyphs" textLength="24" x="261" y="554.6016">K, V</text><line style="stroke: #A80036; stroke-width: 1.5;" x1="172" x2="282" y1="577" y2="577"/><line style="stroke: #A80036; stroke-width: 1.5;" x1="172" x2="282" y1="585" y2="585"/><polygon fill="#FBFB77" filter="url(#f1vja2m1bhvygh)" points="187,775,187,815.6211,401,815.6211,401,785,391,775,187,775" style="stroke: #A80036; stroke-width: 1.0;"/><line style="stroke: #A80036; stroke-width: 1.0;" x1="391" x2="391" y1="775" y2="785"/><line style="stroke: #A80036; stroke-width: 1.0;" x1="401" x2="391" y1="785" y2="785"/><text fill="#000000" font-family="sans-serif" font-size="13" lengthAdjust="spacingAndGlyphs" textLength="193" x="193" y="792.5684">K implements Comparable&lt;K&gt;</text><text fill="#000000" font-family="sans-serif" font-size="13" lengthAdjust="spacingAndGlyphs" textLength="159" x="193" y="807.8789">oder mit Comparator&lt;K&gt;</text><!--link java.lang.Iterable to Iterator--><path d="M447.7234,104.1035 C430.9801,139.9947 403.2376,199.464 385.2907,237.9355 " fill="none" id="java.lang.Iterable-Iterator" style="stroke: #A80036; stroke-width: 1.0; stroke-dasharray: 7.0,7.0;"/><!--link java.lang.Iterable to Collection--><path d="M485.3772,122.5678 C500.1667,153.6104 519.233,193.6296 534.1183,224.8734 " fill="none" id="java.lang.Iterable-Collection" style="stroke: #A80036; stroke-width: 1.0;"/><polygon fill="none" points="478.8631,125.1698,476.5803,104.1035,491.502,119.1483,478.8631,125.1698" style="stroke: #A80036; stroke-width: 1.0;"/><!--link Collection to List--><path d="M610.0662,341.1159 C625.3462,360.519 641.5114,381.0462 654.8166,397.9418 " fill="none" id="Collection-List" style="stroke: #A80036; stroke-width: 1.0;"/><polygon fill="none" points="604.3958,345.2296,597.5215,325.186,615.3948,336.5679,604.3958,345.2296" style="stroke: #A80036; stroke-width: 1.0;"/><!--link List to ArrayList--><path d="M747.4974,484.7582 C773.7485,505.3292 802.9687,528.227 824.3114,544.9516 " fill="none" id="List-ArrayList" style="stroke: #A80036; stroke-width: 1.0; stroke-dasharray: 7.0,7.0;"/><polygon fill="none" points="743.0577,490.1724,731.633,472.3265,751.693,479.1528,743.0577,490.1724" style="stroke: #A80036; stroke-width: 1.0;"/><!--link List to LinkedList--><path d="M655.5045,490.339 C645.6978,509.384 635.2232,529.7259 627.3831,544.9516 " fill="none" id="List-LinkedList" style="stroke: #A80036; stroke-width: 1.0; stroke-dasharray: 7.0,7.0;"/><polygon fill="none" points="649.4002,486.903,664.7797,472.3265,661.847,493.3122,649.4002,486.903" style="stroke: #A80036; stroke-width: 1.0;"/><!--link List to Stack--><path d="M706.1222,490.9315 C713.5871,509.805 721.5286,529.8837 727.4883,544.9516 " fill="none" id="List-Stack" style="stroke: #A80036; stroke-width: 1.0; stroke-dasharray: 7.0,7.0;"/><polygon fill="none" points="699.6101,493.4992,698.7635,472.3265,712.6288,488.35,699.6101,493.4992" style="stroke: #A80036; stroke-width: 1.0;"/><!--link Collection to Set--><path d="M526.7243,343.5494 C515.7678,367.5636 504.1701,392.9834 495.9906,410.9111 " fill="none" id="Collection-Set" style="stroke: #A80036; stroke-width: 1.0;"/><polygon fill="none" points="520.4323,340.476,535.1026,325.186,533.1693,346.2873,520.4323,340.476" style="stroke: #A80036; stroke-width: 1.0;"/><!--link Set to HashSet--><path d="M485,479.4881 C485,501.3148 485,526.7481 485,544.9141 " fill="none" id="Set-HashSet" style="stroke: #A80036; stroke-width: 1.0; stroke-dasharray: 7.0,7.0;"/><polygon fill="none" points="478.0001,479.2664,485,459.2664,492.0001,479.2664,478.0001,479.2664" style="stroke: #A80036; stroke-width: 1.0;"/><!--link Set to TreeSet--><path d="M449.0979,474.1128 C428.0662,497.0254 402.173,525.2343 384.1087,544.9141 " fill="none" id="Set-TreeSet" style="stroke: #A80036; stroke-width: 1.0; stroke-dasharray: 7.0,7.0;"/><polygon fill="none" points="444.0443,469.2668,462.7256,459.2664,454.358,478.7339,444.0443,469.2668" style="stroke: #A80036; stroke-width: 1.0;"/><!--link Map to HashMap--><path d="M125.1339,501.8049 C114.5766,517.182 104.0098,532.5727 95.658,544.7373 " fill="none" id="Map-HashMap" style="stroke: #A80036; stroke-width: 1.0; stroke-dasharray: 7.0,7.0;"/><polygon fill="none" points="119.3899,497.8039,136.4808,485.2779,130.9315,505.728,119.3899,497.8039" style="stroke: #A80036; stroke-width: 1.0;"/><!--link Map to TreeMap--><path d="M199.7388,503.7678 C205.8897,518.486 211.993,533.0904 216.8603,544.7373 " fill="none" id="Map-TreeMap" style="stroke: #A80036; stroke-width: 1.0; stroke-dasharray: 7.0,7.0;"/><polygon fill="none" points="193.2649,506.4305,192.0117,485.2779,206.1823,501.0321,193.2649,506.4305" style="stroke: #A80036; stroke-width: 1.0;"/><!--link TreeSet to n1--><path d="M354.7228,593.2395 C341.2921,637.9756 312.8326,732.7709 300.2299,774.7488 " fill="none" id="TreeSet-n1" style="stroke: #A80036; stroke-width: 1.0; stroke-dasharray: 7.0,7.0;"/><!--link TreeMap to n1--><path d="M234.1702,593.2395 C247.4034,637.9756 275.4444,732.7709 287.8617,774.7488 " fill="none" id="TreeMap-n1" style="stroke: #A80036; stroke-width: 1.0; stroke-dasharray: 7.0,7.0;"/><!--
@startuml containers-api

interface java.lang.Iterable<E> {
	Iterator<E> iterator();
}

package java.util {

	interface Iterator<E> {
		+hasNext(): boolean
		+next(): E
	}

	java.lang.Iterable ... Iterator

	interface Collection<E> extends java.lang.Iterable {
		+add(element: E)
		+contains(element: E): boolean
		+remove(element: E): boolean
		+size(): int
	}

	interface List<E> extends Collection {
		+add(index: int, element: E)
		+remove(index: int)
	}

	class ArrayList<E> implements List {

	}

	class LinkedList<E> implements List {

	}

	class Stack<E> implements List {

	}

	interface Set<E> extends Collection {

	}

	class HashSet<E> implements Set {

	}

	class TreeSet<E> implements Set {

	}

	interface Map<K, V> {
		+get(key: K): V
		+put(key: K, value: V)
		+entrySet(): Set<Entry<K, V>>
		+keySet(): Set<K>
	}

	class HashMap<K, V> implements Map {

	}

	class TreeMap<K, V> implements Map {

	}

	note "K implements Comparable<K>\noder mit Comparator<K>" as n1

	n1 ..up.. TreeSet
	n1 ..up.. TreeMap
}

@enduml

PlantUML version 1.2017.16(Sun Sep 03 12:53:37 CEST 2017)
(GPL source distribution)
Java Runtime: Java(TM) SE Runtime Environment
JVM: Java HotSpot(TM) 64-Bit Server VM
Java Version: 1.8.0_144-b01
Operating System: Mac OS X
OS Version: 10.13.4
Default Encoding: UTF-8
Language: en
Country: US
--></g></svg>