<?xml version="1.0" encoding="UTF-8" standalone="no"?>
<svg xmlns="http://www.w3.org/2000/svg" xmlns:xlink="http://www.w3.org/1999/xlink" contentScriptType="application/ecmascript" contentStyleType="text/css" height="321px" preserveAspectRatio="none" style="width:122px;height:321px;" version="1.1" viewBox="0 0 122 321" width="122px" zoomAndPan="magnify"><defs><filter height="300%" id="f16fvodgycxjms" width="300%" x="-1" y="-1"><feGaussianBlur result="blurOut" stdDeviation="2.0"/><feColorMatrix in="blurOut" result="blurOut2" type="matrix" values="0 0 0 0 0 0 0 0 0 0 0 0 0 0 0 0 0 0 .4 0"/><feOffset dx="4.0" dy="4.0" in="blurOut2" result="blurOut3"/><feBlend in="SourceGraphic" in2="blurOut3" mode="normal"/></filter></defs><g><text fill="#000000" font-family="sans-serif" font-size="18" lengthAdjust="spacingAndGlyphs" textLength="97" x="13" y="16.708">Assoziation</text><!--class Kreis--><rect fill="#FEFECE" filter="url(#f16fvodgycxjms)" height="48" id="Kreis" style="stroke: #A80036; stroke-width: 1.5;" width="62" x="24.5" y="137.9531"/><ellipse cx="39.5" cy="153.9531" fill="#ADD1B2" rx="11" ry="11" style="stroke: #A80036; stroke-width: 1.0;"/><path d="M41.8438,149.625 L42.0156,149.7031 C42.2344,149.3906 42.4375,149.2969 42.7344,149.2969 C43.0313,149.2969 43.3125,149.4375 43.4688,149.7031 C43.5625,149.8594 43.5781,149.9844 43.5781,150.4219 L43.5781,151.8438 C43.5781,152.2656 43.5469,152.4531 43.4375,152.6094 C43.2656,152.8281 43,152.9688 42.7344,152.9688 C42.5156,152.9688 42.2813,152.8594 42.1406,152.7188 C42,152.5938 41.9688,152.4688 41.9063,152.0625 C41.8125,151.6563 41.6406,151.4375 41.1563,151.1563 C40.6875,150.9063 40.0781,150.75 39.5,150.75 C37.7656,150.75 36.5156,152.0625 36.5156,153.8438 L36.5156,154.9375 C36.5156,156.6406 37.8125,157.7344 39.8594,157.7344 C40.625,157.7344 41.3125,157.6094 41.7344,157.3438 C41.9219,157.25 41.9219,157.25 42.375,156.7656 C42.5625,156.5781 42.7656,156.5 42.9844,156.5 C43.4531,156.5 43.8438,156.8906 43.8438,157.3438 C43.8438,157.7344 43.5156,158.1875 42.9375,158.5938 C42.1875,159.1406 41.0313,159.4375 39.8125,159.4375 C36.9219,159.4375 34.8125,157.5469 34.8125,154.9688 L34.8125,153.8438 C34.8125,151.125 36.8125,149.0469 39.4375,149.0469 C40.3125,149.0469 40.9063,149.1875 41.8438,149.625 Z "/><text fill="#000000" font-family="sans-serif" font-size="12" lengthAdjust="spacingAndGlyphs" textLength="30" x="53.5" y="158.1074">Kreis</text><line style="stroke: #A80036; stroke-width: 1.5;" x1="25.5" x2="85.5" y1="169.9531" y2="169.9531"/><line style="stroke: #A80036; stroke-width: 1.5;" x1="25.5" x2="85.5" y1="177.9531" y2="177.9531"/><!--class Zeichnung--><rect fill="#FEFECE" filter="url(#f16fvodgycxjms)" height="48" id="Zeichnung" style="stroke: #A80036; stroke-width: 1.5;" width="99" x="6" y="28.9531"/><ellipse cx="21" cy="44.9531" fill="#ADD1B2" rx="11" ry="11" style="stroke: #A80036; stroke-width: 1.0;"/><path d="M23.3438,40.625 L23.5156,40.7031 C23.7344,40.3906 23.9375,40.2969 24.2344,40.2969 C24.5313,40.2969 24.8125,40.4375 24.9688,40.7031 C25.0625,40.8594 25.0781,40.9844 25.0781,41.4219 L25.0781,42.8438 C25.0781,43.2656 25.0469,43.4531 24.9375,43.6094 C24.7656,43.8281 24.5,43.9688 24.2344,43.9688 C24.0156,43.9688 23.7813,43.8594 23.6406,43.7188 C23.5,43.5938 23.4688,43.4688 23.4063,43.0625 C23.3125,42.6563 23.1406,42.4375 22.6563,42.1563 C22.1875,41.9063 21.5781,41.75 21,41.75 C19.2656,41.75 18.0156,43.0625 18.0156,44.8438 L18.0156,45.9375 C18.0156,47.6406 19.3125,48.7344 21.3594,48.7344 C22.125,48.7344 22.8125,48.6094 23.2344,48.3438 C23.4219,48.25 23.4219,48.25 23.875,47.7656 C24.0625,47.5781 24.2656,47.5 24.4844,47.5 C24.9531,47.5 25.3438,47.8906 25.3438,48.3438 C25.3438,48.7344 25.0156,49.1875 24.4375,49.5938 C23.6875,50.1406 22.5313,50.4375 21.3125,50.4375 C18.4219,50.4375 16.3125,48.5469 16.3125,45.9688 L16.3125,44.8438 C16.3125,42.125 18.3125,40.0469 20.9375,40.0469 C21.8125,40.0469 22.4063,40.1875 23.3438,40.625 Z "/><text fill="#000000" font-family="sans-serif" font-size="12" lengthAdjust="spacingAndGlyphs" textLength="67" x="35" y="49.1074">Zeichnung</text><line style="stroke: #A80036; stroke-width: 1.5;" x1="7" x2="104" y1="60.9531" y2="60.9531"/><line style="stroke: #A80036; stroke-width: 1.5;" x1="7" x2="104" y1="68.9531" y2="68.9531"/><!--class Punkt--><rect fill="#FEFECE" filter="url(#f16fvodgycxjms)" height="48" id="Punkt" style="stroke: #A80036; stroke-width: 1.5;" width="68" x="21.5" y="262.9531"/><ellipse cx="36.5" cy="278.9531" fill="#ADD1B2" rx="11" ry="11" style="stroke: #A80036; stroke-width: 1.0;"/><path d="M38.8438,274.625 L39.0156,274.7031 C39.2344,274.3906 39.4375,274.2969 39.7344,274.2969 C40.0313,274.2969 40.3125,274.4375 40.4688,274.7031 C40.5625,274.8594 40.5781,274.9844 40.5781,275.4219 L40.5781,276.8438 C40.5781,277.2656 40.5469,277.4531 40.4375,277.6094 C40.2656,277.8281 40,277.9688 39.7344,277.9688 C39.5156,277.9688 39.2813,277.8594 39.1406,277.7188 C39,277.5938 38.9688,277.4688 38.9063,277.0625 C38.8125,276.6563 38.6406,276.4375 38.1563,276.1563 C37.6875,275.9063 37.0781,275.75 36.5,275.75 C34.7656,275.75 33.5156,277.0625 33.5156,278.8438 L33.5156,279.9375 C33.5156,281.6406 34.8125,282.7344 36.8594,282.7344 C37.625,282.7344 38.3125,282.6094 38.7344,282.3438 C38.9219,282.25 38.9219,282.25 39.375,281.7656 C39.5625,281.5781 39.7656,281.5 39.9844,281.5 C40.4531,281.5 40.8438,281.8906 40.8438,282.3438 C40.8438,282.7344 40.5156,283.1875 39.9375,283.5938 C39.1875,284.1406 38.0313,284.4375 36.8125,284.4375 C33.9219,284.4375 31.8125,282.5469 31.8125,279.9688 L31.8125,278.8438 C31.8125,276.125 33.8125,274.0469 36.4375,274.0469 C37.3125,274.0469 37.9063,274.1875 38.8438,274.625 Z "/><text fill="#000000" font-family="sans-serif" font-size="12" lengthAdjust="spacingAndGlyphs" textLength="36" x="50.5" y="283.1074">Punkt</text><line style="stroke: #A80036; stroke-width: 1.5;" x1="22.5" x2="88.5" y1="294.9531" y2="294.9531"/><line style="stroke: #A80036; stroke-width: 1.5;" x1="22.5" x2="88.5" y1="302.9531" y2="302.9531"/><!--link Zeichnung to Kreis--><path d="M55.5,77.1701 C55.5,93.4351 55.5,115.2681 55.5,132.5691 " fill="none" id="Zeichnung-Kreis" style="stroke: #A80036; stroke-width: 1.0;"/><polygon fill="#A80036" points="55.5,137.7811,59.5,128.7811,55.5,132.7811,51.5,128.7811,55.5,137.7811" style="stroke: #A80036; stroke-width: 1.0;"/><text fill="#000000" font-family="sans-serif" font-size="13" lengthAdjust="spacingAndGlyphs" textLength="7" x="47.6031" y="126.7491">*</text><!--link Kreis to Punkt--><path d="M55.5,186.0881 C55.5,208.0791 55.5,240.9654 55.5,262.9215 " fill="none" id="Kreis-Punkt" style="stroke: #A80036; stroke-width: 1.0;"/><text fill="#000000" font-family="sans-serif" font-size="13" lengthAdjust="spacingAndGlyphs" textLength="44" x="56.5" y="229.02">punkte</text><text fill="#000000" font-family="sans-serif" font-size="13" lengthAdjust="spacingAndGlyphs" textLength="7" x="47.6031" y="251.9255">*</text><!--
@startuml
title Assoziation

class Kreis

Zeichnung - ->"*" Kreis
Kreis - -"*" Punkt: punkte
@enduml

PlantUML version 1.2019.07(Mon Jun 24 19:59:20 UTC 2019)
(GPL source distribution)
Java Runtime: Java(TM) SE Runtime Environment
JVM: Java HotSpot(TM) 64-Bit Server VM
Java Version: 1.7.0_25-b15
Operating System: Linux
Default Encoding: UTF-8
Language: en
Country: US
--></g></svg>