<?xml version="1.0" encoding="UTF-8" standalone="no"?><svg xmlns="http://www.w3.org/2000/svg" xmlns:xlink="http://www.w3.org/1999/xlink" contentScriptType="application/ecmascript" contentStyleType="text/css" height="403px" preserveAspectRatio="none" style="width:633px;height:403px;" version="1.1" viewBox="0 0 633 403" width="633px" zoomAndPan="magnify"><defs><filter height="300%" id="f1vtt8i03eucz9" width="300%" x="-1" y="-1"><feGaussianBlur result="blurOut" stdDeviation="2.0"/><feColorMatrix in="blurOut" result="blurOut2" type="matrix" values="0 0 0 0 0 0 0 0 0 0 0 0 0 0 0 0 0 0 .4 0"/><feOffset dx="4.0" dy="4.0" in="blurOut2" result="blurOut3"/><feBlend in="SourceGraphic" in2="blurOut3" mode="normal"/></filter></defs><g><rect fill="#FFFFFF" filter="url(#f1vtt8i03eucz9)" height="126.5869" style="stroke: #A80036; stroke-width: 1.0;" width="10" x="153.5" y="69.7988"/><rect fill="#FFFFFF" filter="url(#f1vtt8i03eucz9)" height="41.9658" style="stroke: #A80036; stroke-width: 1.0;" width="10" x="153.5" y="223.041"/><rect fill="#FFFFFF" filter="url(#f1vtt8i03eucz9)" height="62.3105" style="stroke: #A80036; stroke-width: 1.0;" width="10" x="153.5" y="291.6621"/><rect fill="#FFFFFF" filter="url(#f1vtt8i03eucz9)" height="26.6553" style="stroke: #A80036; stroke-width: 1.0;" width="10" x="339.5" y="196.3857"/><rect fill="#FFFFFF" filter="url(#f1vtt8i03eucz9)" height="26.6553" style="stroke: #A80036; stroke-width: 1.0;" width="10" x="413.5" y="265.0068"/><line style="stroke: #A80036; stroke-width: 1.0; stroke-dasharray: 5.0,5.0;" x1="26" x2="26" y1="38.4883" y2="362.9727"/><line style="stroke: #A80036; stroke-width: 1.0; stroke-dasharray: 5.0,5.0;" x1="158.5" x2="158.5" y1="38.4883" y2="362.9727"/><line style="stroke: #A80036; stroke-width: 1.0; stroke-dasharray: 5.0,5.0;" x1="344.5" x2="344.5" y1="38.4883" y2="362.9727"/><line style="stroke: #A80036; stroke-width: 1.0; stroke-dasharray: 5.0,5.0;" x1="418.5" x2="418.5" y1="38.4883" y2="362.9727"/><rect fill="#FEFECE" filter="url(#f1vtt8i03eucz9)" height="30.4883" style="stroke: #A80036; stroke-width: 1.5;" width="33" x="8" y="3"/><text fill="#000000" font-family="sans-serif" font-size="14" lengthAdjust="spacingAndGlyphs" textLength="19" x="15" y="23.5352">OS</text><rect fill="#FEFECE" filter="url(#f1vtt8i03eucz9)" height="30.4883" style="stroke: #A80036; stroke-width: 1.5;" width="33" x="8" y="361.9727"/><text fill="#000000" font-family="sans-serif" font-size="14" lengthAdjust="spacingAndGlyphs" textLength="19" x="15" y="382.5078">OS</text><rect fill="#FEFECE" filter="url(#f1vtt8i03eucz9)" height="30.4883" style="stroke: #A80036; stroke-width: 1.5;" width="48" x="132.5" y="3"/><text fill="#000000" font-family="sans-serif" font-size="14" lengthAdjust="spacingAndGlyphs" textLength="34" x="139.5" y="23.5352">main</text><rect fill="#FEFECE" filter="url(#f1vtt8i03eucz9)" height="30.4883" style="stroke: #A80036; stroke-width: 1.5;" width="48" x="132.5" y="361.9727"/><text fill="#000000" font-family="sans-serif" font-size="14" lengthAdjust="spacingAndGlyphs" textLength="34" x="139.5" y="382.5078">main</text><rect fill="#FEFECE" filter="url(#f1vtt8i03eucz9)" height="30.4883" style="stroke: #A80036; stroke-width: 1.5;" width="60" x="312.5" y="3"/><text fill="#000000" font-family="sans-serif" font-size="14" lengthAdjust="spacingAndGlyphs" textLength="46" x="319.5" y="23.5352">b1.run</text><rect fill="#FEFECE" filter="url(#f1vtt8i03eucz9)" height="30.4883" style="stroke: #A80036; stroke-width: 1.5;" width="60" x="312.5" y="361.9727"/><text fill="#000000" font-family="sans-serif" font-size="14" lengthAdjust="spacingAndGlyphs" textLength="46" x="319.5" y="382.5078">b1.run</text><rect fill="#FEFECE" filter="url(#f1vtt8i03eucz9)" height="30.4883" style="stroke: #A80036; stroke-width: 1.5;" width="60" x="386.5" y="3"/><text fill="#000000" font-family="sans-serif" font-size="14" lengthAdjust="spacingAndGlyphs" textLength="46" x="393.5" y="23.5352">b2.run</text><rect fill="#FEFECE" filter="url(#f1vtt8i03eucz9)" height="30.4883" style="stroke: #A80036; stroke-width: 1.5;" width="60" x="386.5" y="361.9727"/><text fill="#000000" font-family="sans-serif" font-size="14" lengthAdjust="spacingAndGlyphs" textLength="46" x="393.5" y="382.5078">b2.run</text><rect fill="#FFFFFF" filter="url(#f1vtt8i03eucz9)" height="126.5869" style="stroke: #A80036; stroke-width: 1.0;" width="10" x="153.5" y="69.7988"/><rect fill="#FFFFFF" filter="url(#f1vtt8i03eucz9)" height="41.9658" style="stroke: #A80036; stroke-width: 1.0;" width="10" x="153.5" y="223.041"/><rect fill="#FFFFFF" filter="url(#f1vtt8i03eucz9)" height="62.3105" style="stroke: #A80036; stroke-width: 1.0;" width="10" x="153.5" y="291.6621"/><rect fill="#FFFFFF" filter="url(#f1vtt8i03eucz9)" height="26.6553" style="stroke: #A80036; stroke-width: 1.0;" width="10" x="339.5" y="196.3857"/><rect fill="#FFFFFF" filter="url(#f1vtt8i03eucz9)" height="26.6553" style="stroke: #A80036; stroke-width: 1.0;" width="10" x="413.5" y="265.0068"/><polygon fill="#A80036" points="141.5,65.7988,151.5,69.7988,141.5,73.7988,145.5,69.7988" style="stroke: #A80036; stroke-width: 1.0;"/><line style="stroke: #A80036; stroke-width: 1.0; stroke-dasharray: 2.0,2.0;" x1="26.5" x2="147.5" y1="69.7988" y2="69.7988"/><text fill="#000000" font-family="sans-serif" font-size="13" lengthAdjust="spacingAndGlyphs" textLength="108" x="33.5" y="65.0566">java BeanCounter</text><line style="stroke: #A80036; stroke-width: 1.0; stroke-dasharray: 2.0,2.0;" x1="163.5" x2="205.5" y1="99.1094" y2="99.1094"/><line style="stroke: #A80036; stroke-width: 1.0; stroke-dasharray: 2.0,2.0;" x1="205.5" x2="205.5" y1="99.1094" y2="112.1094"/><line style="stroke: #A80036; stroke-width: 1.0; stroke-dasharray: 2.0,2.0;" x1="164.5" x2="205.5" y1="112.1094" y2="112.1094"/><polygon fill="#A80036" points="174.5,108.1094,164.5,112.1094,174.5,116.1094,170.5,112.1094" style="stroke: #A80036; stroke-width: 1.0;"/><text fill="#000000" font-family="sans-serif" font-size="13" lengthAdjust="spacingAndGlyphs" textLength="162" x="170.5" y="94.3672">b1 = new BeanCounter(...)</text><line style="stroke: #A80036; stroke-width: 1.0; stroke-dasharray: 2.0,2.0;" x1="163.5" x2="205.5" y1="141.4199" y2="141.4199"/><line style="stroke: #A80036; stroke-width: 1.0; stroke-dasharray: 2.0,2.0;" x1="205.5" x2="205.5" y1="141.4199" y2="154.4199"/><line style="stroke: #A80036; stroke-width: 1.0; stroke-dasharray: 2.0,2.0;" x1="164.5" x2="205.5" y1="154.4199" y2="154.4199"/><polygon fill="#A80036" points="174.5,150.4199,164.5,154.4199,174.5,158.4199,170.5,154.4199" style="stroke: #A80036; stroke-width: 1.0;"/><text fill="#000000" font-family="sans-serif" font-size="13" lengthAdjust="spacingAndGlyphs" textLength="162" x="170.5" y="136.6777">b2 = new BeanCounter(...)</text><polygon fill="#A80036" points="327.5,192.3857,337.5,196.3857,327.5,200.3857,331.5,196.3857" style="stroke: #A80036; stroke-width: 1.0;"/><line style="stroke: #A80036; stroke-width: 1.0; stroke-dasharray: 2.0,2.0;" x1="158.5" x2="333.5" y1="196.3857" y2="196.3857"/><text fill="#000000" font-family="sans-serif" font-size="13" lengthAdjust="spacingAndGlyphs" textLength="49" x="165.5" y="191.6436">b1.run()</text><path d="M354,167.4199 L354,207.4199 L547,207.4199 L547,177.4199 L537,167.4199 L354,167.4199 " fill="#FBFB77" filter="url(#f1vtt8i03eucz9)" style="stroke: #A80036; stroke-width: 1.0;"/><path d="M537,167.4199 L537,177.4199 L547,177.4199 L537,167.4199 " fill="#FBFB77" style="stroke: #A80036; stroke-width: 1.0;"/><text fill="#000000" font-family="sans-serif" font-size="13" lengthAdjust="spacingAndGlyphs" textLength="172" x="360" y="184.9883">Erbsenzähler 1 is starting...</text><text fill="#000000" font-family="sans-serif" font-size="13" lengthAdjust="spacingAndGlyphs" textLength="146" x="360" y="200.2988">Erbsenzähler 1 is done!</text><polygon fill="#A80036" points="174.5,219.041,164.5,223.041,174.5,227.041,170.5,223.041" style="stroke: #A80036; stroke-width: 1.0;"/><line style="stroke: #A80036; stroke-width: 1.0; stroke-dasharray: 2.0,2.0;" x1="168.5" x2="343.5" y1="223.041" y2="223.041"/><polygon fill="#A80036" points="401.5,261.0068,411.5,265.0068,401.5,269.0068,405.5,265.0068" style="stroke: #A80036; stroke-width: 1.0;"/><line style="stroke: #A80036; stroke-width: 1.0; stroke-dasharray: 2.0,2.0;" x1="158.5" x2="407.5" y1="265.0068" y2="265.0068"/><text fill="#000000" font-family="sans-serif" font-size="13" lengthAdjust="spacingAndGlyphs" textLength="49" x="165.5" y="260.2646">b2.run()</text><path d="M428,236.041 L428,276.041 L621,276.041 L621,246.041 L611,236.041 L428,236.041 " fill="#FBFB77" filter="url(#f1vtt8i03eucz9)" style="stroke: #A80036; stroke-width: 1.0;"/><path d="M611,236.041 L611,246.041 L621,246.041 L611,236.041 " fill="#FBFB77" style="stroke: #A80036; stroke-width: 1.0;"/><text fill="#000000" font-family="sans-serif" font-size="13" lengthAdjust="spacingAndGlyphs" textLength="172" x="434" y="253.6094">Erbsenzähler 2 is starting...</text><text fill="#000000" font-family="sans-serif" font-size="13" lengthAdjust="spacingAndGlyphs" textLength="146" x="434" y="268.9199">Erbsenzähler 2 is done!</text><polygon fill="#A80036" points="174.5,287.6621,164.5,291.6621,174.5,295.6621,170.5,291.6621" style="stroke: #A80036; stroke-width: 1.0;"/><line style="stroke: #A80036; stroke-width: 1.0; stroke-dasharray: 2.0,2.0;" x1="168.5" x2="417.5" y1="291.6621" y2="291.6621"/><line style="stroke: #A80036; stroke-width: 1.0; stroke-dasharray: 2.0,2.0;" x1="163.5" x2="205.5" y1="311.8174" y2="311.8174"/><line style="stroke: #A80036; stroke-width: 1.0; stroke-dasharray: 2.0,2.0;" x1="205.5" x2="205.5" y1="311.8174" y2="324.8174"/><line style="stroke: #A80036; stroke-width: 1.0; stroke-dasharray: 2.0,2.0;" x1="164.5" x2="205.5" y1="324.8174" y2="324.8174"/><polygon fill="#A80036" points="174.5,320.8174,164.5,324.8174,174.5,328.8174,170.5,324.8174" style="stroke: #A80036; stroke-width: 1.0;"/><path d="M213,304.6621 L213,329.6621 L322,329.6621 L322,314.6621 L312,304.6621 L213,304.6621 " fill="#FBFB77" filter="url(#f1vtt8i03eucz9)" style="stroke: #A80036; stroke-width: 1.0;"/><path d="M312,304.6621 L312,314.6621 L322,314.6621 L312,304.6621 " fill="#FBFB77" style="stroke: #A80036; stroke-width: 1.0;"/><text fill="#000000" font-family="sans-serif" font-size="13" lengthAdjust="spacingAndGlyphs" textLength="88" x="219" y="322.2305">"main() done!"</text><polygon fill="#A80036" points="37.5,340.9727,27.5,344.9727,37.5,348.9727,33.5,344.9727" style="stroke: #A80036; stroke-width: 1.0;"/><line style="stroke: #A80036; stroke-width: 1.0; stroke-dasharray: 2.0,2.0;" x1="31.5" x2="152.5" y1="344.9727" y2="344.9727"/><!--
@startuml

OS - -> main : java BeanCounter
activate main

main - -> main : b1 = new BeanCounter(...)
main - -> main : b2 = new BeanCounter(...)

main - -> b1.run : b1.run()
deactivate main
activate b1.run

note right
	Erbsenzähler 1 is starting...
	Erbsenzähler 1 is done!
endnote

b1.run - -> main
deactivate b1.run
activate main

main - -> b2.run : b2.run()
deactivate main
activate b2.run

note right
	Erbsenzähler 2 is starting...
	Erbsenzähler 2 is done!
endnote

b2.run - -> main
deactivate b2.run
activate main

main - -> main
note right : "main() done!"

main - -> OS

@enduml

PlantUML version 1.2018.07(Mon Jun 11 19:29:06 CEST 2018)
(GPL source distribution)
Java Runtime: Java(TM) SE Runtime Environment
JVM: Java HotSpot(TM) 64-Bit Server VM
Java Version: 1.8.0_144-b01
Operating System: Mac OS X
OS Version: 10.13.4
Default Encoding: UTF-8
Language: en
Country: US
--></g></svg>