<?xml version="1.0" encoding="UTF-8" standalone="no"?>
<svg xmlns="http://www.w3.org/2000/svg" xmlns:xlink="http://www.w3.org/1999/xlink" contentScriptType="application/ecmascript" contentStyleType="text/css" height="195px" preserveAspectRatio="none" style="width:226px;height:195px;" version="1.1" viewBox="0 0 226 195" width="226px" zoomAndPan="magnify"><defs><filter height="300%" id="f13hg0ig91f970" width="300%" x="-1" y="-1"><feGaussianBlur result="blurOut" stdDeviation="2.0"/><feColorMatrix in="blurOut" result="blurOut2" type="matrix" values="0 0 0 0 0 0 0 0 0 0 0 0 0 0 0 0 0 0 .4 0"/><feOffset dx="4.0" dy="4.0" in="blurOut2" result="blurOut3"/><feBlend in="SourceGraphic" in2="blurOut3" mode="normal"/></filter></defs><g><text fill="#000000" font-family="sans-serif" font-size="18" lengthAdjust="spacingAndGlyphs" textLength="108" x="62.5" y="16.708">Aggregation</text><!--class Hochschule--><rect fill="#FEFECE" filter="url(#f13hg0ig91f970)" height="48" id="Hochschule" style="stroke: #A80036; stroke-width: 1.5;" width="105" x="55.5" y="28.9531"/><ellipse cx="70.5" cy="44.9531" fill="#ADD1B2" rx="11" ry="11" style="stroke: #A80036; stroke-width: 1.0;"/><path d="M72.8438,40.625 L73.0156,40.7031 C73.2344,40.3906 73.4375,40.2969 73.7344,40.2969 C74.0313,40.2969 74.3125,40.4375 74.4688,40.7031 C74.5625,40.8594 74.5781,40.9844 74.5781,41.4219 L74.5781,42.8438 C74.5781,43.2656 74.5469,43.4531 74.4375,43.6094 C74.2656,43.8281 74,43.9688 73.7344,43.9688 C73.5156,43.9688 73.2813,43.8594 73.1406,43.7188 C73,43.5938 72.9688,43.4688 72.9063,43.0625 C72.8125,42.6563 72.6406,42.4375 72.1563,42.1563 C71.6875,41.9063 71.0781,41.75 70.5,41.75 C68.7656,41.75 67.5156,43.0625 67.5156,44.8438 L67.5156,45.9375 C67.5156,47.6406 68.8125,48.7344 70.8594,48.7344 C71.625,48.7344 72.3125,48.6094 72.7344,48.3438 C72.9219,48.25 72.9219,48.25 73.375,47.7656 C73.5625,47.5781 73.7656,47.5 73.9844,47.5 C74.4531,47.5 74.8438,47.8906 74.8438,48.3438 C74.8438,48.7344 74.5156,49.1875 73.9375,49.5938 C73.1875,50.1406 72.0313,50.4375 70.8125,50.4375 C67.9219,50.4375 65.8125,48.5469 65.8125,45.9688 L65.8125,44.8438 C65.8125,42.125 67.8125,40.0469 70.4375,40.0469 C71.3125,40.0469 71.9063,40.1875 72.8438,40.625 Z "/><text fill="#000000" font-family="sans-serif" font-size="12" lengthAdjust="spacingAndGlyphs" textLength="73" x="84.5" y="49.1074">Hochschule</text><line style="stroke: #A80036; stroke-width: 1.5;" x1="56.5" x2="159.5" y1="60.9531" y2="60.9531"/><line style="stroke: #A80036; stroke-width: 1.5;" x1="56.5" x2="159.5" y1="68.9531" y2="68.9531"/><!--class Student--><rect fill="#FEFECE" filter="url(#f13hg0ig91f970)" height="48" id="Student" style="stroke: #A80036; stroke-width: 1.5;" width="82" x="6" y="136.9531"/><ellipse cx="21" cy="152.9531" fill="#ADD1B2" rx="11" ry="11" style="stroke: #A80036; stroke-width: 1.0;"/><path d="M23.3438,148.625 L23.5156,148.7031 C23.7344,148.3906 23.9375,148.2969 24.2344,148.2969 C24.5313,148.2969 24.8125,148.4375 24.9688,148.7031 C25.0625,148.8594 25.0781,148.9844 25.0781,149.4219 L25.0781,150.8438 C25.0781,151.2656 25.0469,151.4531 24.9375,151.6094 C24.7656,151.8281 24.5,151.9688 24.2344,151.9688 C24.0156,151.9688 23.7813,151.8594 23.6406,151.7188 C23.5,151.5938 23.4688,151.4688 23.4063,151.0625 C23.3125,150.6563 23.1406,150.4375 22.6563,150.1563 C22.1875,149.9063 21.5781,149.75 21,149.75 C19.2656,149.75 18.0156,151.0625 18.0156,152.8438 L18.0156,153.9375 C18.0156,155.6406 19.3125,156.7344 21.3594,156.7344 C22.125,156.7344 22.8125,156.6094 23.2344,156.3438 C23.4219,156.25 23.4219,156.25 23.875,155.7656 C24.0625,155.5781 24.2656,155.5 24.4844,155.5 C24.9531,155.5 25.3438,155.8906 25.3438,156.3438 C25.3438,156.7344 25.0156,157.1875 24.4375,157.5938 C23.6875,158.1406 22.5313,158.4375 21.3125,158.4375 C18.4219,158.4375 16.3125,156.5469 16.3125,153.9688 L16.3125,152.8438 C16.3125,150.125 18.3125,148.0469 20.9375,148.0469 C21.8125,148.0469 22.4063,148.1875 23.3438,148.625 Z "/><text fill="#000000" font-family="sans-serif" font-size="12" lengthAdjust="spacingAndGlyphs" textLength="50" x="35" y="157.1074">Student</text><line style="stroke: #A80036; stroke-width: 1.5;" x1="7" x2="87" y1="168.9531" y2="168.9531"/><line style="stroke: #A80036; stroke-width: 1.5;" x1="7" x2="87" y1="176.9531" y2="176.9531"/><!--class Professor--><rect fill="#FEFECE" filter="url(#f13hg0ig91f970)" height="48" id="Professor" style="stroke: #A80036; stroke-width: 1.5;" width="92" x="123" y="136.9531"/><ellipse cx="138" cy="152.9531" fill="#ADD1B2" rx="11" ry="11" style="stroke: #A80036; stroke-width: 1.0;"/><path d="M140.3438,148.625 L140.5156,148.7031 C140.7344,148.3906 140.9375,148.2969 141.2344,148.2969 C141.5313,148.2969 141.8125,148.4375 141.9688,148.7031 C142.0625,148.8594 142.0781,148.9844 142.0781,149.4219 L142.0781,150.8438 C142.0781,151.2656 142.0469,151.4531 141.9375,151.6094 C141.7656,151.8281 141.5,151.9688 141.2344,151.9688 C141.0156,151.9688 140.7813,151.8594 140.6406,151.7188 C140.5,151.5938 140.4688,151.4688 140.4063,151.0625 C140.3125,150.6563 140.1406,150.4375 139.6563,150.1563 C139.1875,149.9063 138.5781,149.75 138,149.75 C136.2656,149.75 135.0156,151.0625 135.0156,152.8438 L135.0156,153.9375 C135.0156,155.6406 136.3125,156.7344 138.3594,156.7344 C139.125,156.7344 139.8125,156.6094 140.2344,156.3438 C140.4219,156.25 140.4219,156.25 140.875,155.7656 C141.0625,155.5781 141.2656,155.5 141.4844,155.5 C141.9531,155.5 142.3438,155.8906 142.3438,156.3438 C142.3438,156.7344 142.0156,157.1875 141.4375,157.5938 C140.6875,158.1406 139.5313,158.4375 138.3125,158.4375 C135.4219,158.4375 133.3125,156.5469 133.3125,153.9688 L133.3125,152.8438 C133.3125,150.125 135.3125,148.0469 137.9375,148.0469 C138.8125,148.0469 139.4063,148.1875 140.3438,148.625 Z "/><text fill="#000000" font-family="sans-serif" font-size="12" lengthAdjust="spacingAndGlyphs" textLength="60" x="152" y="157.1074">Professor</text><line style="stroke: #A80036; stroke-width: 1.5;" x1="124" x2="214" y1="168.9531" y2="168.9531"/><line style="stroke: #A80036; stroke-width: 1.5;" x1="124" x2="214" y1="176.9531" y2="176.9531"/><!--link Hochschule to Student--><path d="M88.1633,88.4234 C79.0808,104.2062 68.555,122.4968 60.4209,136.6315 " fill="none" id="Hochschule-Student" style="stroke: #A80036; stroke-width: 1.0;"/><polygon fill="#FFFFFF" points="94.7639,76.9531,88.3043,80.1584,88.7786,87.3539,95.2382,84.1486,94.7639,76.9531" style="stroke: #A80036; stroke-width: 1.0;"/><text fill="#000000" font-family="sans-serif" font-size="13" lengthAdjust="spacingAndGlyphs" textLength="7" x="55.8391" y="125.9581">*</text><!--link Hochschule to Professor--><path d="M127.837,88.4234 C136.919,104.2062 147.445,122.4968 155.579,136.6315 " fill="none" id="Hochschule-Professor" style="stroke: #A80036; stroke-width: 1.0;"/><polygon fill="#FFFFFF" points="121.236,76.9531,120.7619,84.1486,127.2215,87.3538,127.6956,80.1583,121.236,76.9531" style="stroke: #A80036; stroke-width: 1.0;"/><text fill="#000000" font-family="sans-serif" font-size="13" lengthAdjust="spacingAndGlyphs" textLength="7" x="144.4545" y="125.9581">*</text><!--
@startuml
title Aggregation

class Hochschule

Hochschule o- -"*" Student
Hochschule o- -"*" Professor
@enduml

PlantUML version 1.2019.07(Mon Jun 24 19:59:20 UTC 2019)
(GPL source distribution)
Java Runtime: Java(TM) SE Runtime Environment
JVM: Java HotSpot(TM) 64-Bit Server VM
Java Version: 1.7.0_25-b15
Operating System: Linux
Default Encoding: UTF-8
Language: en
Country: US
--></g></svg>