<?xml version="1.0" encoding="UTF-8" standalone="no"?>
<svg xmlns="http://www.w3.org/2000/svg" xmlns:xlink="http://www.w3.org/1999/xlink" contentScriptType="application/ecmascript" contentStyleType="text/css" height="195px" preserveAspectRatio="none" style="width:287px;height:195px;" version="1.1" viewBox="0 0 287 195" width="287px" zoomAndPan="magnify"><defs><filter height="300%" id="fvz09d5l716k9" width="300%" x="-1" y="-1"><feGaussianBlur result="blurOut" stdDeviation="2.0"/><feColorMatrix in="blurOut" result="blurOut2" type="matrix" values="0 0 0 0 0 0 0 0 0 0 0 0 0 0 0 0 0 0 .4 0"/><feOffset dx="4.0" dy="4.0" in="blurOut2" result="blurOut3"/><feBlend in="SourceGraphic" in2="blurOut3" mode="normal"/></filter></defs><g><text fill="#000000" font-family="sans-serif" font-size="18" lengthAdjust="spacingAndGlyphs" textLength="109" x="93" y="16.708">Komposition</text><!--class Auto--><rect fill="#FEFECE" filter="url(#fvz09d5l716k9)" height="48" id="Auto" style="stroke: #A80036; stroke-width: 1.5;" width="61" x="114.5" y="28.9531"/><ellipse cx="129.5" cy="44.9531" fill="#ADD1B2" rx="11" ry="11" style="stroke: #A80036; stroke-width: 1.0;"/><path d="M131.8438,40.625 L132.0156,40.7031 C132.2344,40.3906 132.4375,40.2969 132.7344,40.2969 C133.0313,40.2969 133.3125,40.4375 133.4688,40.7031 C133.5625,40.8594 133.5781,40.9844 133.5781,41.4219 L133.5781,42.8438 C133.5781,43.2656 133.5469,43.4531 133.4375,43.6094 C133.2656,43.8281 133,43.9688 132.7344,43.9688 C132.5156,43.9688 132.2813,43.8594 132.1406,43.7188 C132,43.5938 131.9688,43.4688 131.9063,43.0625 C131.8125,42.6563 131.6406,42.4375 131.1563,42.1563 C130.6875,41.9063 130.0781,41.75 129.5,41.75 C127.7656,41.75 126.5156,43.0625 126.5156,44.8438 L126.5156,45.9375 C126.5156,47.6406 127.8125,48.7344 129.8594,48.7344 C130.625,48.7344 131.3125,48.6094 131.7344,48.3438 C131.9219,48.25 131.9219,48.25 132.375,47.7656 C132.5625,47.5781 132.7656,47.5 132.9844,47.5 C133.4531,47.5 133.8438,47.8906 133.8438,48.3438 C133.8438,48.7344 133.5156,49.1875 132.9375,49.5938 C132.1875,50.1406 131.0313,50.4375 129.8125,50.4375 C126.9219,50.4375 124.8125,48.5469 124.8125,45.9688 L124.8125,44.8438 C124.8125,42.125 126.8125,40.0469 129.4375,40.0469 C130.3125,40.0469 130.9063,40.1875 131.8438,40.625 Z "/><text fill="#000000" font-family="sans-serif" font-size="12" lengthAdjust="spacingAndGlyphs" textLength="29" x="143.5" y="49.1074">Auto</text><line style="stroke: #A80036; stroke-width: 1.5;" x1="115.5" x2="174.5" y1="60.9531" y2="60.9531"/><line style="stroke: #A80036; stroke-width: 1.5;" x1="115.5" x2="174.5" y1="68.9531" y2="68.9531"/><!--class Motor--><rect fill="#FEFECE" filter="url(#fvz09d5l716k9)" height="48" id="Motor" style="stroke: #A80036; stroke-width: 1.5;" width="68" x="6" y="136.9531"/><ellipse cx="21" cy="152.9531" fill="#ADD1B2" rx="11" ry="11" style="stroke: #A80036; stroke-width: 1.0;"/><path d="M23.3438,148.625 L23.5156,148.7031 C23.7344,148.3906 23.9375,148.2969 24.2344,148.2969 C24.5313,148.2969 24.8125,148.4375 24.9688,148.7031 C25.0625,148.8594 25.0781,148.9844 25.0781,149.4219 L25.0781,150.8438 C25.0781,151.2656 25.0469,151.4531 24.9375,151.6094 C24.7656,151.8281 24.5,151.9688 24.2344,151.9688 C24.0156,151.9688 23.7813,151.8594 23.6406,151.7188 C23.5,151.5938 23.4688,151.4688 23.4063,151.0625 C23.3125,150.6563 23.1406,150.4375 22.6563,150.1563 C22.1875,149.9063 21.5781,149.75 21,149.75 C19.2656,149.75 18.0156,151.0625 18.0156,152.8438 L18.0156,153.9375 C18.0156,155.6406 19.3125,156.7344 21.3594,156.7344 C22.125,156.7344 22.8125,156.6094 23.2344,156.3438 C23.4219,156.25 23.4219,156.25 23.875,155.7656 C24.0625,155.5781 24.2656,155.5 24.4844,155.5 C24.9531,155.5 25.3438,155.8906 25.3438,156.3438 C25.3438,156.7344 25.0156,157.1875 24.4375,157.5938 C23.6875,158.1406 22.5313,158.4375 21.3125,158.4375 C18.4219,158.4375 16.3125,156.5469 16.3125,153.9688 L16.3125,152.8438 C16.3125,150.125 18.3125,148.0469 20.9375,148.0469 C21.8125,148.0469 22.4063,148.1875 23.3438,148.625 Z "/><text fill="#000000" font-family="sans-serif" font-size="12" lengthAdjust="spacingAndGlyphs" textLength="36" x="35" y="157.1074">Motor</text><line style="stroke: #A80036; stroke-width: 1.5;" x1="7" x2="73" y1="168.9531" y2="168.9531"/><line style="stroke: #A80036; stroke-width: 1.5;" x1="7" x2="73" y1="176.9531" y2="176.9531"/><!--class Reifen--><rect fill="#FEFECE" filter="url(#fvz09d5l716k9)" height="48" id="Reifen" style="stroke: #A80036; stroke-width: 1.5;" width="71" x="109.5" y="136.9531"/><ellipse cx="124.5" cy="152.9531" fill="#ADD1B2" rx="11" ry="11" style="stroke: #A80036; stroke-width: 1.0;"/><path d="M126.8438,148.625 L127.0156,148.7031 C127.2344,148.3906 127.4375,148.2969 127.7344,148.2969 C128.0313,148.2969 128.3125,148.4375 128.4688,148.7031 C128.5625,148.8594 128.5781,148.9844 128.5781,149.4219 L128.5781,150.8438 C128.5781,151.2656 128.5469,151.4531 128.4375,151.6094 C128.2656,151.8281 128,151.9688 127.7344,151.9688 C127.5156,151.9688 127.2813,151.8594 127.1406,151.7188 C127,151.5938 126.9688,151.4688 126.9063,151.0625 C126.8125,150.6563 126.6406,150.4375 126.1563,150.1563 C125.6875,149.9063 125.0781,149.75 124.5,149.75 C122.7656,149.75 121.5156,151.0625 121.5156,152.8438 L121.5156,153.9375 C121.5156,155.6406 122.8125,156.7344 124.8594,156.7344 C125.625,156.7344 126.3125,156.6094 126.7344,156.3438 C126.9219,156.25 126.9219,156.25 127.375,155.7656 C127.5625,155.5781 127.7656,155.5 127.9844,155.5 C128.4531,155.5 128.8438,155.8906 128.8438,156.3438 C128.8438,156.7344 128.5156,157.1875 127.9375,157.5938 C127.1875,158.1406 126.0313,158.4375 124.8125,158.4375 C121.9219,158.4375 119.8125,156.5469 119.8125,153.9688 L119.8125,152.8438 C119.8125,150.125 121.8125,148.0469 124.4375,148.0469 C125.3125,148.0469 125.9063,148.1875 126.8438,148.625 Z "/><text fill="#000000" font-family="sans-serif" font-size="12" lengthAdjust="spacingAndGlyphs" textLength="39" x="138.5" y="157.1074">Reifen</text><line style="stroke: #A80036; stroke-width: 1.5;" x1="110.5" x2="179.5" y1="168.9531" y2="168.9531"/><line style="stroke: #A80036; stroke-width: 1.5;" x1="110.5" x2="179.5" y1="176.9531" y2="176.9531"/><!--class Sitze--><rect fill="#FEFECE" filter="url(#fvz09d5l716k9)" height="48" id="Sitze" style="stroke: #A80036; stroke-width: 1.5;" width="61" x="215.5" y="136.9531"/><ellipse cx="230.5" cy="152.9531" fill="#ADD1B2" rx="11" ry="11" style="stroke: #A80036; stroke-width: 1.0;"/><path d="M232.8438,148.625 L233.0156,148.7031 C233.2344,148.3906 233.4375,148.2969 233.7344,148.2969 C234.0313,148.2969 234.3125,148.4375 234.4688,148.7031 C234.5625,148.8594 234.5781,148.9844 234.5781,149.4219 L234.5781,150.8438 C234.5781,151.2656 234.5469,151.4531 234.4375,151.6094 C234.2656,151.8281 234,151.9688 233.7344,151.9688 C233.5156,151.9688 233.2813,151.8594 233.1406,151.7188 C233,151.5938 232.9688,151.4688 232.9063,151.0625 C232.8125,150.6563 232.6406,150.4375 232.1563,150.1563 C231.6875,149.9063 231.0781,149.75 230.5,149.75 C228.7656,149.75 227.5156,151.0625 227.5156,152.8438 L227.5156,153.9375 C227.5156,155.6406 228.8125,156.7344 230.8594,156.7344 C231.625,156.7344 232.3125,156.6094 232.7344,156.3438 C232.9219,156.25 232.9219,156.25 233.375,155.7656 C233.5625,155.5781 233.7656,155.5 233.9844,155.5 C234.4531,155.5 234.8438,155.8906 234.8438,156.3438 C234.8438,156.7344 234.5156,157.1875 233.9375,157.5938 C233.1875,158.1406 232.0313,158.4375 230.8125,158.4375 C227.9219,158.4375 225.8125,156.5469 225.8125,153.9688 L225.8125,152.8438 C225.8125,150.125 227.8125,148.0469 230.4375,148.0469 C231.3125,148.0469 231.9063,148.1875 232.8438,148.625 Z "/><text fill="#000000" font-family="sans-serif" font-size="12" lengthAdjust="spacingAndGlyphs" textLength="29" x="244.5" y="157.1074">Sitze</text><line style="stroke: #A80036; stroke-width: 1.5;" x1="216.5" x2="275.5" y1="168.9531" y2="168.9531"/><line style="stroke: #A80036; stroke-width: 1.5;" x1="216.5" x2="275.5" y1="176.9531" y2="176.9531"/><!--link Auto to Motor--><path d="M113.7718,85.4783 C113.7718,85.4783 85.247,114.2752 72.4564,127.1875 " fill="none" id="Auto-Motor" style="stroke: #A80036; stroke-width: 1.0;"/><polygon fill="#A80036" points="63.1016,136.6315,72.2771,133.0525,66.6203,133.0793,66.5935,127.4225,63.1016,136.6315" style="stroke: #A80036; stroke-width: 1.0;"/><line style="stroke: #A80036; stroke-width: 1.0;" x1="66.6203" x2="72.2504" y1="133.0793" y2="127.3957"/><polygon fill="#A80036" points="122.217,76.9531,115.1527,78.4006,113.7718,85.4783,120.8361,84.0308,122.217,76.9531" style="stroke: #A80036; stroke-width: 1.0;"/><text fill="#000000" font-family="sans-serif" font-size="13" lengthAdjust="spacingAndGlyphs" textLength="8" x="59.7576" y="125.9581">1</text><!--link Auto to Reifen--><path d="M145,88.9531 C145,88.9531 145,112.6303 145,123.3169 " fill="none" id="Auto-Reifen" style="stroke: #A80036; stroke-width: 1.0;"/><polygon fill="#A80036" points="145,136.6315,149,127.6315,145,131.6315,141,127.6315,145,136.6315" style="stroke: #A80036; stroke-width: 1.0;"/><line style="stroke: #A80036; stroke-width: 1.0;" x1="145" x2="145" y1="131.6315" y2="123.6316"/><polygon fill="#A80036" points="145,76.9531,141,82.9531,145,88.9531,149,82.9531,145,76.9531" style="stroke: #A80036; stroke-width: 1.0;"/><text fill="#000000" font-family="sans-serif" font-size="13" lengthAdjust="spacingAndGlyphs" textLength="23" x="119.1969" y="125.9581">1..*</text><!--link Auto to Sitze--><path d="M175.1933,85.6405 C175.1933,85.6405 202.477,114.2752 214.78,127.1875 " fill="none" id="Auto-Sitze" style="stroke: #A80036; stroke-width: 1.0;"/><polygon fill="#A80036" points="223.778,136.6315,220.4654,127.3565,220.3288,133.0117,214.6736,132.8752,223.778,136.6315" style="stroke: #A80036; stroke-width: 1.0;"/><line style="stroke: #A80036; stroke-width: 1.0;" x1="220.3288" x2="214.811" y1="133.0117" y2="127.2198"/><polygon fill="#A80036" points="166.915,76.9531,168.1584,84.0562,175.1933,85.6405,173.9499,78.5374,166.915,76.9531" style="stroke: #A80036; stroke-width: 1.0;"/><text fill="#000000" font-family="sans-serif" font-size="13" lengthAdjust="spacingAndGlyphs" textLength="23" x="192.5583" y="125.9581">1..*</text><!--
@startuml
title Komposition

class Auto

Auto *- ->"1" Motor
Auto *- ->"1..*" Reifen
Auto *- ->"1..*" Sitze
@enduml

PlantUML version 1.2019.07(Mon Jun 24 19:59:20 UTC 2019)
(GPL source distribution)
Java Runtime: Java(TM) SE Runtime Environment
JVM: Java HotSpot(TM) 64-Bit Server VM
Java Version: 1.7.0_25-b15
Operating System: Linux
Default Encoding: UTF-8
Language: en
Country: US
--></g></svg>