<?xml version="1.0" encoding="UTF-8" standalone="no"?><svg xmlns="http://www.w3.org/2000/svg" xmlns:xlink="http://www.w3.org/1999/xlink" contentScriptType="application/ecmascript" contentStyleType="text/css" height="118px" preserveAspectRatio="none" style="width:734px;height:118px;" version="1.1" viewBox="0 0 734 118" width="734px" zoomAndPan="magnify"><defs><filter height="300%" id="f16ic7cc29i4nc" width="300%" x="-1" y="-1"><feGaussianBlur result="blurOut" stdDeviation="2.0"/><feColorMatrix in="blurOut" result="blurOut2" type="matrix" values="0 0 0 0 0 0 0 0 0 0 0 0 0 0 0 0 0 0 .4 0"/><feOffset dx="4.0" dy="4.0" in="blurOut2" result="blurOut3"/><feBlend in="SourceGraphic" in2="blurOut3" mode="normal"/></filter></defs><g><ellipse cx="16" cy="82" fill="#000000" filter="url(#f16ic7cc29i4nc)" rx="10" ry="10" style="stroke: none; stroke-width: 1.0;"/><rect fill="#FEFECE" filter="url(#f16ic7cc29i4nc)" height="50" rx="12.5" ry="12.5" style="stroke: #A80036; stroke-width: 1.5;" width="75" x="87" y="57"/><line style="stroke: #A80036; stroke-width: 1.5;" x1="87" x2="162" y1="83.4883" y2="83.4883"/><text fill="#000000" font-family="sans-serif" font-size="14" lengthAdjust="spacingAndGlyphs" textLength="55" x="97" y="75.5352">threadA</text><rect fill="#FEFECE" filter="url(#f16ic7cc29i4nc)" height="50" rx="12.5" ry="12.5" style="stroke: #A80036; stroke-width: 1.5;" width="57" x="272" y="8"/><line style="stroke: #A80036; stroke-width: 1.5;" x1="272" x2="329" y1="34.4883" y2="34.4883"/><text fill="#000000" font-family="sans-serif" font-size="14" lengthAdjust="spacingAndGlyphs" textLength="37" x="282" y="26.5352">lock2</text><rect fill="#FEFECE" filter="url(#f16ic7cc29i4nc)" height="50" rx="12.5" ry="12.5" style="stroke: #A80036; stroke-width: 1.5;" width="73" x="482" y="8"/><line style="stroke: #A80036; stroke-width: 1.5;" x1="482" x2="555" y1="34.4883" y2="34.4883"/><text fill="#000000" font-family="sans-serif" font-size="14" lengthAdjust="spacingAndGlyphs" textLength="53" x="492" y="26.5352">threadB</text><rect fill="#FEFECE" filter="url(#f16ic7cc29i4nc)" height="50" rx="12.5" ry="12.5" style="stroke: #A80036; stroke-width: 1.5;" width="57" x="665" y="57"/><line style="stroke: #A80036; stroke-width: 1.5;" x1="665" x2="722" y1="83.4883" y2="83.4883"/><text fill="#000000" font-family="sans-serif" font-size="14" lengthAdjust="spacingAndGlyphs" textLength="37" x="675" y="75.5352">lock1</text><!--link *start to threadA--><path d="M26.0129,82 C38.6839,82 61.3173,82 81.694,82 " fill="none" id="*start-threadA" style="stroke: #A80036; stroke-width: 1.0;"/><polygon fill="#A80036" points="86.8184,82,77.8184,78,81.8184,82,77.8184,86,86.8184,82" style="stroke: #A80036; stroke-width: 1.0;"/><!--link threadA to lock2--><path d="M162.2564,71.4883 C193.2879,62.8488 236.8546,50.7194 266.7398,42.3991 " fill="none" id="threadA-lock2" style="stroke: #A80036; stroke-width: 1.0;"/><polygon fill="#A80036" points="271.7841,40.9948,262.041,39.5551,266.9673,42.3358,264.1866,47.262,271.7841,40.9948" style="stroke: #A80036; stroke-width: 1.0;"/><text fill="#000000" font-family="sans-serif" font-size="13" lengthAdjust="spacingAndGlyphs" textLength="48" x="193" y="47.5684">braucht</text><!--link lock2 to threadB--><path d="M329.4487,33 C367.1783,33 433.4269,33 476.631,33 " fill="none" id="lock2-threadB" style="stroke: #A80036; stroke-width: 1.0;"/><polygon fill="#A80036" points="481.7821,33,472.7821,29,476.7821,33,472.7821,37,481.7821,33" style="stroke: #A80036; stroke-width: 1.0;"/><text fill="#000000" font-family="sans-serif" font-size="13" lengthAdjust="spacingAndGlyphs" textLength="91" x="360" y="29.5684">verwendet von</text><!--link threadB to lock1--><path d="M555.1857,43.272 C586.0725,51.9203 629.8866,64.1882 659.8764,72.5854 " fill="none" id="threadB-lock1" style="stroke: #A80036; stroke-width: 1.0;"/><polygon fill="#A80036" points="664.9373,74.0024,657.3491,67.7239,660.1225,72.6543,655.1921,75.4276,664.9373,74.0024" style="stroke: #A80036; stroke-width: 1.0;"/><text fill="#000000" font-family="sans-serif" font-size="13" lengthAdjust="spacingAndGlyphs" textLength="48" x="586" y="48.5684">braucht</text><!--link lock1 to threadA--><path d="M664.8707,82 C571.9277,82 278.2542,82 167.4128,82 " fill="none" id="lock1-threadA" style="stroke: #A80036; stroke-width: 1.0;"/><polygon fill="#A80036" points="162.2743,82,171.2743,86,167.2743,82,171.2743,78,162.2743,82" style="stroke: #A80036; stroke-width: 1.0;"/><text fill="#000000" font-family="sans-serif" font-size="13" lengthAdjust="spacingAndGlyphs" textLength="91" x="360" y="78.5684">verwendet von</text><!--
@startuml
left to right direction

[*] - -> threadA

threadA - -> lock2 : braucht

lock2 - -> threadB : verwendet von

threadB - -> lock1 : braucht

lock1 - -> threadA : verwendet von

@enduml

PlantUML version 1.2018.07(Mon Jun 11 19:29:06 CEST 2018)
(GPL source distribution)
Java Runtime: Java(TM) SE Runtime Environment
JVM: Java HotSpot(TM) 64-Bit Server VM
Java Version: 1.8.0_144-b01
Operating System: Mac OS X
OS Version: 10.13.4
Default Encoding: UTF-8
Language: en
Country: US
--></g></svg>