<?xml version="1.0" encoding="UTF-8" standalone="no"?><svg xmlns="http://www.w3.org/2000/svg" xmlns:xlink="http://www.w3.org/1999/xlink" contentScriptType="application/ecmascript" contentStyleType="text/css" height="267px" preserveAspectRatio="none" style="width:826px;height:267px;" version="1.1" viewBox="0 0 826 267" width="826px" zoomAndPan="magnify"><defs><filter height="300%" id="f1cd9jbimmqk44" width="300%" x="-1" y="-1"><feGaussianBlur result="blurOut" stdDeviation="2.0"/><feColorMatrix in="blurOut" result="blurOut2" type="matrix" values="0 0 0 0 0 0 0 0 0 0 0 0 0 0 0 0 0 0 .4 0"/><feOffset dx="4.0" dy="4.0" in="blurOut2" result="blurOut3"/><feBlend in="SourceGraphic" in2="blurOut3" mode="normal"/></filter></defs><g><ellipse cx="16" cy="115.2248" fill="#000000" filter="url(#f1cd9jbimmqk44)" rx="10" ry="10" style="stroke: none; stroke-width: 1.0;"/><rect fill="#FEFECE" filter="url(#f1cd9jbimmqk44)" height="50" rx="12.5" ry="12.5" style="stroke: #A80036; stroke-width: 1.5;" width="60" x="125" y="90.2248"/><line style="stroke: #A80036; stroke-width: 1.5;" x1="125" x2="185" y1="116.7131" y2="116.7131"/><text fill="#000000" font-family="sans-serif" font-size="14" lengthAdjust="spacingAndGlyphs" textLength="40" x="135" y="108.76">bereit</text><rect fill="#FEFECE" filter="url(#f1cd9jbimmqk44)" height="50" rx="12.5" ry="12.5" style="stroke: #A80036; stroke-width: 1.5;" width="72" x="427" y="47.2248"/><line style="stroke: #A80036; stroke-width: 1.5;" x1="427" x2="499" y1="73.7131" y2="73.7131"/><text fill="#000000" font-family="sans-serif" font-size="14" lengthAdjust="spacingAndGlyphs" textLength="52" x="437" y="65.76">laufend</text><rect fill="#FEFECE" filter="url(#f1cd9jbimmqk44)" height="93.0195" rx="12.5" ry="12.5" style="stroke: #A80036; stroke-width: 1.5;" width="107" x="707" y="126.7248"/><line style="stroke: #A80036; stroke-width: 1.5;" x1="707" x2="814" y1="153.2131" y2="153.2131"/><text fill="#000000" font-family="sans-serif" font-size="14" lengthAdjust="spacingAndGlyphs" textLength="45" x="738" y="145.26">inaktiv</text><text fill="#000000" font-family="sans-serif" font-size="12" lengthAdjust="spacingAndGlyphs" textLength="55" x="712" y="169.8146">schlafend</text><text fill="#000000" font-family="sans-serif" font-size="12" lengthAdjust="spacingAndGlyphs" textLength="47" x="712" y="183.9475">wartend</text><text fill="#000000" font-family="sans-serif" font-size="12" lengthAdjust="spacingAndGlyphs" textLength="74" x="712" y="198.0803">blockiert (IO)</text><text fill="#000000" font-family="sans-serif" font-size="12" lengthAdjust="spacingAndGlyphs" textLength="87" x="712" y="212.2131">blockiert (sync)</text><!--link *start to bereit--><path d="M26.4476,115.2248 C45.9643,115.2248 88.7731,115.2248 119.6351,115.2248 " fill="none" id="*start-bereit" style="stroke: #A80036; stroke-width: 1.0;"/><polygon fill="#A80036" points="124.8645,115.2248,115.8645,111.2248,119.8645,115.2248,115.8645,119.2248,124.8645,115.2248" style="stroke: #A80036; stroke-width: 1.0;"/><text fill="#000000" font-family="sans-serif" font-size="13" lengthAdjust="spacingAndGlyphs" textLength="37" x="57" y="111.7932">start()</text><!--link bereit to laufend--><path d="M167.4016,89.9547 C177.5323,72.4359 193.6587,50.4819 215,40.2248 C282.2815,7.8876 371.0683,33.4291 422.1151,53.6856 " fill="none" id="bereit-laufend" style="stroke: #A80036; stroke-width: 1.0;"/><polygon fill="#A80036" points="426.9353,55.6273,420.0818,48.5541,422.2975,53.759,417.0926,55.9747,426.9353,55.6273" style="stroke: #A80036; stroke-width: 1.0;"/><text fill="#000000" font-family="sans-serif" font-size="13" lengthAdjust="spacingAndGlyphs" textLength="157" x="216" y="21.7932">durch Scheduler aktiviert</text><!--link laufend to bereit--><path d="M426.9525,73.6996 C378.4021,76.1756 289.4919,82.4374 215,97.2248 C206.8729,98.8381 198.269,101.0854 190.1919,103.4464 " fill="none" id="laufend-bereit" style="stroke: #A80036; stroke-width: 1.0;"/><polygon fill="#A80036" points="185.2398,104.9266,195.0084,106.1817,190.0304,103.4947,192.7174,98.5168,185.2398,104.9266" style="stroke: #A80036; stroke-width: 1.0;"/><text fill="#000000" font-family="sans-serif" font-size="13" lengthAdjust="spacingAndGlyphs" textLength="156" x="216.5" y="73.7932">durch Scheduler pausiert</text><!--link laufend to bereit--><path d="M428.0038,97.3831 C412.2915,107.1833 393.0316,117.2449 374,122.2248 C311.0526,138.696 234.4546,130.0316 190.5487,122.4673 " fill="none" id="laufend-bereit" style="stroke: #A80036; stroke-width: 1.0;"/><polygon fill="#A80036" points="185.3595,121.5521,193.5278,127.0547,190.2835,122.4207,194.9175,119.1763,185.3595,121.5521" style="stroke: #A80036; stroke-width: 1.0;"/><text fill="#000000" font-family="sans-serif" font-size="13" lengthAdjust="spacingAndGlyphs" textLength="38" x="275.5" y="118.7932">yield()</text><!--link laufend to inaktiv--><path d="M499.1819,84.5084 C549.5636,101.6127 641.436,132.803 701.7237,153.2705 " fill="none" id="laufend-inaktiv" style="stroke: #A80036; stroke-width: 1.0;"/><polygon fill="#A80036" points="706.7317,154.9707,699.4954,148.2897,701.9971,153.3633,696.9235,155.865,706.7317,154.9707" style="stroke: #A80036; stroke-width: 1.0;"/><text fill="#000000" font-family="sans-serif" font-size="13" lengthAdjust="spacingAndGlyphs" textLength="123" x="553" y="101.7932">sleep(), wait(), join()</text><!--link inaktiv to bereit--><path d="M706.6122,175.8451 C607.7393,179.3639 391.3122,181.0622 215,140.2248 C206.7152,138.3059 198.1088,135.3503 190.0879,132.1347 " fill="none" id="inaktiv-bereit" style="stroke: #A80036; stroke-width: 1.0;"/><polygon fill="#A80036" points="185.1776,130.1059,191.968,137.2397,189.7987,132.0153,195.023,129.846,185.1776,130.1059" style="stroke: #A80036; stroke-width: 1.0;"/><text fill="#000000" font-family="sans-serif" font-size="13" lengthAdjust="spacingAndGlyphs" textLength="57" x="434.5" y="165.7932">entsperrt</text><!--link inaktiv to bereit--><path d="M706.6221,188.3012 C604.5065,213.7657 378.4016,255.0692 215,174.2248 C200.6476,167.1238 187.5861,155.2875 177.3413,144.0727 " fill="none" id="inaktiv-bereit" style="stroke: #A80036; stroke-width: 1.0;"/><polygon fill="#A80036" points="173.9771,140.3009,176.9826,149.68,177.3052,144.0323,182.9529,144.3549,173.9771,140.3009" style="stroke: #A80036; stroke-width: 1.0;"/><text fill="#000000" font-family="sans-serif" font-size="13" lengthAdjust="spacingAndGlyphs" textLength="116" x="405" y="215.7932">notify(), interrupt()</text><!--
@startuml
left to right direction

[*] - -> bereit : start()

bereit - -> laufend : durch Scheduler aktiviert

laufend - -> bereit : durch Scheduler pausiert

laufend - -> bereit : yield()

laufend - -> inaktiv : sleep(), wait(), join()
inaktiv: schlafend
inaktiv: wartend
inaktiv: blockiert (IO)
inaktiv: blockiert (sync)

inaktiv - -> bereit : entsperrt

inaktiv - -> bereit : notify(), interrupt()

@enduml

PlantUML version 1.2018.07(Mon Jun 11 19:29:06 CEST 2018)
(GPL source distribution)
Java Runtime: Java(TM) SE Runtime Environment
JVM: Java HotSpot(TM) 64-Bit Server VM
Java Version: 1.8.0_144-b01
Operating System: Mac OS X
OS Version: 10.13.4
Default Encoding: UTF-8
Language: en
Country: US
--></g></svg>