<?xml version="1.0" encoding="UTF-8" standalone="no"?><svg xmlns="http://www.w3.org/2000/svg" xmlns:xlink="http://www.w3.org/1999/xlink" contentScriptType="application/ecmascript" contentStyleType="text/css" height="464px" preserveAspectRatio="none" style="width:226px;height:464px;" version="1.1" viewBox="0 0 226 464" width="226px" zoomAndPan="magnify"><defs><filter height="300%" id="f187h23q2naan9" width="300%" x="-1" y="-1"><feGaussianBlur result="blurOut" stdDeviation="2.0"/><feColorMatrix in="blurOut" result="blurOut2" type="matrix" values="0 0 0 0 0 0 0 0 0 0 0 0 0 0 0 0 0 0 .4 0"/><feOffset dx="4.0" dy="4.0" in="blurOut2" result="blurOut3"/><feBlend in="SourceGraphic" in2="blurOut3" mode="normal"/></filter></defs><g><!--class Verein--><rect fill="#FEFECE" filter="url(#f187h23q2naan9)" height="86.8652" id="Verein" style="stroke: #A80036; stroke-width: 1.5;" width="93" x="74.5" y="8"/><ellipse cx="100.3" cy="24" fill="#ADD1B2" rx="11" ry="11" style="stroke: #A80036; stroke-width: 1.0;"/><path d="M103.2731,29.6431 Q102.6921,29.9419 102.0529,30.0913 Q101.4138,30.2407 100.7082,30.2407 Q98.2014,30.2407 96.8815,28.5889 Q95.5617,26.937 95.5617,23.8159 Q95.5617,20.6865 96.8815,19.0347 Q98.2014,17.3828 100.7082,17.3828 Q101.4138,17.3828 102.0612,17.5322 Q102.7087,17.6816 103.2731,17.9805 L103.2731,20.7031 Q102.6423,20.1221 102.0488,19.8523 Q101.4553,19.5825 100.8244,19.5825 Q99.4797,19.5825 98.7949,20.6492 Q98.1101,21.7158 98.1101,23.8159 Q98.1101,25.9077 98.7949,26.9744 Q99.4797,28.041 100.8244,28.041 Q101.4553,28.041 102.0488,27.7712 Q102.6423,27.5015 103.2731,26.9204 Z "/><text fill="#000000" font-family="sans-serif" font-size="12" lengthAdjust="spacingAndGlyphs" textLength="37" x="116.7" y="28.5352">Verein</text><line style="stroke: #A80036; stroke-width: 1.5;" x1="75.5" x2="166.5" y1="40" y2="40"/><rect fill="none" height="6" style="stroke: #C82930; stroke-width: 1.0;" width="6" x="82.5" y="48.9775"/><text fill="#000000" font-family="sans-serif" font-size="11" lengthAdjust="spacingAndGlyphs" textLength="30" x="94.5" y="54.6348">id: int</text><rect fill="none" height="6" style="stroke: #C82930; stroke-width: 1.0;" width="6" x="82.5" y="61.9326"/><text fill="#000000" font-family="sans-serif" font-size="11" lengthAdjust="spacingAndGlyphs" textLength="67" x="94.5" y="67.5898">name: String</text><rect fill="none" height="6" style="stroke: #C82930; stroke-width: 1.0;" width="6" x="82.5" y="74.8877"/><text fill="#000000" font-family="sans-serif" font-size="11" lengthAdjust="spacingAndGlyphs" textLength="39" x="94.5" y="80.5449">liga: int</text><line style="stroke: #A80036; stroke-width: 1.5;" x1="75.5" x2="166.5" y1="86.8652" y2="86.8652"/><!--class Spiel--><rect fill="#FEFECE" filter="url(#f187h23q2naan9)" height="151.6406" id="Spiel" style="stroke: #A80036; stroke-width: 1.5;" width="118" x="6" y="155"/><ellipse cx="47.55" cy="171" fill="#ADD1B2" rx="11" ry="11" style="stroke: #A80036; stroke-width: 1.0;"/><path d="M50.5231,176.6431 Q49.9421,176.9419 49.3029,177.0913 Q48.6638,177.2407 47.9582,177.2407 Q45.4514,177.2407 44.1315,175.5889 Q42.8117,173.937 42.8117,170.8159 Q42.8117,167.6865 44.1315,166.0347 Q45.4514,164.3828 47.9582,164.3828 Q48.6638,164.3828 49.3112,164.5322 Q49.9587,164.6816 50.5231,164.9805 L50.5231,167.7031 Q49.8923,167.1221 49.2988,166.8523 Q48.7053,166.5825 48.0744,166.5825 Q46.7297,166.5825 46.0449,167.6492 Q45.3601,168.7158 45.3601,170.8159 Q45.3601,172.9077 46.0449,173.9744 Q46.7297,175.041 48.0744,175.041 Q48.7053,175.041 49.2988,174.7712 Q49.8923,174.5015 50.5231,173.9204 Z "/><text fill="#000000" font-family="sans-serif" font-size="12" lengthAdjust="spacingAndGlyphs" textLength="27" x="67.45" y="175.5352">Spiel</text><line style="stroke: #A80036; stroke-width: 1.5;" x1="7" x2="123" y1="187" y2="187"/><rect fill="none" height="6" style="stroke: #C82930; stroke-width: 1.0;" width="6" x="14" y="195.9775"/><text fill="#000000" font-family="sans-serif" font-size="11" lengthAdjust="spacingAndGlyphs" textLength="30" x="26" y="201.6348">id: int</text><rect fill="none" height="6" style="stroke: #C82930; stroke-width: 1.0;" width="6" x="14" y="208.9326"/><text fill="#000000" font-family="sans-serif" font-size="11" lengthAdjust="spacingAndGlyphs" textLength="62" x="26" y="214.5898">spieltag: int</text><rect fill="none" height="6" style="stroke: #C82930; stroke-width: 1.0;" width="6" x="14" y="221.8877"/><text fill="#000000" font-family="sans-serif" font-size="11" lengthAdjust="spacingAndGlyphs" textLength="88" x="26" y="227.5449">isodatum: String</text><rect fill="none" height="6" style="stroke: #C82930; stroke-width: 1.0;" width="6" x="14" y="234.8428"/><text fill="#000000" font-family="sans-serif" font-size="11" lengthAdjust="spacingAndGlyphs" textLength="92" x="26" y="240.5">isouhrzeit: String</text><rect fill="none" height="6" style="stroke: #C82930; stroke-width: 1.0;" width="6" x="14" y="247.7979"/><text fill="#000000" font-family="sans-serif" font-size="11" lengthAdjust="spacingAndGlyphs" textLength="46" x="26" y="253.4551">heim: int</text><rect fill="none" height="6" style="stroke: #C82930; stroke-width: 1.0;" width="6" x="14" y="260.7529"/><text fill="#000000" font-family="sans-serif" font-size="11" lengthAdjust="spacingAndGlyphs" textLength="43" x="26" y="266.4102">gast: int</text><rect fill="none" height="6" style="stroke: #C82930; stroke-width: 1.0;" width="6" x="14" y="273.708"/><text fill="#000000" font-family="sans-serif" font-size="11" lengthAdjust="spacingAndGlyphs" textLength="69" x="26" y="279.3652">toreHeim: int</text><rect fill="none" height="6" style="stroke: #C82930; stroke-width: 1.0;" width="6" x="14" y="286.6631"/><text fill="#000000" font-family="sans-serif" font-size="11" lengthAdjust="spacingAndGlyphs" textLength="66" x="26" y="292.3203">toreGast: int</text><line style="stroke: #A80036; stroke-width: 1.5;" x1="7" x2="123" y1="298.6406" y2="298.6406"/><!--class Bundesliga--><rect fill="#FEFECE" filter="url(#f187h23q2naan9)" height="86.8652" id="Bundesliga" style="stroke: #A80036; stroke-width: 1.5;" width="189" x="26.5" y="367"/><ellipse cx="85.75" cy="383" fill="#ADD1B2" rx="11" ry="11" style="stroke: #A80036; stroke-width: 1.0;"/><path d="M88.7231,388.6431 Q88.1421,388.9419 87.5029,389.0913 Q86.8638,389.2407 86.1582,389.2407 Q83.6514,389.2407 82.3315,387.5889 Q81.0117,385.937 81.0117,382.8159 Q81.0117,379.6865 82.3315,378.0347 Q83.6514,376.3828 86.1582,376.3828 Q86.8638,376.3828 87.5112,376.5322 Q88.1587,376.6816 88.7231,376.9805 L88.7231,379.7031 Q88.0923,379.1221 87.4988,378.8523 Q86.9053,378.5825 86.2744,378.5825 Q84.9297,378.5825 84.2449,379.6492 Q83.5601,380.7158 83.5601,382.8159 Q83.5601,384.9077 84.2449,385.9744 Q84.9297,387.041 86.2744,387.041 Q86.9053,387.041 87.4988,386.7712 Q88.0923,386.5015 88.7231,385.9204 Z "/><text fill="#000000" font-family="sans-serif" font-size="12" lengthAdjust="spacingAndGlyphs" textLength="62" x="106.25" y="387.5352">Bundesliga</text><line style="stroke: #A80036; stroke-width: 1.5;" x1="27.5" x2="214.5" y1="399" y2="399"/><rect fill="none" height="6" style="stroke: #C82930; stroke-width: 1.0;" width="6" x="34.5" y="407.9775"/><text fill="#000000" font-family="sans-serif" font-size="11" lengthAdjust="spacingAndGlyphs" textLength="99" x="46.5" y="413.6348">spiele: List&lt;Spiel&gt;</text><rect fill="none" height="6" style="stroke: #C82930; stroke-width: 1.0;" width="6" x="34.5" y="420.9326"/><text fill="#000000" font-family="sans-serif" font-size="11" lengthAdjust="spacingAndGlyphs" textLength="163" x="46.5" y="426.5898">vereine: Map&lt;Integer, Verein&gt;</text><line style="stroke: #A80036; stroke-width: 1.5;" x1="27.5" x2="214.5" y1="432.9102" y2="432.9102"/><ellipse cx="37.5" cy="444.8877" fill="#84BE84" rx="3" ry="3" style="stroke: #038048; stroke-width: 1.0;"/><text fill="#000000" font-family="sans-serif" font-size="11" lengthAdjust="spacingAndGlyphs" textLength="151" x="46.5" y="447.5449">static fromCSV(): Bundesliga</text><!--link Verein to Spiel--><path d="M107.3009,95.4106 C102.9062,109.497 97.8692,125.6426 92.839,141.766 " fill="none" id="Verein-Spiel" style="stroke: #A80036; stroke-width: 1.0;"/><polygon fill="#FFFFFF" points="88.8188,154.6522,94.4242,150.1158,92.3927,143.1967,86.7873,147.7332,88.8188,154.6522" style="stroke: #A80036; stroke-width: 1.0;"/><!--link Verein to Bundesliga--><path d="M131.8454,95.018 C135.8995,113.3998 140.003,135.115 142,155 C148.7504,222.2174 148.7504,239.7826 142,307 C140.4555,322.3798 137.6508,338.8544 134.5834,354.0349 " fill="none" id="Verein-Bundesliga" style="stroke: #A80036; stroke-width: 1.0;"/><polygon fill="#FFFFFF" points="131.8454,366.982,137.0003,361.9395,134.3284,355.2417,129.1734,360.2842,131.8454,366.982" style="stroke: #A80036; stroke-width: 1.0;"/><!--link Spiel to Bundesliga--><path d="M88.749,307.1242 C93.6831,322.9395 98.7974,339.3329 103.4599,354.2777 " fill="none" id="Spiel-Bundesliga" style="stroke: #A80036; stroke-width: 1.0;"/><polygon fill="#FFFFFF" points="107.425,366.9872,109.4565,360.0682,103.8511,355.5317,101.8196,362.4508,107.425,366.9872" style="stroke: #A80036; stroke-width: 1.0;"/><!--
@startuml datenmodell

class Verein {
	-id: int
	-name: String
	-liga: int
}

class Spiel {
	-id: int
	-spieltag: int
	-isodatum: String
	-isouhrzeit: String
	-heim: int
	-gast: int
	-toreHeim: int
	-toreGast: int
}

class Bundesliga {
	-spiele: List<Spiel>
	-vereine: Map<Integer, Verein>
	+static fromCSV(): Bundesliga
}

Verein - -o Spiel
Verein - -o Bundesliga
Spiel - -o Bundesliga

@enduml

PlantUML version 1.2017.16(Sun Sep 03 12:53:37 CEST 2017)
(GPL source distribution)
Java Runtime: Java(TM) SE Runtime Environment
JVM: Java HotSpot(TM) 64-Bit Server VM
Java Version: 1.8.0_144-b01
Operating System: Mac OS X
OS Version: 10.13.4
Default Encoding: UTF-8
Language: en
Country: US
--></g></svg>