<?xml version="1.0" encoding="UTF-8" standalone="no"?>
<svg xmlns="http://www.w3.org/2000/svg" xmlns:xlink="http://www.w3.org/1999/xlink" contentScriptType="application/ecmascript" contentStyleType="text/css" height="277px" preserveAspectRatio="none" style="width:354px;height:277px;" version="1.1" viewBox="0 0 354 277" width="354px" zoomAndPan="magnify"><defs><filter height="300%" id="f1s83kep5j3602" width="300%" x="-1" y="-1"><feGaussianBlur result="blurOut" stdDeviation="2.0"/><feColorMatrix in="blurOut" result="blurOut2" type="matrix" values="0 0 0 0 0 0 0 0 0 0 0 0 0 0 0 0 0 0 .4 0"/><feOffset dx="4.0" dy="4.0" in="blurOut2" result="blurOut3"/><feBlend in="SourceGraphic" in2="blurOut3" mode="normal"/></filter></defs><g><text fill="#000000" font-family="sans-serif" font-size="18" lengthAdjust="spacingAndGlyphs" textLength="178" x="91.5" y="16.708">Composite - Pattern</text><!--class Component--><rect fill="#FEFECE" filter="url(#f1s83kep5j3602)" height="60.8047" id="Component" style="stroke: #A80036; stroke-width: 1.5;" width="119" x="134" y="28.9531"/><ellipse cx="155.75" cy="44.9531" fill="#A9DCDF" rx="11" ry="11" style="stroke: #A80036; stroke-width: 1.0;"/><path d="M157.3281,46.7656 L153.2813,46.7656 L152.8906,47.75 L153.2813,47.75 C153.7344,47.75 153.875,47.7813 154.0469,47.9063 C154.2656,48.0781 154.3906,48.3281 154.3906,48.6094 C154.3906,48.8906 154.25,49.1875 153.9844,49.3281 C153.8594,49.4219 153.6406,49.4531 153.2813,49.4531 L151.0156,49.4531 C150.2656,49.4531 149.8906,49.1719 149.8906,48.6094 C149.8906,48.3125 150.0469,48.0313 150.2969,47.875 C150.4531,47.7656 150.6094,47.75 151.0313,47.75 L153.6719,41.2344 L152.5938,41.2344 C152.1563,41.2344 151.9844,41.2031 151.8125,41.0938 C151.5938,40.9219 151.4531,40.6719 151.4531,40.3906 C151.4531,40.1094 151.6094,39.8281 151.8594,39.6563 C152.0156,39.5625 152.1406,39.5469 152.5938,39.5469 L156.2656,39.5469 L159.6563,47.75 C160.125,47.75 160.2813,47.7813 160.4531,47.9219 C160.6719,48.0781 160.8125,48.3281 160.8125,48.6094 C160.8125,48.8906 160.6563,49.1875 160.4063,49.3281 C160.2656,49.4219 160.0469,49.4531 159.6875,49.4531 L157.3281,49.4531 C156.9063,49.4531 156.7031,49.4063 156.5625,49.2813 C156.3438,49.125 156.2031,48.875 156.2031,48.6094 C156.2031,48.3125 156.3594,48.0313 156.6094,47.875 C156.7656,47.7656 156.875,47.75 157.3281,47.75 L157.7188,47.75 Z M156.625,45.0625 L155.2969,41.7969 L153.9531,45.0625 Z "/><text fill="#000000" font-family="sans-serif" font-size="12" font-style="italic" lengthAdjust="spacingAndGlyphs" textLength="72" x="171.25" y="49.1074">Component</text><line style="stroke: #A80036; stroke-width: 1.5;" x1="135" x2="252" y1="60.9531" y2="60.9531"/><line style="stroke: #A80036; stroke-width: 1.5;" x1="135" x2="252" y1="68.9531" y2="68.9531"/><ellipse cx="145" cy="80.8555" fill="#84BE84" rx="3" ry="3" style="stroke: #038048; stroke-width: 1.0;"/><text fill="#000000" font-family="sans-serif" font-size="11" lengthAdjust="spacingAndGlyphs" textLength="93" x="154" y="83.1636">void operation();</text><!--class Leaf--><rect fill="#FEFECE" filter="url(#f1s83kep5j3602)" height="60.8047" id="Leaf" style="stroke: #A80036; stroke-width: 1.5;" width="119" x="6" y="185.9531"/><ellipse cx="48.45" cy="201.9531" fill="#ADD1B2" rx="11" ry="11" style="stroke: #A80036; stroke-width: 1.0;"/><path d="M50.7938,197.625 L50.9656,197.7031 C51.1844,197.3906 51.3875,197.2969 51.6844,197.2969 C51.9813,197.2969 52.2625,197.4375 52.4188,197.7031 C52.5125,197.8594 52.5281,197.9844 52.5281,198.4219 L52.5281,199.8438 C52.5281,200.2656 52.4969,200.4531 52.3875,200.6094 C52.2156,200.8281 51.95,200.9688 51.6844,200.9688 C51.4656,200.9688 51.2313,200.8594 51.0906,200.7188 C50.95,200.5938 50.9188,200.4688 50.8563,200.0625 C50.7625,199.6563 50.5906,199.4375 50.1063,199.1563 C49.6375,198.9063 49.0281,198.75 48.45,198.75 C46.7156,198.75 45.4656,200.0625 45.4656,201.8438 L45.4656,202.9375 C45.4656,204.6406 46.7625,205.7344 48.8094,205.7344 C49.575,205.7344 50.2625,205.6094 50.6844,205.3438 C50.8719,205.25 50.8719,205.25 51.325,204.7656 C51.5125,204.5781 51.7156,204.5 51.9344,204.5 C52.4031,204.5 52.7938,204.8906 52.7938,205.3438 C52.7938,205.7344 52.4656,206.1875 51.8875,206.5938 C51.1375,207.1406 49.9813,207.4375 48.7625,207.4375 C45.8719,207.4375 43.7625,205.5469 43.7625,202.9688 L43.7625,201.8438 C43.7625,199.125 45.7625,197.0469 48.3875,197.0469 C49.2625,197.0469 49.8563,197.1875 50.7938,197.625 Z "/><text fill="#000000" font-family="sans-serif" font-size="12" lengthAdjust="spacingAndGlyphs" textLength="26" x="68.55" y="206.1074">Leaf</text><line style="stroke: #A80036; stroke-width: 1.5;" x1="7" x2="124" y1="217.9531" y2="217.9531"/><line style="stroke: #A80036; stroke-width: 1.5;" x1="7" x2="124" y1="225.9531" y2="225.9531"/><ellipse cx="17" cy="237.8555" fill="#84BE84" rx="3" ry="3" style="stroke: #038048; stroke-width: 1.0;"/><text fill="#000000" font-family="sans-serif" font-size="11" lengthAdjust="spacingAndGlyphs" textLength="93" x="26" y="240.1636">void operation();</text><!--class Composite--><rect fill="#FEFECE" filter="url(#f1s83kep5j3602)" height="99.2188" id="Composite" style="stroke: #A80036; stroke-width: 1.5;" width="183" x="160" y="166.9531"/><ellipse cx="214.25" cy="182.9531" fill="#ADD1B2" rx="11" ry="11" style="stroke: #A80036; stroke-width: 1.0;"/><path d="M216.5938,178.625 L216.7656,178.7031 C216.9844,178.3906 217.1875,178.2969 217.4844,178.2969 C217.7813,178.2969 218.0625,178.4375 218.2188,178.7031 C218.3125,178.8594 218.3281,178.9844 218.3281,179.4219 L218.3281,180.8438 C218.3281,181.2656 218.2969,181.4531 218.1875,181.6094 C218.0156,181.8281 217.75,181.9688 217.4844,181.9688 C217.2656,181.9688 217.0313,181.8594 216.8906,181.7188 C216.75,181.5938 216.7188,181.4688 216.6563,181.0625 C216.5625,180.6563 216.3906,180.4375 215.9063,180.1563 C215.4375,179.9063 214.8281,179.75 214.25,179.75 C212.5156,179.75 211.2656,181.0625 211.2656,182.8438 L211.2656,183.9375 C211.2656,185.6406 212.5625,186.7344 214.6094,186.7344 C215.375,186.7344 216.0625,186.6094 216.4844,186.3438 C216.6719,186.25 216.6719,186.25 217.125,185.7656 C217.3125,185.5781 217.5156,185.5 217.7344,185.5 C218.2031,185.5 218.5938,185.8906 218.5938,186.3438 C218.5938,186.7344 218.2656,187.1875 217.6875,187.5938 C216.9375,188.1406 215.7813,188.4375 214.5625,188.4375 C211.6719,188.4375 209.5625,186.5469 209.5625,183.9688 L209.5625,182.8438 C209.5625,180.125 211.5625,178.0469 214.1875,178.0469 C215.0625,178.0469 215.6563,178.1875 216.5938,178.625 Z "/><text fill="#000000" font-family="sans-serif" font-size="12" lengthAdjust="spacingAndGlyphs" textLength="66" x="234.75" y="187.1074">Composite</text><line style="stroke: #A80036; stroke-width: 1.5;" x1="161" x2="342" y1="198.9531" y2="198.9531"/><line style="stroke: #A80036; stroke-width: 1.5;" x1="161" x2="342" y1="206.9531" y2="206.9531"/><ellipse cx="171" cy="218.8555" fill="#84BE84" rx="3" ry="3" style="stroke: #038048; stroke-width: 1.0;"/><text fill="#000000" font-family="sans-serif" font-size="11" lengthAdjust="spacingAndGlyphs" textLength="93" x="180" y="221.1636">void operation();</text><ellipse cx="171" cy="231.6602" fill="#84BE84" rx="3" ry="3" style="stroke: #038048; stroke-width: 1.0;"/><text fill="#000000" font-family="sans-serif" font-size="11" lengthAdjust="spacingAndGlyphs" textLength="135" x="180" y="233.9683">void add(Component c);</text><ellipse cx="171" cy="244.4648" fill="#84BE84" rx="3" ry="3" style="stroke: #038048; stroke-width: 1.0;"/><text fill="#000000" font-family="sans-serif" font-size="11" lengthAdjust="spacingAndGlyphs" textLength="157" x="180" y="246.7729">void remove(Component c);</text><ellipse cx="171" cy="257.2695" fill="#84BE84" rx="3" ry="3" style="stroke: #038048; stroke-width: 1.0;"/><text fill="#000000" font-family="sans-serif" font-size="11" lengthAdjust="spacingAndGlyphs" textLength="148" x="180" y="259.5776">Component getChild(int i);</text><!--link Component to Leaf--><path d="M156.253,105.5571 C134.92,131.3901 108.75,163.0801 90.004,185.7803 " fill="none" id="Component-Leaf" style="stroke: #A80036; stroke-width: 1.0;"/><polygon fill="none" points="150.99,100.9361,169.123,89.9721,161.785,109.8511,150.99,100.9361" style="stroke: #A80036; stroke-width: 1.0;"/><!--link Component to Composite--><path d="M206.427,109.5181 C209.183,118.7141 212.251,128.1881 215.5,136.9531 C219.148,146.7941 223.493,157.1221 227.88,166.936 " fill="none" id="Component-Composite" style="stroke: #A80036; stroke-width: 1.0;"/><polygon fill="none" points="199.674,111.3641,200.944,90.2131,213.142,107.5391,199.674,111.3641" style="stroke: #A80036; stroke-width: 1.0;"/><!--link Composite to Component--><path d="M233.31,166.8412 C224.54,143.4061 214.232,115.8581 206.303,94.6671 " fill="none" id="Composite-Component" style="stroke: #A80036; stroke-width: 1.0;"/><polygon fill="#A80036" points="204.546,89.9721,203.9522,99.8031,206.2975,94.6553,211.4453,97.0006,204.546,89.9721" style="stroke: #A80036; stroke-width: 1.0;"/><text fill="#000000" font-family="sans-serif" font-size="13" lengthAdjust="spacingAndGlyphs" textLength="111" x="221.5" y="133.02">childComponents</text><text fill="#000000" font-family="sans-serif" font-size="13" lengthAdjust="spacingAndGlyphs" textLength="7" x="199.1024" y="109.9143">*</text><!--
@startuml
title Composite - Pattern


abstract class Component {

  + void operation();

}

class Leaf {
    +void operation();
}

class Composite {
  + void operation();
  + void add(Component c);
  + void remove(Component c);
  +Component getChild(int i);
}


Component <|- - Leaf
Component <|- - Composite
Composite - ->"*"  Component : childComponents
@enduml

PlantUML version 1.2019.07beta1(Unknown compile time)
(GPL source distribution)
Java Runtime: Java(TM) SE Runtime Environment
JVM: Java HotSpot(TM) 64-Bit Server VM
Java Version: 1.7.0_25-b15
Operating System: Linux
Default Encoding: UTF-8
Language: en
Country: US
--></g></svg>