<?xml version="1.0" encoding="UTF-8" standalone="no"?>
<svg xmlns="http://www.w3.org/2000/svg" xmlns:xlink="http://www.w3.org/1999/xlink" contentScriptType="application/ecmascript" contentStyleType="text/css" height="329px" preserveAspectRatio="none" style="width:510px;height:329px;" version="1.1" viewBox="0 0 510 329" width="510px" zoomAndPan="magnify"><defs><filter height="300%" id="f1ldxlkjmzhy4k" width="300%" x="-1" y="-1"><feGaussianBlur result="blurOut" stdDeviation="2.0"/><feColorMatrix in="blurOut" result="blurOut2" type="matrix" values="0 0 0 0 0 0 0 0 0 0 0 0 0 0 0 0 0 0 .4 0"/><feOffset dx="4.0" dy="4.0" in="blurOut2" result="blurOut3"/><feBlend in="SourceGraphic" in2="blurOut3" mode="normal"/></filter></defs><g><text fill="#000000" font-family="sans-serif" font-size="18" lengthAdjust="spacingAndGlyphs" textLength="150" x="183.5" y="16.708">Factory - Pattern</text><!--class SchrankFactory--><rect fill="#FEFECE" filter="url(#f1ldxlkjmzhy4k)" height="60.8047" id="SchrankFactory" style="stroke: #A80036; stroke-width: 1.5;" width="228" x="150.5" y="28.9531"/><ellipse cx="211.75" cy="44.9531" fill="#ADD1B2" rx="11" ry="11" style="stroke: #A80036; stroke-width: 1.0;"/><path d="M214.0938,40.625 L214.2656,40.7031 C214.4844,40.3906 214.6875,40.2969 214.9844,40.2969 C215.2813,40.2969 215.5625,40.4375 215.7188,40.7031 C215.8125,40.8594 215.8281,40.9844 215.8281,41.4219 L215.8281,42.8438 C215.8281,43.2656 215.7969,43.4531 215.6875,43.6094 C215.5156,43.8281 215.25,43.9688 214.9844,43.9688 C214.7656,43.9688 214.5313,43.8594 214.3906,43.7188 C214.25,43.5938 214.2188,43.4688 214.1563,43.0625 C214.0625,42.6563 213.8906,42.4375 213.4063,42.1563 C212.9375,41.9063 212.3281,41.75 211.75,41.75 C210.0156,41.75 208.7656,43.0625 208.7656,44.8438 L208.7656,45.9375 C208.7656,47.6406 210.0625,48.7344 212.1094,48.7344 C212.875,48.7344 213.5625,48.6094 213.9844,48.3438 C214.1719,48.25 214.1719,48.25 214.625,47.7656 C214.8125,47.5781 215.0156,47.5 215.2344,47.5 C215.7031,47.5 216.0938,47.8906 216.0938,48.3438 C216.0938,48.7344 215.7656,49.1875 215.1875,49.5938 C214.4375,50.1406 213.2813,50.4375 212.0625,50.4375 C209.1719,50.4375 207.0625,48.5469 207.0625,45.9688 L207.0625,44.8438 C207.0625,42.125 209.0625,40.0469 211.6875,40.0469 C212.5625,40.0469 213.1563,40.1875 214.0938,40.625 Z "/><text fill="#000000" font-family="sans-serif" font-size="12" lengthAdjust="spacingAndGlyphs" textLength="97" x="232.25" y="49.1074">SchrankFactory</text><line style="stroke: #A80036; stroke-width: 1.5;" x1="151.5" x2="377.5" y1="60.9531" y2="60.9531"/><line style="stroke: #A80036; stroke-width: 1.5;" x1="151.5" x2="377.5" y1="68.9531" y2="68.9531"/><ellipse cx="161.5" cy="80.8555" fill="#84BE84" rx="3" ry="3" style="stroke: #038048; stroke-width: 1.0;"/><text fill="#000000" font-family="sans-serif" font-size="11" lengthAdjust="spacingAndGlyphs" textLength="202" x="170.5" y="83.1636">Schrank createSchrank(String type)</text><!--class Schrank--><rect fill="#FEFECE" filter="url(#f1ldxlkjmzhy4k)" height="60.8047" id="Schrank" style="stroke: #A80036; stroke-width: 1.5;" width="143" x="193" y="149.9531"/><ellipse cx="235" cy="165.9531" fill="#ADD1B2" rx="11" ry="11" style="stroke: #A80036; stroke-width: 1.0;"/><path d="M237.3438,161.625 L237.5156,161.7031 C237.7344,161.3906 237.9375,161.2969 238.2344,161.2969 C238.5313,161.2969 238.8125,161.4375 238.9688,161.7031 C239.0625,161.8594 239.0781,161.9844 239.0781,162.4219 L239.0781,163.8438 C239.0781,164.2656 239.0469,164.4531 238.9375,164.6094 C238.7656,164.8281 238.5,164.9688 238.2344,164.9688 C238.0156,164.9688 237.7813,164.8594 237.6406,164.7188 C237.5,164.5938 237.4688,164.4688 237.4063,164.0625 C237.3125,163.6563 237.1406,163.4375 236.6563,163.1563 C236.1875,162.9063 235.5781,162.75 235,162.75 C233.2656,162.75 232.0156,164.0625 232.0156,165.8438 L232.0156,166.9375 C232.0156,168.6406 233.3125,169.7344 235.3594,169.7344 C236.125,169.7344 236.8125,169.6094 237.2344,169.3438 C237.4219,169.25 237.4219,169.25 237.875,168.7656 C238.0625,168.5781 238.2656,168.5 238.4844,168.5 C238.9531,168.5 239.3438,168.8906 239.3438,169.3438 C239.3438,169.7344 239.0156,170.1875 238.4375,170.5938 C237.6875,171.1406 236.5313,171.4375 235.3125,171.4375 C232.4219,171.4375 230.3125,169.5469 230.3125,166.9688 L230.3125,165.8438 C230.3125,163.125 232.3125,161.0469 234.9375,161.0469 C235.8125,161.0469 236.4063,161.1875 237.3438,161.625 Z "/><text fill="#000000" font-family="sans-serif" font-size="12" lengthAdjust="spacingAndGlyphs" textLength="51" x="255" y="170.1074">Schrank</text><line style="stroke: #A80036; stroke-width: 1.5;" x1="194" x2="335" y1="181.9531" y2="181.9531"/><line style="stroke: #A80036; stroke-width: 1.5;" x1="194" x2="335" y1="189.9531" y2="189.9531"/><ellipse cx="204" cy="201.8555" fill="#84BE84" rx="3" ry="3" style="stroke: #038048; stroke-width: 1.0;"/><text fill="#000000" font-family="sans-serif" font-size="11" lengthAdjust="spacingAndGlyphs" textLength="117" x="213" y="204.1636">void oeffneSchrank()</text><!--class WohnzimmerSchrank--><rect fill="#FEFECE" filter="url(#f1ldxlkjmzhy4k)" height="48" id="WohnzimmerSchrank" style="stroke: #A80036; stroke-width: 1.5;" width="161" x="6" y="270.9531"/><ellipse cx="21" cy="286.9531" fill="#ADD1B2" rx="11" ry="11" style="stroke: #A80036; stroke-width: 1.0;"/><path d="M23.3438,282.625 L23.5156,282.7031 C23.7344,282.3906 23.9375,282.2969 24.2344,282.2969 C24.5313,282.2969 24.8125,282.4375 24.9688,282.7031 C25.0625,282.8594 25.0781,282.9844 25.0781,283.4219 L25.0781,284.8438 C25.0781,285.2656 25.0469,285.4531 24.9375,285.6094 C24.7656,285.8281 24.5,285.9688 24.2344,285.9688 C24.0156,285.9688 23.7813,285.8594 23.6406,285.7188 C23.5,285.5938 23.4688,285.4688 23.4063,285.0625 C23.3125,284.6563 23.1406,284.4375 22.6563,284.1563 C22.1875,283.9063 21.5781,283.75 21,283.75 C19.2656,283.75 18.0156,285.0625 18.0156,286.8438 L18.0156,287.9375 C18.0156,289.6406 19.3125,290.7344 21.3594,290.7344 C22.125,290.7344 22.8125,290.6094 23.2344,290.3438 C23.4219,290.25 23.4219,290.25 23.875,289.7656 C24.0625,289.5781 24.2656,289.5 24.4844,289.5 C24.9531,289.5 25.3438,289.8906 25.3438,290.3438 C25.3438,290.7344 25.0156,291.1875 24.4375,291.5938 C23.6875,292.1406 22.5313,292.4375 21.3125,292.4375 C18.4219,292.4375 16.3125,290.5469 16.3125,287.9688 L16.3125,286.8438 C16.3125,284.125 18.3125,282.0469 20.9375,282.0469 C21.8125,282.0469 22.4063,282.1875 23.3438,282.625 Z "/><text fill="#000000" font-family="sans-serif" font-size="12" lengthAdjust="spacingAndGlyphs" textLength="129" x="35" y="291.1074">WohnzimmerSchrank</text><line style="stroke: #A80036; stroke-width: 1.5;" x1="7" x2="166" y1="302.9531" y2="302.9531"/><line style="stroke: #A80036; stroke-width: 1.5;" x1="7" x2="166" y1="310.9531" y2="310.9531"/><!--class KleiderSchrank--><rect fill="#FEFECE" filter="url(#f1ldxlkjmzhy4k)" height="48" id="KleiderSchrank" style="stroke: #A80036; stroke-width: 1.5;" width="125" x="202" y="270.9531"/><ellipse cx="217" cy="286.9531" fill="#ADD1B2" rx="11" ry="11" style="stroke: #A80036; stroke-width: 1.0;"/><path d="M219.3438,282.625 L219.5156,282.7031 C219.7344,282.3906 219.9375,282.2969 220.2344,282.2969 C220.5313,282.2969 220.8125,282.4375 220.9688,282.7031 C221.0625,282.8594 221.0781,282.9844 221.0781,283.4219 L221.0781,284.8438 C221.0781,285.2656 221.0469,285.4531 220.9375,285.6094 C220.7656,285.8281 220.5,285.9688 220.2344,285.9688 C220.0156,285.9688 219.7813,285.8594 219.6406,285.7188 C219.5,285.5938 219.4688,285.4688 219.4063,285.0625 C219.3125,284.6563 219.1406,284.4375 218.6563,284.1563 C218.1875,283.9063 217.5781,283.75 217,283.75 C215.2656,283.75 214.0156,285.0625 214.0156,286.8438 L214.0156,287.9375 C214.0156,289.6406 215.3125,290.7344 217.3594,290.7344 C218.125,290.7344 218.8125,290.6094 219.2344,290.3438 C219.4219,290.25 219.4219,290.25 219.875,289.7656 C220.0625,289.5781 220.2656,289.5 220.4844,289.5 C220.9531,289.5 221.3438,289.8906 221.3438,290.3438 C221.3438,290.7344 221.0156,291.1875 220.4375,291.5938 C219.6875,292.1406 218.5313,292.4375 217.3125,292.4375 C214.4219,292.4375 212.3125,290.5469 212.3125,287.9688 L212.3125,286.8438 C212.3125,284.125 214.3125,282.0469 216.9375,282.0469 C217.8125,282.0469 218.4063,282.1875 219.3438,282.625 Z "/><text fill="#000000" font-family="sans-serif" font-size="12" lengthAdjust="spacingAndGlyphs" textLength="93" x="231" y="291.1074">KleiderSchrank</text><line style="stroke: #A80036; stroke-width: 1.5;" x1="203" x2="326" y1="302.9531" y2="302.9531"/><line style="stroke: #A80036; stroke-width: 1.5;" x1="203" x2="326" y1="310.9531" y2="310.9531"/><!--class KuechenSchrank--><rect fill="#FEFECE" filter="url(#f1ldxlkjmzhy4k)" height="48" id="KuechenSchrank" style="stroke: #A80036; stroke-width: 1.5;" width="137" x="362" y="270.9531"/><ellipse cx="377" cy="286.9531" fill="#ADD1B2" rx="11" ry="11" style="stroke: #A80036; stroke-width: 1.0;"/><path d="M379.3438,282.625 L379.5156,282.7031 C379.7344,282.3906 379.9375,282.2969 380.2344,282.2969 C380.5313,282.2969 380.8125,282.4375 380.9688,282.7031 C381.0625,282.8594 381.0781,282.9844 381.0781,283.4219 L381.0781,284.8438 C381.0781,285.2656 381.0469,285.4531 380.9375,285.6094 C380.7656,285.8281 380.5,285.9688 380.2344,285.9688 C380.0156,285.9688 379.7813,285.8594 379.6406,285.7188 C379.5,285.5938 379.4688,285.4688 379.4063,285.0625 C379.3125,284.6563 379.1406,284.4375 378.6563,284.1563 C378.1875,283.9063 377.5781,283.75 377,283.75 C375.2656,283.75 374.0156,285.0625 374.0156,286.8438 L374.0156,287.9375 C374.0156,289.6406 375.3125,290.7344 377.3594,290.7344 C378.125,290.7344 378.8125,290.6094 379.2344,290.3438 C379.4219,290.25 379.4219,290.25 379.875,289.7656 C380.0625,289.5781 380.2656,289.5 380.4844,289.5 C380.9531,289.5 381.3438,289.8906 381.3438,290.3438 C381.3438,290.7344 381.0156,291.1875 380.4375,291.5938 C379.6875,292.1406 378.5313,292.4375 377.3125,292.4375 C374.4219,292.4375 372.3125,290.5469 372.3125,287.9688 L372.3125,286.8438 C372.3125,284.125 374.3125,282.0469 376.9375,282.0469 C377.8125,282.0469 378.4063,282.1875 379.3438,282.625 Z "/><text fill="#000000" font-family="sans-serif" font-size="12" lengthAdjust="spacingAndGlyphs" textLength="105" x="391" y="291.1074">KuechenSchrank</text><line style="stroke: #A80036; stroke-width: 1.5;" x1="363" x2="498" y1="302.9531" y2="302.9531"/><line style="stroke: #A80036; stroke-width: 1.5;" x1="363" x2="498" y1="310.9531" y2="310.9531"/><!--link SchrankFactory to Schrank--><path d="M264.5,90.1751 C264.5,108.3491 264.5,131.5171 264.5,149.6981 " fill="none" id="SchrankFactory-Schrank" style="stroke: #A80036; stroke-width: 1.0; stroke-dasharray: 7.0,7.0;"/><!--link Schrank to WohnzimmerSchrank--><path d="M200.746,221.7474 C174.69,238.2151 145.487,256.6719 123.129,270.8029 " fill="none" id="Schrank-WohnzimmerSchrank" style="stroke: #A80036; stroke-width: 1.0;"/><polygon fill="none" points="197.086,215.7791,217.733,211.0111,204.566,227.6137,197.086,215.7791" style="stroke: #A80036; stroke-width: 1.0;"/><!--link Schrank to KleiderSchrank--><path d="M264.5,231.0598 C264.5,244.8295 264.5,259.1378 264.5,270.6217 " fill="none" id="Schrank-KleiderSchrank" style="stroke: #A80036; stroke-width: 1.0;"/><polygon fill="none" points="257.5,231.0112,264.5,211.0111,271.5,231.0111,257.5,231.0112" style="stroke: #A80036; stroke-width: 1.0;"/><!--link Schrank to KuechenSchrank--><path d="M325.005,222.4577 C349.036,238.7441 375.789,256.8747 396.341,270.8029 " fill="none" id="Schrank-KuechenSchrank" style="stroke: #A80036; stroke-width: 1.0;"/><polygon fill="none" points="320.744,228.0261,308.115,211.0111,328.598,216.4371,320.744,228.0261" style="stroke: #A80036; stroke-width: 1.0;"/><!--
@startuml
title Factory - Pattern


class SchrankFactory {
  +Schrank createSchrank(String type)
}

class Schrank {
    +void oeffneSchrank()
}

class WohnzimmerSchrank
class KleiderSchrank
class KuechenSchrank

SchrankFactory .. Schrank
Schrank <|- - WohnzimmerSchrank
Schrank <|- - KleiderSchrank
Schrank <|- - KuechenSchrank
@enduml

PlantUML version 1.2019.07beta1(Unknown compile time)
(GPL source distribution)
Java Runtime: Java(TM) SE Runtime Environment
JVM: Java HotSpot(TM) 64-Bit Server VM
Java Version: 1.7.0_25-b15
Operating System: Linux
Default Encoding: UTF-8
Language: en
Country: US
--></g></svg>