<?xml version="1.0" encoding="UTF-8" standalone="no"?>
<svg xmlns="http://www.w3.org/2000/svg" xmlns:xlink="http://www.w3.org/1999/xlink" contentScriptType="application/ecmascript" contentStyleType="text/css" height="126px" preserveAspectRatio="none" style="width:224px;height:126px;" version="1.1" viewBox="0 0 224 126" width="224px" zoomAndPan="magnify"><defs><filter height="300%" id="f8q12g696qa6z" width="300%" x="-1" y="-1"><feGaussianBlur result="blurOut" stdDeviation="2.0"/><feColorMatrix in="blurOut" result="blurOut2" type="matrix" values="0 0 0 0 0 0 0 0 0 0 0 0 0 0 0 0 0 0 .4 0"/><feOffset dx="4.0" dy="4.0" in="blurOut2" result="blurOut3"/><feBlend in="SourceGraphic" in2="blurOut3" mode="normal"/></filter></defs><g><text fill="#000000" font-family="sans-serif" font-size="18" lengthAdjust="spacingAndGlyphs" textLength="167" x="32" y="16.708">Singleton - Pattern</text><!--class Singleton--><rect fill="#FEFECE" filter="url(#f8q12g696qa6z)" height="86.4141" id="Singleton" style="stroke: #A80036; stroke-width: 1.5;" width="207" x="6" y="28.9531"/><ellipse cx="75.75" cy="44.9531" fill="#ADD1B2" rx="11" ry="11" style="stroke: #A80036; stroke-width: 1.0;"/><path d="M78.0938,40.625 L78.2656,40.7031 C78.4844,40.3906 78.6875,40.2969 78.9844,40.2969 C79.2813,40.2969 79.5625,40.4375 79.7188,40.7031 C79.8125,40.8594 79.8281,40.9844 79.8281,41.4219 L79.8281,42.8438 C79.8281,43.2656 79.7969,43.4531 79.6875,43.6094 C79.5156,43.8281 79.25,43.9688 78.9844,43.9688 C78.7656,43.9688 78.5313,43.8594 78.3906,43.7188 C78.25,43.5938 78.2188,43.4688 78.1563,43.0625 C78.0625,42.6563 77.8906,42.4375 77.4063,42.1563 C76.9375,41.9063 76.3281,41.75 75.75,41.75 C74.0156,41.75 72.7656,43.0625 72.7656,44.8438 L72.7656,45.9375 C72.7656,47.6406 74.0625,48.7344 76.1094,48.7344 C76.875,48.7344 77.5625,48.6094 77.9844,48.3438 C78.1719,48.25 78.1719,48.25 78.625,47.7656 C78.8125,47.5781 79.0156,47.5 79.2344,47.5 C79.7031,47.5 80.0938,47.8906 80.0938,48.3438 C80.0938,48.7344 79.7656,49.1875 79.1875,49.5938 C78.4375,50.1406 77.2813,50.4375 76.0625,50.4375 C73.1719,50.4375 71.0625,48.5469 71.0625,45.9688 L71.0625,44.8438 C71.0625,42.125 73.0625,40.0469 75.6875,40.0469 C76.5625,40.0469 77.1563,40.1875 78.0938,40.625 Z "/><text fill="#000000" font-family="sans-serif" font-size="12" lengthAdjust="spacingAndGlyphs" textLength="59" x="96.25" y="49.1074">Singleton</text><line style="stroke: #A80036; stroke-width: 1.5;" x1="7" x2="212" y1="60.9531" y2="60.9531"/><rect fill="none" height="6" style="stroke: #C82930; stroke-width: 1.0;" width="6" x="14" y="69.8555"/><text fill="#000000" font-family="sans-serif" font-size="11" lengthAdjust="spacingAndGlyphs" textLength="181" x="26" y="75.1636">static Singleton instance = null;</text><line style="stroke: #A80036; stroke-width: 1.5;" x1="7" x2="212" y1="81.7578" y2="81.7578"/><rect fill="#F24D5C" height="6" style="stroke: #C82930; stroke-width: 1.0;" width="6" x="14" y="90.6602"/><text fill="#000000" font-family="sans-serif" font-size="11" lengthAdjust="spacingAndGlyphs" textLength="79" x="26" y="95.9683">Singleton() {}</text><ellipse cx="17" cy="106.4648" fill="#84BE84" rx="3" ry="3" style="stroke: #038048; stroke-width: 1.0;"/><text fill="#000000" font-family="sans-serif" font-size="11" lengthAdjust="spacingAndGlyphs" textLength="166" x="26" y="108.7729">static Singleton getInstance()</text><!--
@startuml
title Singleton - Pattern


class Singleton {

  - static Singleton instance = null;

  - Singleton() {}
       
  +static Singleton getInstance()
}
@enduml

PlantUML version 1.2019.07beta1(Unknown compile time)
(GPL source distribution)
Java Runtime: Java(TM) SE Runtime Environment
JVM: Java HotSpot(TM) 64-Bit Server VM
Java Version: 1.7.0_25-b15
Operating System: Linux
Default Encoding: UTF-8
Language: en
Country: US
--></g></svg>