<?xml version="1.0" encoding="UTF-8" standalone="no"?>
<svg xmlns="http://www.w3.org/2000/svg" xmlns:xlink="http://www.w3.org/1999/xlink" contentScriptType="application/ecmascript" contentStyleType="text/css" height="461px" preserveAspectRatio="none" style="width:325px;height:461px;" version="1.1" viewBox="0 0 325 461" width="325px" zoomAndPan="magnify"><defs><filter height="300%" id="f1pj5gkc39svqy" width="300%" x="-1" y="-1"><feGaussianBlur result="blurOut" stdDeviation="2.0"/><feColorMatrix in="blurOut" result="blurOut2" type="matrix" values="0 0 0 0 0 0 0 0 0 0 0 0 0 0 0 0 0 0 .4 0"/><feOffset dx="4.0" dy="4.0" in="blurOut2" result="blurOut3"/><feBlend in="SourceGraphic" in2="blurOut3" mode="normal"/></filter></defs><g><!--class Fuhrpark--><rect fill="#FEFECE" filter="url(#f1pj5gkc39svqy)" height="60.8047" id="Fuhrpark" style="stroke: #A80036; stroke-width: 1.5;" width="136" x="114.5" y="8"/><ellipse cx="151.1" cy="24" fill="#ADD1B2" rx="11" ry="11" style="stroke: #A80036; stroke-width: 1.0;"/><path d="M153.4438,19.6719 L153.6156,19.75 C153.8344,19.4375 154.0375,19.3438 154.3344,19.3438 C154.6313,19.3438 154.9125,19.4844 155.0688,19.75 C155.1625,19.9063 155.1781,20.0313 155.1781,20.4688 L155.1781,21.8906 C155.1781,22.3125 155.1469,22.5 155.0375,22.6563 C154.8656,22.875 154.6,23.0156 154.3344,23.0156 C154.1156,23.0156 153.8813,22.9063 153.7406,22.7656 C153.6,22.6406 153.5688,22.5156 153.5063,22.1094 C153.4125,21.7031 153.2406,21.4844 152.7563,21.2031 C152.2875,20.9531 151.6781,20.7969 151.1,20.7969 C149.3656,20.7969 148.1156,22.1094 148.1156,23.8906 L148.1156,24.9844 C148.1156,26.6875 149.4125,27.7813 151.4594,27.7813 C152.225,27.7813 152.9125,27.6563 153.3344,27.3906 C153.5219,27.2969 153.5219,27.2969 153.975,26.8125 C154.1625,26.625 154.3656,26.5469 154.5844,26.5469 C155.0531,26.5469 155.4438,26.9375 155.4438,27.3906 C155.4438,27.7813 155.1156,28.2344 154.5375,28.6406 C153.7875,29.1875 152.6313,29.4844 151.4125,29.4844 C148.5219,29.4844 146.4125,27.5938 146.4125,25.0156 L146.4125,23.8906 C146.4125,21.1719 148.4125,19.0938 151.0375,19.0938 C151.9125,19.0938 152.5063,19.2344 153.4438,19.6719 Z "/><text fill="#000000" font-family="sans-serif" font-size="12" lengthAdjust="spacingAndGlyphs" textLength="56" x="169.9" y="28.1543">Fuhrpark</text><line style="stroke: #A80036; stroke-width: 1.5;" x1="115.5" x2="249.5" y1="40" y2="40"/><line style="stroke: #A80036; stroke-width: 1.5;" x1="115.5" x2="249.5" y1="48" y2="48"/><ellipse cx="125.5" cy="59.9023" fill="#84BE84" rx="3" ry="3" style="stroke: #038048; stroke-width: 1.0;"/><text fill="#000000" font-family="sans-serif" font-size="11" lengthAdjust="spacingAndGlyphs" textLength="110" x="134.5" y="62.2104">getGesamtKosten()</text><!--class Fahrzeug--><rect fill="#FEFECE" filter="url(#f1pj5gkc39svqy)" height="73.6094" id="Fahrzeug" style="stroke: #A80036; stroke-width: 1.5;" width="99" x="128" y="255"/><ellipse cx="147.05" cy="271" fill="#A9DCDF" rx="11" ry="11" style="stroke: #A80036; stroke-width: 1.0;"/><path d="M148.6281,272.8125 L144.5813,272.8125 L144.1906,273.7969 L144.5813,273.7969 C145.0344,273.7969 145.175,273.8281 145.3469,273.9531 C145.5656,274.125 145.6906,274.375 145.6906,274.6563 C145.6906,274.9375 145.55,275.2344 145.2844,275.375 C145.1594,275.4688 144.9406,275.5 144.5813,275.5 L142.3156,275.5 C141.5656,275.5 141.1906,275.2188 141.1906,274.6563 C141.1906,274.3594 141.3469,274.0781 141.5969,273.9219 C141.7531,273.8125 141.9094,273.7969 142.3313,273.7969 L144.9719,267.2813 L143.8938,267.2813 C143.4563,267.2813 143.2844,267.25 143.1125,267.1406 C142.8938,266.9688 142.7531,266.7188 142.7531,266.4375 C142.7531,266.1563 142.9094,265.875 143.1594,265.7031 C143.3156,265.6094 143.4406,265.5938 143.8938,265.5938 L147.5656,265.5938 L150.9563,273.7969 C151.425,273.7969 151.5813,273.8281 151.7531,273.9688 C151.9719,274.125 152.1125,274.375 152.1125,274.6563 C152.1125,274.9375 151.9563,275.2344 151.7063,275.375 C151.5656,275.4688 151.3469,275.5 150.9875,275.5 L148.6281,275.5 C148.2063,275.5 148.0031,275.4531 147.8625,275.3281 C147.6438,275.1719 147.5031,274.9219 147.5031,274.6563 C147.5031,274.3594 147.6594,274.0781 147.9094,273.9219 C148.0656,273.8125 148.175,273.7969 148.6281,273.7969 L149.0188,273.7969 Z M147.925,271.1094 L146.5969,267.8438 L145.2531,271.1094 Z "/><text fill="#000000" font-family="sans-serif" font-size="12" font-style="italic" lengthAdjust="spacingAndGlyphs" textLength="58" x="161.95" y="275.1543">Fahrzeug</text><line style="stroke: #A80036; stroke-width: 1.5;" x1="129" x2="226" y1="287" y2="287"/><line style="stroke: #A80036; stroke-width: 1.5;" x1="129" x2="226" y1="295" y2="295"/><ellipse cx="139" cy="306.9023" fill="#84BE84" rx="3" ry="3" style="stroke: #038048; stroke-width: 1.0;"/><text fill="#000000" font-family="sans-serif" font-size="11" lengthAdjust="spacingAndGlyphs" textLength="73" x="148" y="309.2104">getKilomter()</text><ellipse cx="139" cy="319.707" fill="#84BE84" rx="3" ry="3" style="stroke: #038048; stroke-width: 1.0;"/><text fill="#000000" font-family="sans-serif" font-size="11" lengthAdjust="spacingAndGlyphs" textLength="65" x="148" y="322.0151">getKosten()</text><!--class Auto--><rect fill="#FEFECE" filter="url(#f1pj5gkc39svqy)" height="60.8047" id="Auto" style="stroke: #A80036; stroke-width: 1.5;" width="91" x="6" y="390"/><ellipse cx="34.5" cy="406" fill="#ADD1B2" rx="11" ry="11" style="stroke: #A80036; stroke-width: 1.0;"/><path d="M36.8438,401.6719 L37.0156,401.75 C37.2344,401.4375 37.4375,401.3438 37.7344,401.3438 C38.0313,401.3438 38.3125,401.4844 38.4688,401.75 C38.5625,401.9063 38.5781,402.0313 38.5781,402.4688 L38.5781,403.8906 C38.5781,404.3125 38.5469,404.5 38.4375,404.6563 C38.2656,404.875 38,405.0156 37.7344,405.0156 C37.5156,405.0156 37.2813,404.9063 37.1406,404.7656 C37,404.6406 36.9688,404.5156 36.9063,404.1094 C36.8125,403.7031 36.6406,403.4844 36.1563,403.2031 C35.6875,402.9531 35.0781,402.7969 34.5,402.7969 C32.7656,402.7969 31.5156,404.1094 31.5156,405.8906 L31.5156,406.9844 C31.5156,408.6875 32.8125,409.7813 34.8594,409.7813 C35.625,409.7813 36.3125,409.6563 36.7344,409.3906 C36.9219,409.2969 36.9219,409.2969 37.375,408.8125 C37.5625,408.625 37.7656,408.5469 37.9844,408.5469 C38.4531,408.5469 38.8438,408.9375 38.8438,409.3906 C38.8438,409.7813 38.5156,410.2344 37.9375,410.6406 C37.1875,411.1875 36.0313,411.4844 34.8125,411.4844 C31.9219,411.4844 29.8125,409.5938 29.8125,407.0156 L29.8125,405.8906 C29.8125,403.1719 31.8125,401.0938 34.4375,401.0938 C35.3125,401.0938 35.9063,401.2344 36.8438,401.6719 Z "/><text fill="#000000" font-family="sans-serif" font-size="12" lengthAdjust="spacingAndGlyphs" textLength="29" x="51.5" y="410.1543">Auto</text><line style="stroke: #A80036; stroke-width: 1.5;" x1="7" x2="96" y1="422" y2="422"/><line style="stroke: #A80036; stroke-width: 1.5;" x1="7" x2="96" y1="430" y2="430"/><ellipse cx="17" cy="441.9023" fill="#84BE84" rx="3" ry="3" style="stroke: #038048; stroke-width: 1.0;"/><text fill="#000000" font-family="sans-serif" font-size="11" lengthAdjust="spacingAndGlyphs" textLength="65" x="26" y="444.2104">getKosten()</text><!--class Fahrrad--><rect fill="#FEFECE" filter="url(#f1pj5gkc39svqy)" height="60.8047" id="Fahrrad" style="stroke: #A80036; stroke-width: 1.5;" width="91" x="132" y="390"/><ellipse cx="151.5" cy="406" fill="#ADD1B2" rx="11" ry="11" style="stroke: #A80036; stroke-width: 1.0;"/><path d="M153.8438,401.6719 L154.0156,401.75 C154.2344,401.4375 154.4375,401.3438 154.7344,401.3438 C155.0313,401.3438 155.3125,401.4844 155.4688,401.75 C155.5625,401.9063 155.5781,402.0313 155.5781,402.4688 L155.5781,403.8906 C155.5781,404.3125 155.5469,404.5 155.4375,404.6563 C155.2656,404.875 155,405.0156 154.7344,405.0156 C154.5156,405.0156 154.2813,404.9063 154.1406,404.7656 C154,404.6406 153.9688,404.5156 153.9063,404.1094 C153.8125,403.7031 153.6406,403.4844 153.1563,403.2031 C152.6875,402.9531 152.0781,402.7969 151.5,402.7969 C149.7656,402.7969 148.5156,404.1094 148.5156,405.8906 L148.5156,406.9844 C148.5156,408.6875 149.8125,409.7813 151.8594,409.7813 C152.625,409.7813 153.3125,409.6563 153.7344,409.3906 C153.9219,409.2969 153.9219,409.2969 154.375,408.8125 C154.5625,408.625 154.7656,408.5469 154.9844,408.5469 C155.4531,408.5469 155.8438,408.9375 155.8438,409.3906 C155.8438,409.7813 155.5156,410.2344 154.9375,410.6406 C154.1875,411.1875 153.0313,411.4844 151.8125,411.4844 C148.9219,411.4844 146.8125,409.5938 146.8125,407.0156 L146.8125,405.8906 C146.8125,403.1719 148.8125,401.0938 151.4375,401.0938 C152.3125,401.0938 152.9063,401.2344 153.8438,401.6719 Z "/><text fill="#000000" font-family="sans-serif" font-size="12" lengthAdjust="spacingAndGlyphs" textLength="49" x="166.5" y="410.1543">Fahrrad</text><line style="stroke: #A80036; stroke-width: 1.5;" x1="133" x2="222" y1="422" y2="422"/><line style="stroke: #A80036; stroke-width: 1.5;" x1="133" x2="222" y1="430" y2="430"/><ellipse cx="143" cy="441.9023" fill="#84BE84" rx="3" ry="3" style="stroke: #038048; stroke-width: 1.0;"/><text fill="#000000" font-family="sans-serif" font-size="11" lengthAdjust="spacingAndGlyphs" textLength="65" x="152" y="444.2104">getKosten()</text><!--class Fahrer--><rect fill="#FEFECE" filter="url(#f1pj5gkc39svqy)" height="48" id="Fahrer" style="stroke: #A80036; stroke-width: 1.5;" width="73" x="235" y="146"/><ellipse cx="250" cy="162" fill="#ADD1B2" rx="11" ry="11" style="stroke: #A80036; stroke-width: 1.0;"/><path d="M252.3438,157.6719 L252.5156,157.75 C252.7344,157.4375 252.9375,157.3438 253.2344,157.3438 C253.5313,157.3438 253.8125,157.4844 253.9688,157.75 C254.0625,157.9063 254.0781,158.0313 254.0781,158.4688 L254.0781,159.8906 C254.0781,160.3125 254.0469,160.5 253.9375,160.6563 C253.7656,160.875 253.5,161.0156 253.2344,161.0156 C253.0156,161.0156 252.7813,160.9063 252.6406,160.7656 C252.5,160.6406 252.4688,160.5156 252.4063,160.1094 C252.3125,159.7031 252.1406,159.4844 251.6563,159.2031 C251.1875,158.9531 250.5781,158.7969 250,158.7969 C248.2656,158.7969 247.0156,160.1094 247.0156,161.8906 L247.0156,162.9844 C247.0156,164.6875 248.3125,165.7813 250.3594,165.7813 C251.125,165.7813 251.8125,165.6563 252.2344,165.3906 C252.4219,165.2969 252.4219,165.2969 252.875,164.8125 C253.0625,164.625 253.2656,164.5469 253.4844,164.5469 C253.9531,164.5469 254.3438,164.9375 254.3438,165.3906 C254.3438,165.7813 254.0156,166.2344 253.4375,166.6406 C252.6875,167.1875 251.5313,167.4844 250.3125,167.4844 C247.4219,167.4844 245.3125,165.5938 245.3125,163.0156 L245.3125,161.8906 C245.3125,159.1719 247.3125,157.0938 249.9375,157.0938 C250.8125,157.0938 251.4063,157.2344 252.3438,157.6719 Z "/><text fill="#000000" font-family="sans-serif" font-size="12" lengthAdjust="spacingAndGlyphs" textLength="41" x="264" y="166.1543">Fahrer</text><line style="stroke: #A80036; stroke-width: 1.5;" x1="236" x2="307" y1="178" y2="178"/><line style="stroke: #A80036; stroke-width: 1.5;" x1="236" x2="307" y1="186" y2="186"/><!--class Rad--><rect fill="#FEFECE" filter="url(#f1pj5gkc39svqy)" height="48" id="Rad" style="stroke: #A80036; stroke-width: 1.5;" width="56" x="258.5" y="396.5"/><ellipse cx="273.5" cy="412.5" fill="#ADD1B2" rx="11" ry="11" style="stroke: #A80036; stroke-width: 1.0;"/><path d="M275.8438,408.1719 L276.0156,408.25 C276.2344,407.9375 276.4375,407.8438 276.7344,407.8438 C277.0313,407.8438 277.3125,407.9844 277.4688,408.25 C277.5625,408.4063 277.5781,408.5313 277.5781,408.9688 L277.5781,410.3906 C277.5781,410.8125 277.5469,411 277.4375,411.1563 C277.2656,411.375 277,411.5156 276.7344,411.5156 C276.5156,411.5156 276.2813,411.4063 276.1406,411.2656 C276,411.1406 275.9688,411.0156 275.9063,410.6094 C275.8125,410.2031 275.6406,409.9844 275.1563,409.7031 C274.6875,409.4531 274.0781,409.2969 273.5,409.2969 C271.7656,409.2969 270.5156,410.6094 270.5156,412.3906 L270.5156,413.4844 C270.5156,415.1875 271.8125,416.2813 273.8594,416.2813 C274.625,416.2813 275.3125,416.1563 275.7344,415.8906 C275.9219,415.7969 275.9219,415.7969 276.375,415.3125 C276.5625,415.125 276.7656,415.0469 276.9844,415.0469 C277.4531,415.0469 277.8438,415.4375 277.8438,415.8906 C277.8438,416.2813 277.5156,416.7344 276.9375,417.1406 C276.1875,417.6875 275.0313,417.9844 273.8125,417.9844 C270.9219,417.9844 268.8125,416.0938 268.8125,413.5156 L268.8125,412.3906 C268.8125,409.6719 270.8125,407.5938 273.4375,407.5938 C274.3125,407.5938 274.9063,407.7344 275.8438,408.1719 Z "/><text fill="#000000" font-family="sans-serif" font-size="12" lengthAdjust="spacingAndGlyphs" textLength="24" x="287.5" y="416.6543">Rad</text><line style="stroke: #A80036; stroke-width: 1.5;" x1="259.5" x2="313.5" y1="428.5" y2="428.5"/><line style="stroke: #A80036; stroke-width: 1.5;" x1="259.5" x2="313.5" y1="436.5" y2="436.5"/><!--link Fuhrpark to Fahrzeug--><path d="M171.361,69.297 C164.093,90.38 155.278,119.501 151.5,146 C148.489,167.12 148.715,172.849 151.5,194 C153.934,212.485 158.872,232.452 163.796,249.438 " fill="none" id="Fuhrpark-Fahrzeug" style="stroke: #A80036; stroke-width: 1.0;"/><polygon fill="#A80036" points="165.321,254.609,166.6092,244.8448,163.9054,249.8136,158.9365,247.1098,165.321,254.609" style="stroke: #A80036; stroke-width: 1.0;"/><text fill="#000000" font-family="sans-serif" font-size="13" lengthAdjust="spacingAndGlyphs" textLength="64" x="152.5" y="174.5669">fahrzeuge</text><text fill="#000000" font-family="sans-serif" font-size="13" lengthAdjust="spacingAndGlyphs" textLength="7" x="155.6262" y="244.0052">*</text><!--link Fuhrpark to Fahrer--><path d="M202.918,69.21 C217.929,91.052 238.172,120.506 252.77,141.747 " fill="none" id="Fuhrpark-Fahrer" style="stroke: #A80036; stroke-width: 1.0;"/><polygon fill="#A80036" points="255.611,145.881,253.8101,136.1982,252.7791,141.7603,247.217,140.7293,255.611,145.881" style="stroke: #A80036; stroke-width: 1.0;"/><text fill="#000000" font-family="sans-serif" font-size="13" lengthAdjust="spacingAndGlyphs" textLength="38" x="236.5" y="112.0669">fahrer</text><text fill="#000000" font-family="sans-serif" font-size="13" lengthAdjust="spacingAndGlyphs" textLength="7" x="243.6426" y="134.8625">*</text><!--link Fahrzeug to Auto--><path d="M126.969,343.731 C111.453,359.3086 94.8866,375.9412 81.2393,389.6427 " fill="none" id="Fahrzeug-Auto" style="stroke: #A80036; stroke-width: 1.0;"/><polygon fill="none" points="122.32,338.48,141.393,329.25,132.239,348.36,122.32,338.48" style="stroke: #A80036; stroke-width: 1.0;"/><!--link Fahrzeug to Fahrrad--><path d="M177.5,349.553 C177.5,363.379 177.5,377.6362 177.5,389.6427 " fill="none" id="Fahrzeug-Fahrrad" style="stroke: #A80036; stroke-width: 1.0;"/><polygon fill="none" points="170.5,349.25,177.5,329.25,184.5,349.25,170.5,349.25" style="stroke: #A80036; stroke-width: 1.0;"/><!--link Fahrzeug to Rad--><path d="M217.285,339.172 C234.056,358.636 252.837,380.432 266.599,396.4037 " fill="none" id="Fahrzeug-Rad" style="stroke: #A80036; stroke-width: 1.0;"/><polygon fill="#A80036" points="208.735,329.25,209.6211,336.4064,216.5679,338.3409,215.6818,331.1845,208.735,329.25" style="stroke: #A80036; stroke-width: 1.0;"/><text fill="#000000" font-family="sans-serif" font-size="13" lengthAdjust="spacingAndGlyphs" textLength="7" x="253.6025" y="385.3911">*</text><!--link Fahrer to Fahrzeug--><path d="M245.326,204.414 C233.072,220.057 218.451,238.723 205.926,254.711 " fill="none" id="Fahrer-Fahrzeug" style="stroke: #A80036; stroke-width: 1.0;"/><polygon fill="#FFFFFF" points="253.376,194.137,246.5271,196.3936,245.9759,203.5836,252.8248,201.327,253.376,194.137" style="stroke: #A80036; stroke-width: 1.0;"/><text fill="#000000" font-family="sans-serif" font-size="13" lengthAdjust="spacingAndGlyphs" textLength="8" x="202.2769" y="243.8465">1</text><!--
@startuml
class Fuhrpark {
+ getGesamtKosten()
}

abstract class  Fahrzeug {
+ getKilomter()
 +  getKosten()
}

class Auto {
+getKosten()
}

class Fahrrad {
+getKosten()
}

Fuhrpark - ->"*" Fahrzeug:fahrzeuge

Fuhrpark - ->"*" Fahrer:fahrer

Fahrzeug <|- - Auto
Fahrzeug <|- - Fahrrad

Fahrzeug *- -"*" Rad

Fahrer o- -"1" Fahrzeug
@enduml

PlantUML version 1.2019.07(Mon Jun 24 19:59:20 UTC 2019)
(GPL source distribution)
Java Runtime: Java(TM) SE Runtime Environment
JVM: Java HotSpot(TM) 64-Bit Server VM
Java Version: 1.7.0_25-b15
Operating System: Linux
Default Encoding: UTF-8
Language: en
Country: US
--></g></svg>