<?xml version="1.0" encoding="UTF-8" standalone="no"?><svg xmlns="http://www.w3.org/2000/svg" xmlns:xlink="http://www.w3.org/1999/xlink" contentScriptType="application/ecmascript" contentStyleType="text/css" height="614px" preserveAspectRatio="none" style="width:757px;height:614px;" version="1.1" viewBox="0 0 757 614" width="757px" zoomAndPan="magnify"><defs><filter height="300%" id="f1vs5yezzca7p5" width="300%" x="-1" y="-1"><feGaussianBlur result="blurOut" stdDeviation="2.0"/><feColorMatrix in="blurOut" result="blurOut2" type="matrix" values="0 0 0 0 0 0 0 0 0 0 0 0 0 0 0 0 0 0 .4 0"/><feOffset dx="4.0" dy="4.0" in="blurOut2" result="blurOut3"/><feBlend in="SourceGraphic" in2="blurOut3" mode="normal"/></filter></defs><g><line style="stroke: #A80036; stroke-width: 1.0; stroke-dasharray: 5.0,5.0;" x1="26" x2="26" y1="86.4883" y2="526.8359"/><line style="stroke: #A80036; stroke-width: 1.0; stroke-dasharray: 5.0,5.0;" x1="122" x2="122" y1="86.4883" y2="526.8359"/><line style="stroke: #A80036; stroke-width: 1.0; stroke-dasharray: 5.0,5.0;" x1="218" x2="218" y1="86.4883" y2="526.8359"/><line style="stroke: #A80036; stroke-width: 1.0; stroke-dasharray: 5.0,5.0;" x1="306" x2="306" y1="86.4883" y2="526.8359"/><line style="stroke: #A80036; stroke-width: 1.0; stroke-dasharray: 5.0,5.0;" x1="394" x2="394" y1="86.4883" y2="526.8359"/><line style="stroke: #A80036; stroke-width: 1.0; stroke-dasharray: 5.0,5.0;" x1="474" x2="474" y1="86.4883" y2="526.8359"/><line style="stroke: #A80036; stroke-width: 1.0; stroke-dasharray: 5.0,5.0;" x1="554" x2="554" y1="86.4883" y2="526.8359"/><line style="stroke: #A80036; stroke-width: 1.0; stroke-dasharray: 5.0,5.0;" x1="634" x2="634" y1="86.4883" y2="526.8359"/><text fill="#000000" font-family="sans-serif" font-size="14" lengthAdjust="spacingAndGlyphs" textLength="31" x="8" y="83.5352">User</text><ellipse cx="26.5" cy="13" fill="#FEFECE" filter="url(#f1vs5yezzca7p5)" rx="8" ry="8" style="stroke: #A80036; stroke-width: 2.0;"/><path d="M26.5,21 L26.5,48 M13.5,29 L39.5,29 M26.5,48 L13.5,63 M26.5,48 L39.5,63 " fill="#FEFECE" filter="url(#f1vs5yezzca7p5)" style="stroke: #A80036; stroke-width: 2.0;"/><text fill="#000000" font-family="sans-serif" font-size="14" lengthAdjust="spacingAndGlyphs" textLength="31" x="8" y="539.3711">User</text><ellipse cx="26.5" cy="552.3242" fill="#FEFECE" filter="url(#f1vs5yezzca7p5)" rx="8" ry="8" style="stroke: #A80036; stroke-width: 2.0;"/><path d="M26.5,560.3242 L26.5,587.3242 M13.5,568.3242 L39.5,568.3242 M26.5,587.3242 L13.5,602.3242 M26.5,587.3242 L39.5,602.3242 " fill="#FEFECE" filter="url(#f1vs5yezzca7p5)" style="stroke: #A80036; stroke-width: 2.0;"/><rect fill="#FEFECE" filter="url(#f1vs5yezzca7p5)" height="46.9766" style="stroke: #A80036; stroke-width: 1.5;" width="61" x="90" y="34.5117"/><text fill="#000000" font-family="sans-serif" font-size="14" lengthAdjust="spacingAndGlyphs" textLength="27" x="107" y="55.0469">ggT</text><text fill="#000000" font-family="sans-serif" font-size="14" lengthAdjust="spacingAndGlyphs" textLength="47" x="97" y="71.5352">Tiefe 1</text><rect fill="#FEFECE" filter="url(#f1vs5yezzca7p5)" height="46.9766" style="stroke: #A80036; stroke-width: 1.5;" width="61" x="90" y="525.8359"/><text fill="#000000" font-family="sans-serif" font-size="14" lengthAdjust="spacingAndGlyphs" textLength="27" x="107" y="546.3711">ggT</text><text fill="#000000" font-family="sans-serif" font-size="14" lengthAdjust="spacingAndGlyphs" textLength="47" x="97" y="562.8594">Tiefe 1</text><rect fill="#FEFECE" filter="url(#f1vs5yezzca7p5)" height="46.9766" style="stroke: #A80036; stroke-width: 1.5;" width="61" x="186" y="34.5117"/><text fill="#000000" font-family="sans-serif" font-size="14" lengthAdjust="spacingAndGlyphs" textLength="27" x="203" y="55.0469">ggT</text><text fill="#000000" font-family="sans-serif" font-size="14" lengthAdjust="spacingAndGlyphs" textLength="47" x="193" y="71.5352">Tiefe 2</text><rect fill="#FEFECE" filter="url(#f1vs5yezzca7p5)" height="46.9766" style="stroke: #A80036; stroke-width: 1.5;" width="61" x="186" y="525.8359"/><text fill="#000000" font-family="sans-serif" font-size="14" lengthAdjust="spacingAndGlyphs" textLength="27" x="203" y="546.3711">ggT</text><text fill="#000000" font-family="sans-serif" font-size="14" lengthAdjust="spacingAndGlyphs" textLength="47" x="193" y="562.8594">Tiefe 2</text><rect fill="#FEFECE" filter="url(#f1vs5yezzca7p5)" height="46.9766" style="stroke: #A80036; stroke-width: 1.5;" width="61" x="274" y="34.5117"/><text fill="#000000" font-family="sans-serif" font-size="14" lengthAdjust="spacingAndGlyphs" textLength="27" x="291" y="55.0469">ggT</text><text fill="#000000" font-family="sans-serif" font-size="14" lengthAdjust="spacingAndGlyphs" textLength="47" x="281" y="71.5352">Tiefe 3</text><rect fill="#FEFECE" filter="url(#f1vs5yezzca7p5)" height="46.9766" style="stroke: #A80036; stroke-width: 1.5;" width="61" x="274" y="525.8359"/><text fill="#000000" font-family="sans-serif" font-size="14" lengthAdjust="spacingAndGlyphs" textLength="27" x="291" y="546.3711">ggT</text><text fill="#000000" font-family="sans-serif" font-size="14" lengthAdjust="spacingAndGlyphs" textLength="47" x="281" y="562.8594">Tiefe 3</text><rect fill="#FEFECE" filter="url(#f1vs5yezzca7p5)" height="46.9766" style="stroke: #A80036; stroke-width: 1.5;" width="61" x="362" y="34.5117"/><text fill="#000000" font-family="sans-serif" font-size="14" lengthAdjust="spacingAndGlyphs" textLength="27" x="379" y="55.0469">ggT</text><text fill="#000000" font-family="sans-serif" font-size="14" lengthAdjust="spacingAndGlyphs" textLength="47" x="369" y="71.5352">Tiefe 4</text><rect fill="#FEFECE" filter="url(#f1vs5yezzca7p5)" height="46.9766" style="stroke: #A80036; stroke-width: 1.5;" width="61" x="362" y="525.8359"/><text fill="#000000" font-family="sans-serif" font-size="14" lengthAdjust="spacingAndGlyphs" textLength="27" x="379" y="546.3711">ggT</text><text fill="#000000" font-family="sans-serif" font-size="14" lengthAdjust="spacingAndGlyphs" textLength="47" x="369" y="562.8594">Tiefe 4</text><rect fill="#FEFECE" filter="url(#f1vs5yezzca7p5)" height="46.9766" style="stroke: #A80036; stroke-width: 1.5;" width="61" x="442" y="34.5117"/><text fill="#000000" font-family="sans-serif" font-size="14" lengthAdjust="spacingAndGlyphs" textLength="27" x="459" y="55.0469">ggT</text><text fill="#000000" font-family="sans-serif" font-size="14" lengthAdjust="spacingAndGlyphs" textLength="47" x="449" y="71.5352">Tiefe 5</text><rect fill="#FEFECE" filter="url(#f1vs5yezzca7p5)" height="46.9766" style="stroke: #A80036; stroke-width: 1.5;" width="61" x="442" y="525.8359"/><text fill="#000000" font-family="sans-serif" font-size="14" lengthAdjust="spacingAndGlyphs" textLength="27" x="459" y="546.3711">ggT</text><text fill="#000000" font-family="sans-serif" font-size="14" lengthAdjust="spacingAndGlyphs" textLength="47" x="449" y="562.8594">Tiefe 5</text><rect fill="#FEFECE" filter="url(#f1vs5yezzca7p5)" height="46.9766" style="stroke: #A80036; stroke-width: 1.5;" width="61" x="522" y="34.5117"/><text fill="#000000" font-family="sans-serif" font-size="14" lengthAdjust="spacingAndGlyphs" textLength="27" x="539" y="55.0469">ggT</text><text fill="#000000" font-family="sans-serif" font-size="14" lengthAdjust="spacingAndGlyphs" textLength="47" x="529" y="71.5352">Tiefe 6</text><rect fill="#FEFECE" filter="url(#f1vs5yezzca7p5)" height="46.9766" style="stroke: #A80036; stroke-width: 1.5;" width="61" x="522" y="525.8359"/><text fill="#000000" font-family="sans-serif" font-size="14" lengthAdjust="spacingAndGlyphs" textLength="27" x="539" y="546.3711">ggT</text><text fill="#000000" font-family="sans-serif" font-size="14" lengthAdjust="spacingAndGlyphs" textLength="47" x="529" y="562.8594">Tiefe 6</text><rect fill="#FEFECE" filter="url(#f1vs5yezzca7p5)" height="46.9766" style="stroke: #A80036; stroke-width: 1.5;" width="61" x="602" y="34.5117"/><text fill="#000000" font-family="sans-serif" font-size="14" lengthAdjust="spacingAndGlyphs" textLength="27" x="619" y="55.0469">ggT</text><text fill="#000000" font-family="sans-serif" font-size="14" lengthAdjust="spacingAndGlyphs" textLength="47" x="609" y="71.5352">Tiefe 7</text><rect fill="#FEFECE" filter="url(#f1vs5yezzca7p5)" height="46.9766" style="stroke: #A80036; stroke-width: 1.5;" width="61" x="602" y="525.8359"/><text fill="#000000" font-family="sans-serif" font-size="14" lengthAdjust="spacingAndGlyphs" textLength="27" x="619" y="546.3711">ggT</text><text fill="#000000" font-family="sans-serif" font-size="14" lengthAdjust="spacingAndGlyphs" textLength="47" x="609" y="562.8594">Tiefe 7</text><polygon fill="#A80036" points="110.5,113.4883,120.5,117.4883,110.5,121.4883,114.5,117.4883" style="stroke: #A80036; stroke-width: 1.0;"/><line style="stroke: #A80036; stroke-width: 1.0; stroke-dasharray: 2.0,2.0;" x1="26.5" x2="116.5" y1="117.4883" y2="117.4883"/><text fill="#000000" font-family="sans-serif" font-size="13" lengthAdjust="spacingAndGlyphs" textLength="72" x="33.5" y="113.0566">ggT(16, 38)</text><polygon fill="#A80036" points="206.5,142.7988,216.5,146.7988,206.5,150.7988,210.5,146.7988" style="stroke: #A80036; stroke-width: 1.0;"/><line style="stroke: #A80036; stroke-width: 1.0; stroke-dasharray: 2.0,2.0;" x1="122.5" x2="212.5" y1="146.7988" y2="146.7988"/><text fill="#000000" font-family="sans-serif" font-size="13" lengthAdjust="spacingAndGlyphs" textLength="72" x="129.5" y="142.3672">ggT(16, 22)</text><polygon fill="#A80036" points="294.5,172.1094,304.5,176.1094,294.5,180.1094,298.5,176.1094" style="stroke: #A80036; stroke-width: 1.0;"/><line style="stroke: #A80036; stroke-width: 1.0; stroke-dasharray: 2.0,2.0;" x1="218.5" x2="300.5" y1="176.1094" y2="176.1094"/><text fill="#000000" font-family="sans-serif" font-size="13" lengthAdjust="spacingAndGlyphs" textLength="64" x="225.5" y="171.6777">ggT(16, 6)</text><polygon fill="#A80036" points="382.5,201.4199,392.5,205.4199,382.5,209.4199,386.5,205.4199" style="stroke: #A80036; stroke-width: 1.0;"/><line style="stroke: #A80036; stroke-width: 1.0; stroke-dasharray: 2.0,2.0;" x1="306.5" x2="388.5" y1="205.4199" y2="205.4199"/><text fill="#000000" font-family="sans-serif" font-size="13" lengthAdjust="spacingAndGlyphs" textLength="64" x="313.5" y="200.9883">ggT(10, 6)</text><polygon fill="#A80036" points="462.5,230.7305,472.5,234.7305,462.5,238.7305,466.5,234.7305" style="stroke: #A80036; stroke-width: 1.0;"/><line style="stroke: #A80036; stroke-width: 1.0; stroke-dasharray: 2.0,2.0;" x1="394.5" x2="468.5" y1="234.7305" y2="234.7305"/><text fill="#000000" font-family="sans-serif" font-size="13" lengthAdjust="spacingAndGlyphs" textLength="56" x="401.5" y="230.2988">ggT(4, 6)</text><polygon fill="#A80036" points="542.5,260.041,552.5,264.041,542.5,268.041,546.5,264.041" style="stroke: #A80036; stroke-width: 1.0;"/><line style="stroke: #A80036; stroke-width: 1.0; stroke-dasharray: 2.0,2.0;" x1="474.5" x2="548.5" y1="264.041" y2="264.041"/><text fill="#000000" font-family="sans-serif" font-size="13" lengthAdjust="spacingAndGlyphs" textLength="56" x="481.5" y="259.6094">ggT(4, 2)</text><polygon fill="#A80036" points="622.5,289.3516,632.5,293.3516,622.5,297.3516,626.5,293.3516" style="stroke: #A80036; stroke-width: 1.0;"/><line style="stroke: #A80036; stroke-width: 1.0; stroke-dasharray: 2.0,2.0;" x1="554.5" x2="628.5" y1="293.3516" y2="293.3516"/><text fill="#000000" font-family="sans-serif" font-size="13" lengthAdjust="spacingAndGlyphs" textLength="56" x="561.5" y="288.9199">ggT(2, 2)</text><polygon fill="#A80036" points="565.5,323.6621,555.5,327.6621,565.5,331.6621,561.5,327.6621" style="stroke: #A80036; stroke-width: 1.0;"/><line style="stroke: #A80036; stroke-width: 1.0; stroke-dasharray: 2.0,2.0;" x1="559.5" x2="633.5" y1="327.6621" y2="327.6621"/><text fill="#000000" font-family="sans-serif" font-size="13" lengthAdjust="spacingAndGlyphs" textLength="50" x="571.5" y="323.2305">return 2</text><polygon fill="#FBFB77" filter="url(#f1vs5yezzca7p5)" points="639,306.6621,639,331.6621,735,331.6621,735,316.6621,725,306.6621,639,306.6621" style="stroke: #A80036; stroke-width: 1.0;"/><line style="stroke: #A80036; stroke-width: 1.0;" x1="725" x2="725" y1="306.6621" y2="316.6621"/><line style="stroke: #A80036; stroke-width: 1.0;" x1="735" x2="725" y1="316.6621" y2="316.6621"/><text fill="#000000" font-family="sans-serif" font-size="13" lengthAdjust="spacingAndGlyphs" textLength="75" x="645" y="324.2305">Terminalfall</text><polygon fill="#A80036" points="485.5,357.9727,475.5,361.9727,485.5,365.9727,481.5,361.9727" style="stroke: #A80036; stroke-width: 1.0;"/><line style="stroke: #A80036; stroke-width: 1.0; stroke-dasharray: 2.0,2.0;" x1="479.5" x2="553.5" y1="361.9727" y2="361.9727"/><text fill="#000000" font-family="sans-serif" font-size="13" lengthAdjust="spacingAndGlyphs" textLength="50" x="491.5" y="357.541">return 2</text><polygon fill="#A80036" points="405.5,387.2832,395.5,391.2832,405.5,395.2832,401.5,391.2832" style="stroke: #A80036; stroke-width: 1.0;"/><line style="stroke: #A80036; stroke-width: 1.0; stroke-dasharray: 2.0,2.0;" x1="399.5" x2="473.5" y1="391.2832" y2="391.2832"/><text fill="#000000" font-family="sans-serif" font-size="13" lengthAdjust="spacingAndGlyphs" textLength="50" x="411.5" y="386.8516">return 2</text><polygon fill="#A80036" points="317.5,416.5938,307.5,420.5938,317.5,424.5938,313.5,420.5938" style="stroke: #A80036; stroke-width: 1.0;"/><line style="stroke: #A80036; stroke-width: 1.0; stroke-dasharray: 2.0,2.0;" x1="311.5" x2="393.5" y1="420.5938" y2="420.5938"/><text fill="#000000" font-family="sans-serif" font-size="13" lengthAdjust="spacingAndGlyphs" textLength="50" x="323.5" y="416.1621">return 2</text><polygon fill="#A80036" points="229.5,445.9043,219.5,449.9043,229.5,453.9043,225.5,449.9043" style="stroke: #A80036; stroke-width: 1.0;"/><line style="stroke: #A80036; stroke-width: 1.0; stroke-dasharray: 2.0,2.0;" x1="223.5" x2="305.5" y1="449.9043" y2="449.9043"/><text fill="#000000" font-family="sans-serif" font-size="13" lengthAdjust="spacingAndGlyphs" textLength="50" x="235.5" y="445.4727">return 2</text><polygon fill="#A80036" points="133.5,475.2148,123.5,479.2148,133.5,483.2148,129.5,479.2148" style="stroke: #A80036; stroke-width: 1.0;"/><line style="stroke: #A80036; stroke-width: 1.0; stroke-dasharray: 2.0,2.0;" x1="127.5" x2="217.5" y1="479.2148" y2="479.2148"/><text fill="#000000" font-family="sans-serif" font-size="13" lengthAdjust="spacingAndGlyphs" textLength="50" x="139.5" y="474.7832">return 2</text><polygon fill="#A80036" points="37.5,504.5254,27.5,508.5254,37.5,512.5254,33.5,508.5254" style="stroke: #A80036; stroke-width: 1.0;"/><line style="stroke: #A80036; stroke-width: 1.0; stroke-dasharray: 2.0,2.0;" x1="31.5" x2="121.5" y1="508.5254" y2="508.5254"/><text fill="#000000" font-family="sans-serif" font-size="13" lengthAdjust="spacingAndGlyphs" textLength="50" x="43.5" y="504.0938">return 2</text><!--
@startuml seq-ggt

actor User

participant t1 as "ggT\nTiefe 1"
participant t2 as "ggT\nTiefe 2"
participant t3 as "ggT\nTiefe 3"
participant t4 as "ggT\nTiefe 4"
participant t5 as "ggT\nTiefe 5"
participant t6 as "ggT\nTiefe 6"
participant t7 as "ggT\nTiefe 7"


User - -> t1 : ggT(16, 38)
t1 - -> t2 : ggT(16, 22)
t2 - -> t3 : ggT(16, 6)
t3 - -> t4 : ggT(10, 6)
t4 - -> t5 : ggT(4, 6)
t5 - -> t6 : ggT(4, 2)
t6 - -> t7 : ggT(2, 2)
t7 - -> t6 : return 2
note right: Terminalfall
t6 - -> t5 : return 2
t5 - -> t4 : return 2
t4 - -> t3 : return 2
t3 - -> t2 : return 2
t2 - -> t1 : return 2
t1 - -> User : return 2

@enduml

PlantUML version 1.2017.16(Sun Sep 03 12:53:37 CEST 2017)
(GPL source distribution)
Java Runtime: Java(TM) SE Runtime Environment
JVM: Java HotSpot(TM) 64-Bit Server VM
Java Version: 1.8.0_144-b01
Operating System: Mac OS X
OS Version: 10.13.4
Default Encoding: UTF-8
Language: en
Country: US
--></g></svg>