<?xml version="1.0" encoding="UTF-8" standalone="no"?><svg xmlns="http://www.w3.org/2000/svg" xmlns:xlink="http://www.w3.org/1999/xlink" contentScriptType="application/ecmascript" contentStyleType="text/css" height="565px" preserveAspectRatio="none" style="width:533px;height:565px;" version="1.1" viewBox="0 0 533 565" width="533px" zoomAndPan="magnify"><defs><filter height="300%" id="fz7e7qjbg0sud" width="300%" x="-1" y="-1"><feGaussianBlur result="blurOut" stdDeviation="2.0"/><feColorMatrix in="blurOut" result="blurOut2" type="matrix" values="0 0 0 0 0 0 0 0 0 0 0 0 0 0 0 0 0 0 .4 0"/><feOffset dx="4.0" dy="4.0" in="blurOut2" result="blurOut3"/><feBlend in="SourceGraphic" in2="blurOut3" mode="normal"/></filter></defs><g><line style="stroke: #A80036; stroke-width: 1.0; stroke-dasharray: 5.0,5.0;" x1="26" x2="26" y1="86.4883" y2="477.9043"/><line style="stroke: #A80036; stroke-width: 1.0; stroke-dasharray: 5.0,5.0;" x1="122.5" x2="122.5" y1="86.4883" y2="477.9043"/><line style="stroke: #A80036; stroke-width: 1.0; stroke-dasharray: 5.0,5.0;" x1="218.5" x2="218.5" y1="86.4883" y2="477.9043"/><line style="stroke: #A80036; stroke-width: 1.0; stroke-dasharray: 5.0,5.0;" x1="314.5" x2="314.5" y1="86.4883" y2="477.9043"/><line style="stroke: #A80036; stroke-width: 1.0; stroke-dasharray: 5.0,5.0;" x1="410.5" x2="410.5" y1="86.4883" y2="477.9043"/><text fill="#000000" font-family="sans-serif" font-size="14" lengthAdjust="spacingAndGlyphs" textLength="31" x="8" y="83.5352">User</text><ellipse cx="26.5" cy="13" fill="#FEFECE" filter="url(#fz7e7qjbg0sud)" rx="8" ry="8" style="stroke: #A80036; stroke-width: 2.0;"/><path d="M26.5,21 L26.5,48 M13.5,29 L39.5,29 M26.5,48 L13.5,63 M26.5,48 L39.5,63 " fill="#FEFECE" filter="url(#fz7e7qjbg0sud)" style="stroke: #A80036; stroke-width: 2.0;"/><text fill="#000000" font-family="sans-serif" font-size="14" lengthAdjust="spacingAndGlyphs" textLength="31" x="8" y="490.4395">User</text><ellipse cx="26.5" cy="503.3926" fill="#FEFECE" filter="url(#fz7e7qjbg0sud)" rx="8" ry="8" style="stroke: #A80036; stroke-width: 2.0;"/><path d="M26.5,511.3926 L26.5,538.3926 M13.5,519.3926 L39.5,519.3926 M26.5,538.3926 L13.5,553.3926 M26.5,538.3926 L39.5,553.3926 " fill="#FEFECE" filter="url(#fz7e7qjbg0sud)" style="stroke: #A80036; stroke-width: 2.0;"/><rect fill="#FEFECE" filter="url(#fz7e7qjbg0sud)" height="46.9766" style="stroke: #A80036; stroke-width: 1.5;" width="74" x="83.5" y="34.5117"/><text fill="#000000" font-family="sans-serif" font-size="14" lengthAdjust="spacingAndGlyphs" textLength="60" x="90.5" y="55.0469">fakultaet</text><text fill="#000000" font-family="sans-serif" font-size="14" lengthAdjust="spacingAndGlyphs" textLength="47" x="97" y="71.5352">Tiefe 1</text><rect fill="#FEFECE" filter="url(#fz7e7qjbg0sud)" height="46.9766" style="stroke: #A80036; stroke-width: 1.5;" width="74" x="83.5" y="476.9043"/><text fill="#000000" font-family="sans-serif" font-size="14" lengthAdjust="spacingAndGlyphs" textLength="60" x="90.5" y="497.4395">fakultaet</text><text fill="#000000" font-family="sans-serif" font-size="14" lengthAdjust="spacingAndGlyphs" textLength="47" x="97" y="513.9277">Tiefe 1</text><rect fill="#FEFECE" filter="url(#fz7e7qjbg0sud)" height="46.9766" style="stroke: #A80036; stroke-width: 1.5;" width="74" x="179.5" y="34.5117"/><text fill="#000000" font-family="sans-serif" font-size="14" lengthAdjust="spacingAndGlyphs" textLength="60" x="186.5" y="55.0469">fakultaet</text><text fill="#000000" font-family="sans-serif" font-size="14" lengthAdjust="spacingAndGlyphs" textLength="47" x="193" y="71.5352">Tiefe 2</text><rect fill="#FEFECE" filter="url(#fz7e7qjbg0sud)" height="46.9766" style="stroke: #A80036; stroke-width: 1.5;" width="74" x="179.5" y="476.9043"/><text fill="#000000" font-family="sans-serif" font-size="14" lengthAdjust="spacingAndGlyphs" textLength="60" x="186.5" y="497.4395">fakultaet</text><text fill="#000000" font-family="sans-serif" font-size="14" lengthAdjust="spacingAndGlyphs" textLength="47" x="193" y="513.9277">Tiefe 2</text><rect fill="#FEFECE" filter="url(#fz7e7qjbg0sud)" height="46.9766" style="stroke: #A80036; stroke-width: 1.5;" width="74" x="275.5" y="34.5117"/><text fill="#000000" font-family="sans-serif" font-size="14" lengthAdjust="spacingAndGlyphs" textLength="60" x="282.5" y="55.0469">fakultaet</text><text fill="#000000" font-family="sans-serif" font-size="14" lengthAdjust="spacingAndGlyphs" textLength="47" x="289" y="71.5352">Tiefe 3</text><rect fill="#FEFECE" filter="url(#fz7e7qjbg0sud)" height="46.9766" style="stroke: #A80036; stroke-width: 1.5;" width="74" x="275.5" y="476.9043"/><text fill="#000000" font-family="sans-serif" font-size="14" lengthAdjust="spacingAndGlyphs" textLength="60" x="282.5" y="497.4395">fakultaet</text><text fill="#000000" font-family="sans-serif" font-size="14" lengthAdjust="spacingAndGlyphs" textLength="47" x="289" y="513.9277">Tiefe 3</text><rect fill="#FEFECE" filter="url(#fz7e7qjbg0sud)" height="46.9766" style="stroke: #A80036; stroke-width: 1.5;" width="74" x="371.5" y="34.5117"/><text fill="#000000" font-family="sans-serif" font-size="14" lengthAdjust="spacingAndGlyphs" textLength="60" x="378.5" y="55.0469">fakultaet</text><text fill="#000000" font-family="sans-serif" font-size="14" lengthAdjust="spacingAndGlyphs" textLength="47" x="385" y="71.5352">Tiefe 4</text><rect fill="#FEFECE" filter="url(#fz7e7qjbg0sud)" height="46.9766" style="stroke: #A80036; stroke-width: 1.5;" width="74" x="371.5" y="476.9043"/><text fill="#000000" font-family="sans-serif" font-size="14" lengthAdjust="spacingAndGlyphs" textLength="60" x="378.5" y="497.4395">fakultaet</text><text fill="#000000" font-family="sans-serif" font-size="14" lengthAdjust="spacingAndGlyphs" textLength="47" x="385" y="513.9277">Tiefe 4</text><polygon fill="#A80036" points="110.5,113.4883,120.5,117.4883,110.5,121.4883,114.5,117.4883" style="stroke: #A80036; stroke-width: 1.0;"/><line style="stroke: #A80036; stroke-width: 1.0; stroke-dasharray: 2.0,2.0;" x1="26.5" x2="116.5" y1="117.4883" y2="117.4883"/><text fill="#000000" font-family="sans-serif" font-size="13" lengthAdjust="spacingAndGlyphs" textLength="72" x="33.5" y="113.0566">fakultaet(4)</text><polygon fill="#A80036" points="206.5,142.7988,216.5,146.7988,206.5,150.7988,210.5,146.7988" style="stroke: #A80036; stroke-width: 1.0;"/><line style="stroke: #A80036; stroke-width: 1.0; stroke-dasharray: 2.0,2.0;" x1="122.5" x2="212.5" y1="146.7988" y2="146.7988"/><text fill="#000000" font-family="sans-serif" font-size="13" lengthAdjust="spacingAndGlyphs" textLength="72" x="129.5" y="142.3672">fakultaet(3)</text><polygon fill="#A80036" points="302.5,172.1094,312.5,176.1094,302.5,180.1094,306.5,176.1094" style="stroke: #A80036; stroke-width: 1.0;"/><line style="stroke: #A80036; stroke-width: 1.0; stroke-dasharray: 2.0,2.0;" x1="218.5" x2="308.5" y1="176.1094" y2="176.1094"/><text fill="#000000" font-family="sans-serif" font-size="13" lengthAdjust="spacingAndGlyphs" textLength="72" x="225.5" y="171.6777">fakultaet(2)</text><polygon fill="#A80036" points="398.5,201.4199,408.5,205.4199,398.5,209.4199,402.5,205.4199" style="stroke: #A80036; stroke-width: 1.0;"/><line style="stroke: #A80036; stroke-width: 1.0; stroke-dasharray: 2.0,2.0;" x1="314.5" x2="404.5" y1="205.4199" y2="205.4199"/><text fill="#000000" font-family="sans-serif" font-size="13" lengthAdjust="spacingAndGlyphs" textLength="72" x="321.5" y="200.9883">fakultaet(1)</text><polygon fill="#A80036" points="325.5,235.7305,315.5,239.7305,325.5,243.7305,321.5,239.7305" style="stroke: #A80036; stroke-width: 1.0;"/><line style="stroke: #A80036; stroke-width: 1.0; stroke-dasharray: 2.0,2.0;" x1="319.5" x2="409.5" y1="239.7305" y2="239.7305"/><text fill="#000000" font-family="sans-serif" font-size="13" lengthAdjust="spacingAndGlyphs" textLength="50" x="331.5" y="235.2988">return 1</text><polygon fill="#FBFB77" filter="url(#fz7e7qjbg0sud)" points="415,218.7305,415,243.7305,511,243.7305,511,228.7305,501,218.7305,415,218.7305" style="stroke: #A80036; stroke-width: 1.0;"/><line style="stroke: #A80036; stroke-width: 1.0;" x1="501" x2="501" y1="218.7305" y2="228.7305"/><line style="stroke: #A80036; stroke-width: 1.0;" x1="511" x2="501" y1="228.7305" y2="228.7305"/><text fill="#000000" font-family="sans-serif" font-size="13" lengthAdjust="spacingAndGlyphs" textLength="75" x="421" y="236.2988">Terminalfall</text><line style="stroke: #A80036; stroke-width: 1.0; stroke-dasharray: 2.0,2.0;" x1="314.5" x2="356.5" y1="274.3516" y2="274.3516"/><line style="stroke: #A80036; stroke-width: 1.0; stroke-dasharray: 2.0,2.0;" x1="356.5" x2="356.5" y1="274.3516" y2="287.3516"/><line style="stroke: #A80036; stroke-width: 1.0; stroke-dasharray: 2.0,2.0;" x1="315.5" x2="356.5" y1="287.3516" y2="287.3516"/><polygon fill="#A80036" points="325.5,283.3516,315.5,287.3516,325.5,291.3516,321.5,287.3516" style="stroke: #A80036; stroke-width: 1.0;"/><text fill="#000000" font-family="sans-serif" font-size="13" lengthAdjust="spacingAndGlyphs" textLength="56" x="321.5" y="269.6094">2 * 1 = 2</text><polygon fill="#A80036" points="229.5,312.3516,219.5,316.3516,229.5,320.3516,225.5,316.3516" style="stroke: #A80036; stroke-width: 1.0;"/><line style="stroke: #A80036; stroke-width: 1.0; stroke-dasharray: 2.0,2.0;" x1="223.5" x2="313.5" y1="316.3516" y2="316.3516"/><text fill="#000000" font-family="sans-serif" font-size="13" lengthAdjust="spacingAndGlyphs" textLength="50" x="235.5" y="311.9199">return 2</text><line style="stroke: #A80036; stroke-width: 1.0; stroke-dasharray: 2.0,2.0;" x1="218.5" x2="260.5" y1="345.9727" y2="345.9727"/><line style="stroke: #A80036; stroke-width: 1.0; stroke-dasharray: 2.0,2.0;" x1="260.5" x2="260.5" y1="345.9727" y2="358.9727"/><line style="stroke: #A80036; stroke-width: 1.0; stroke-dasharray: 2.0,2.0;" x1="219.5" x2="260.5" y1="358.9727" y2="358.9727"/><polygon fill="#A80036" points="229.5,354.9727,219.5,358.9727,229.5,362.9727,225.5,358.9727" style="stroke: #A80036; stroke-width: 1.0;"/><text fill="#000000" font-family="sans-serif" font-size="13" lengthAdjust="spacingAndGlyphs" textLength="56" x="225.5" y="341.2305">3 * 2 = 6</text><polygon fill="#A80036" points="133.5,383.9727,123.5,387.9727,133.5,391.9727,129.5,387.9727" style="stroke: #A80036; stroke-width: 1.0;"/><line style="stroke: #A80036; stroke-width: 1.0; stroke-dasharray: 2.0,2.0;" x1="127.5" x2="217.5" y1="387.9727" y2="387.9727"/><text fill="#000000" font-family="sans-serif" font-size="13" lengthAdjust="spacingAndGlyphs" textLength="50" x="139.5" y="383.541">return 6</text><line style="stroke: #A80036; stroke-width: 1.0; stroke-dasharray: 2.0,2.0;" x1="122.5" x2="164.5" y1="417.5938" y2="417.5938"/><line style="stroke: #A80036; stroke-width: 1.0; stroke-dasharray: 2.0,2.0;" x1="164.5" x2="164.5" y1="417.5938" y2="430.5938"/><line style="stroke: #A80036; stroke-width: 1.0; stroke-dasharray: 2.0,2.0;" x1="123.5" x2="164.5" y1="430.5938" y2="430.5938"/><polygon fill="#A80036" points="133.5,426.5938,123.5,430.5938,133.5,434.5938,129.5,430.5938" style="stroke: #A80036; stroke-width: 1.0;"/><text fill="#000000" font-family="sans-serif" font-size="13" lengthAdjust="spacingAndGlyphs" textLength="30" x="129.5" y="412.8516">4 * 6</text><polygon fill="#A80036" points="37.5,455.5938,27.5,459.5938,37.5,463.5938,33.5,459.5938" style="stroke: #A80036; stroke-width: 1.0;"/><line style="stroke: #A80036; stroke-width: 1.0; stroke-dasharray: 2.0,2.0;" x1="31.5" x2="121.5" y1="459.5938" y2="459.5938"/><text fill="#000000" font-family="sans-serif" font-size="13" lengthAdjust="spacingAndGlyphs" textLength="58" x="43.5" y="455.1621">return 24</text><!--
@startuml seq-fac

actor User

participant t1 as "fakultaet\nTiefe 1"
participant t2 as "fakultaet\nTiefe 2"
participant t3 as "fakultaet\nTiefe 3"
participant t4 as "fakultaet\nTiefe 4"

User - -> t1 : fakultaet(4)
t1 - -> t2 : fakultaet(3)
t2 - -> t3 : fakultaet(2)
t3 - -> t4 : fakultaet(1)
t4 - -> t3 : return 1
note right: Terminalfall
t3 - -> t3 : 2 * 1 = 2
t3 - -> t2 : return 2
t2 - -> t2 : 3 * 2 = 6
t2 - -> t1 : return 6
t1 - -> t1 : 4 * 6
t1 - -> User : return 24

@enduml

PlantUML version 1.2017.16(Sun Sep 03 12:53:37 CEST 2017)
(GPL source distribution)
Java Runtime: Java(TM) SE Runtime Environment
JVM: Java HotSpot(TM) 64-Bit Server VM
Java Version: 1.8.0_144-b01
Operating System: Mac OS X
OS Version: 10.13.4
Default Encoding: UTF-8
Language: en
Country: US
--></g></svg>